<svg width="24" height="24" viewBox="0 0 24 24" fill="none" xmlns="http://www.w3.org/2000/svg">
<g clip-path="url(#clip0)">
<path d="M18.3289 11.7869H20.003C20.3814 11.7869 20.6894 11.479 20.6894 11.1005V9.42642C20.6894 9.04795 20.3814 8.74003 20.003 8.74003H18.3289C17.9504 8.74003 17.6425 9.04795 17.6425 9.42642V11.1005C17.6425 11.479 17.9504 11.7869 18.3289 11.7869ZM18.3456 9.44316H19.9862V11.0838H18.3456V9.44316ZM18.3289 16.24H20.003C20.3814 16.24 20.6894 15.9321 20.6894 15.5536V13.8795C20.6894 13.5011 20.3814 13.1932 20.003 13.1932H18.3289C17.9504 13.1932 17.6425 13.5011 17.6425 13.8795V15.5536C17.6425 15.9321 17.9504 16.24 18.3289 16.24ZM18.3456 13.8963H19.9862V15.5369H18.3456V13.8963ZM13.5516 11.7869H15.2257C15.6041 11.7869 15.9121 11.479 15.9121 11.1005V9.42642C15.9121 9.04795 15.6041 8.74003 15.2257 8.74003H13.5516C13.1731 8.74003 12.8652 9.04795 12.8652 9.42642V11.1005C12.8652 11.479 13.1731 11.7869 13.5516 11.7869ZM13.5683 9.44316H15.2089V11.0838H13.5683V9.44316ZM5.67104 17.4375H3.99695C3.61848 17.4375 3.31056 17.7454 3.31056 18.1239V19.798C3.31056 20.1765 3.61848 20.4844 3.99695 20.4844H5.67104C6.04951 20.4844 6.35744 20.1765 6.35744 19.798V18.1239C6.35744 17.7454 6.04951 17.4375 5.67104 17.4375ZM5.65431 19.7812H4.01369V18.1406H5.65431V19.7812ZM5.67104 8.74003H3.99695C3.61848 8.74003 3.31056 9.04795 3.31056 9.42642V11.1005C3.31056 11.479 3.61848 11.7869 3.99695 11.7869H5.67104C6.04951 11.7869 6.35744 11.479 6.35744 11.1005V9.42642C6.35744 9.04791 6.04951 8.74003 5.67104 8.74003ZM5.65431 11.0838H4.01369V9.44316H5.65431V11.0838ZM13.5516 16.1356H15.2257C15.6041 16.1356 15.9121 15.8277 15.9121 15.4493V13.7752C15.9121 13.3967 15.6041 13.0888 15.2257 13.0888H13.5516C13.1731 13.0888 12.8652 13.3967 12.8652 13.7752V15.4493C12.8652 15.8277 13.1731 16.1356 13.5516 16.1356ZM13.5683 13.7919H15.2089V15.4325H13.5683V13.7919ZM21.0385 1.60659H19.5354V1.06908C19.5354 0.479578 19.0559 0 18.4664 0H18.3049C17.7155 0 17.2359 0.479578 17.2359 1.06908V1.60659H6.76403V1.06908C6.76403 0.479578 6.28445 0 5.69495 0H5.53351C4.94401 0 4.46444 0.479578 4.46444 1.06908V1.60659H2.96139C1.99084 1.60659 1.20123 2.3962 1.20123 3.36675V22.2422C1.20123 23.2115 1.98976 24 2.95905 24H21.041C22.0103 24 22.7988 23.2115 22.7988 22.2422V3.36675C22.7987 2.3962 22.0091 1.60659 21.0385 1.60659ZM17.939 1.06908C17.939 0.867281 18.1032 0.703125 18.305 0.703125H18.4664C18.6682 0.703125 18.8324 0.867281 18.8324 1.06908V1.60659H17.939V1.06908ZM5.16761 1.06908C5.16761 0.867281 5.33176 0.703125 5.53356 0.703125H5.695C5.89679 0.703125 6.06095 0.867281 6.06095 1.06908V1.60659H5.16765V1.06908H5.16761ZM22.0956 22.2422C22.0956 22.8238 21.6225 23.2969 21.0409 23.2969H2.959C2.37742 23.2969 1.90431 22.8238 1.90431 22.2422V22.24C2.19887 22.4619 2.56501 22.5938 2.96139 22.5938H17.2153C17.6854 22.5938 18.1275 22.4107 18.4599 22.0782L22.0956 18.4425V22.2422ZM18.1012 21.4425C18.1287 21.3288 18.1437 21.2101 18.1437 21.088V18.7413C18.1437 18.2988 18.5038 17.9387 18.9463 17.9387H21.293C21.4151 17.9387 21.5338 17.9237 21.6475 17.8962L18.1012 21.4425ZM22.0956 6.63066H7.11559C6.92144 6.63066 6.76403 6.78806 6.76403 6.98222C6.76403 7.17637 6.92144 7.33378 7.11559 7.33378H22.0956V16.4331C22.0956 16.8756 21.7356 17.2357 21.293 17.2357H18.9463C18.1161 17.2357 17.4406 17.9111 17.4406 18.7413V21.0881C17.4406 21.5306 17.0806 21.8907 16.6381 21.8907H2.96139C2.37855 21.8907 1.90436 21.4165 1.90436 20.8336V7.33378H5.70934C5.9035 7.33378 6.0609 7.17637 6.0609 6.98222C6.0609 6.78806 5.9035 6.63066 5.70934 6.63066H1.90431V3.36675C1.90431 2.78391 2.3785 2.30972 2.96134 2.30972H4.46444V3.34341C4.46444 3.93291 4.94401 4.41248 5.53351 4.41248C5.72767 4.41248 5.88508 4.25508 5.88508 4.06092C5.88508 3.86677 5.72767 3.70936 5.53351 3.70936C5.33172 3.70936 5.16756 3.5452 5.16756 3.34341V2.30972H17.2359V3.34341C17.2359 3.93291 17.7155 4.41248 18.305 4.41248C18.4991 4.41248 18.6565 4.25508 18.6565 4.06092C18.6565 3.86677 18.4991 3.70936 18.305 3.70936C18.1032 3.70936 17.939 3.5452 17.939 3.34341V2.30972H21.0386C21.6214 2.30972 22.0956 2.78391 22.0956 3.36675V6.63066ZM5.67104 13.0888H3.99695C3.61848 13.0888 3.31056 13.3967 3.31056 13.7752V15.4493C3.31056 15.8277 3.61848 16.1356 3.99695 16.1356H5.67104C6.04951 16.1356 6.35744 15.8277 6.35744 15.4493V13.7752C6.35744 13.3966 6.04951 13.0888 5.67104 13.0888ZM5.65431 15.4325H4.01369V13.7919H5.65431V15.4325ZM8.77426 11.7869H10.4484C10.8268 11.7869 11.1347 11.479 11.1347 11.1005V9.42642C11.1347 9.04795 10.8268 8.74003 10.4484 8.74003H8.77426C8.39579 8.74003 8.08787 9.04795 8.08787 9.42642V11.1005C8.08787 11.479 8.39579 11.7869 8.77426 11.7869ZM8.791 9.44316H10.4316V11.0838H8.791V9.44316ZM13.5679 19.7812C13.5592 19.5948 13.4053 19.4464 13.2167 19.4464C13.0225 19.4464 12.8651 19.6038 12.8651 19.798C12.8651 20.1765 13.1731 20.4844 13.5515 20.4844H15.2256C15.6041 20.4844 15.912 20.1765 15.912 19.798V18.1239C15.912 17.7454 15.6041 17.4375 15.2256 17.4375H13.5515C13.1731 17.4375 12.8651 17.7454 12.8651 18.1239V18.6067C12.8651 18.8009 13.0225 18.9583 13.2167 18.9583C13.4109 18.9583 13.5683 18.8009 13.5683 18.6067V18.1406H15.2089V19.7812H13.5679ZM8.77426 16.1356H10.4484C10.8268 16.1356 11.1347 15.8277 11.1347 15.4493V13.7752C11.1347 13.3967 10.8268 13.0888 10.4484 13.0888H8.77426C8.39579 13.0888 8.08787 13.3967 8.08787 13.7752V15.4493C8.08787 15.8277 8.39579 16.1356 8.77426 16.1356ZM8.791 13.7919H10.4316V15.4325H8.791V13.7919ZM8.77426 20.4844H10.4484C10.8268 20.4844 11.1347 20.1765 11.1347 19.798V18.1239C11.1347 17.7454 10.8268 17.4375 10.4484 17.4375H8.77426C8.39579 17.4375 8.08787 17.7454 8.08787 18.1239V19.798C8.08787 20.1765 8.39579 20.4844 8.77426 20.4844ZM8.791 18.1406H10.4316V19.7812H8.791V18.1406Z" fill="#666666"/>
</g>
<defs>
<clipPath id="clip0">
<rect width="24" height="24" fill="white"/>
</clipPath>
</defs>
</svg>
