<svg width="338" height="237" viewBox="0 0 338 237" fill="none" xmlns="http://www.w3.org/2000/svg">
<path d="M76.8629 62.8689C80.916 62.8689 84.2017 59.5833 84.2017 55.5302C84.2017 51.4771 80.916 48.1914 76.8629 48.1914C72.8098 48.1914 69.5242 51.4771 69.5242 55.5302C69.5242 59.5833 72.8098 62.8689 76.8629 62.8689Z" fill="#DEE5DC"/>
<path d="M76.5854 50.5806C79.5324 50.5806 81.9215 48.1915 81.9215 45.2445C81.9215 42.2974 79.5324 39.9083 76.5854 39.9083C73.6383 39.9083 71.2492 42.2974 71.2492 45.2445C71.2492 48.1915 73.6383 50.5806 76.5854 50.5806Z" fill="#DEE5DC"/>
<path d="M76.6623 72.8489C76.3299 72.8489 76.06 72.6294 76.0593 72.2973L75.9824 43.0727C75.9816 42.7396 76.2508 42.4586 76.5839 42.4586C76.5844 42.4586 76.5849 42.4586 76.5853 42.4586C76.9177 42.4586 77.1876 42.762 77.1883 43.0942L77.2653 72.2768C77.266 72.6099 76.9968 72.8489 76.6637 72.8489C76.6635 72.8489 76.6628 72.8489 76.6623 72.8489Z" fill="#161616"/>
<path d="M76.6628 57.7254C76.4476 57.7254 76.2395 57.6099 76.1307 57.4068C75.9737 57.1133 76.0841 56.7479 76.3777 56.5906L80.3429 54.4679C80.6362 54.3106 81.0018 54.4213 81.1591 54.7149C81.3161 55.0084 81.2056 55.3738 80.9121 55.5311L76.9469 57.6538C76.8562 57.7023 76.759 57.7254 76.6628 57.7254Z" fill="#161616"/>
<path d="M76.5856 48.7948C76.4132 48.7948 76.2419 48.7212 76.1228 48.5787L73.0034 44.8477C72.7897 44.592 72.8237 44.2119 73.0792 43.9984C73.3348 43.7843 73.7147 43.8188 73.9284 44.0742L77.0477 47.8052C77.2614 48.0608 77.2274 48.441 76.972 48.6544C76.8594 48.7487 76.7221 48.7948 76.5856 48.7948Z" fill="#161616"/>
<path d="M36.4201 111.199V67.7839C36.4201 67.7839 221.691 56.2335 274.306 108.848L36.4201 111.199Z" fill="#F7F9F7"/>
<path d="M36.4201 111.235C36.4201 111.235 164.252 88.2415 308.244 105.478V200.332L36.4201 197.615V111.235Z" fill="#F5F8FD"/>
<path d="M26.2309 113.065C25.9436 113.065 25.6889 112.859 25.6378 112.566C25.5802 112.238 25.7994 111.926 26.1274 111.868C26.4986 111.803 63.8815 105.306 118.906 101.399C151.223 99.1049 183.216 98.1387 213.992 98.5292C252.469 99.0167 289.148 101.636 323.01 106.314C323.34 106.359 323.571 106.664 323.525 106.993C323.48 107.323 323.175 107.552 322.846 107.508C289.033 102.837 252.404 100.222 213.977 99.7349C183.232 99.3459 151.275 100.31 118.992 102.602C64.0282 106.505 26.7063 112.991 26.3358 113.056C26.3006 113.062 26.2654 113.065 26.2309 113.065Z" fill="#161616"/>
<path d="M231.681 63.8985L206.998 57.702C206.998 57.702 205.226 54.2551 208.094 53.074L230.491 57.8662C230.491 57.8662 233.331 60.74 231.681 63.8985Z" fill="white"/>
<path d="M231.681 64.5016C231.633 64.5016 231.583 64.4958 231.534 64.4835L206.851 58.2873C206.683 58.2451 206.541 58.1324 206.462 57.9783C206.42 57.8968 205.444 55.9653 206.056 54.3006C206.355 53.488 206.963 52.888 207.864 52.5168C207.976 52.4705 208.1 52.4591 208.22 52.4847L230.617 57.2769C230.732 57.3015 230.837 57.3592 230.92 57.4429C230.952 57.4754 231.712 58.2518 232.254 59.4496C232.992 61.0813 232.979 62.7163 232.216 64.1779C232.11 64.3803 231.902 64.5016 231.681 64.5016ZM207.429 57.1887L231.34 63.1912C232.192 60.9616 230.623 58.9308 230.176 58.4154L208.16 53.7049C207.67 53.942 207.351 54.2743 207.188 54.7167C206.863 55.6004 207.234 56.7101 207.429 57.1887Z" fill="#161616"/>
<path d="M197.537 65.9081V104.737L271.824 122.568V81.2742L197.537 65.9081Z" fill="#EAEFE8"/>
<path d="M271.945 123.17C271.898 123.17 271.85 123.165 271.804 123.154L197.517 105.324C197.246 105.259 197.054 105.016 197.054 104.737V65.908C197.054 65.7266 197.136 65.5549 197.277 65.4406C197.417 65.326 197.601 65.2802 197.78 65.3176L272.067 80.6837C272.347 80.7416 272.548 80.9883 272.548 81.2742V122.568C272.548 122.752 272.463 122.927 272.318 123.041C272.211 123.126 272.079 123.17 271.945 123.17ZM198.26 104.262L271.342 121.803V81.7652L198.26 66.6485V104.262Z" fill="#161616"/>
<path d="M271.824 81.2742L297.757 69.97L297.836 109.16L271.824 122.568V81.2742Z" fill="#EAEFE8"/>
<path d="M271.945 123.171C271.836 123.171 271.727 123.141 271.631 123.082C271.451 122.973 271.342 122.778 271.342 122.568V81.2742C271.342 81.0344 271.484 80.8176 271.703 80.7216L297.576 69.4176C297.762 69.3366 297.976 69.3537 298.146 69.4652C298.317 69.5761 298.42 69.7652 298.42 69.9685L298.53 109.159C298.531 109.385 298.404 109.593 298.203 109.696L272.221 123.103C272.134 123.148 272.039 123.171 271.945 123.171ZM272.548 81.6685V121.578L297.323 108.794L297.217 70.8904L272.548 81.6685Z" fill="#161616"/>
<path d="M197.75 65.9079L230.261 56.0665L297.826 69.9698L271.963 81.274L197.75 65.9079Z" fill="#EAEFE8"/>
<path d="M271.962 81.8774C271.922 81.8774 271.881 81.873 271.84 81.8648L197.628 66.4987C197.358 66.4427 197.16 66.2109 197.148 65.9353C197.135 65.6596 197.311 65.4109 197.575 65.3311L230.086 55.4897C230.182 55.4607 230.285 55.4557 230.383 55.4762L297.947 69.3795C298.204 69.4325 298.398 69.646 298.425 69.9072C298.453 70.1684 298.308 70.4173 298.067 70.5227L272.204 81.8267C272.127 81.8602 272.045 81.8774 271.962 81.8774ZM200.194 65.7985L271.897 80.6451L295.844 70.1783L230.289 56.6882L200.194 65.7985Z" fill="#161616"/>
<path d="M271.944 95.8828C271.898 95.8828 271.85 95.8775 271.804 95.8664L197.61 78.1387C197.286 78.0613 197.087 77.7359 197.164 77.412C197.241 77.0881 197.567 76.8884 197.89 76.9655L271.879 94.644L296.773 82.9138C297.074 82.7718 297.433 82.9011 297.576 83.2023C297.717 83.5036 297.588 83.8627 297.287 84.0048L272.202 95.8251C272.121 95.8635 272.033 95.8828 271.944 95.8828Z" fill="#161616"/>
<path d="M271.945 110.362C271.9 110.362 271.855 110.357 271.811 110.347L197.524 93.4698C197.199 93.396 196.995 93.073 197.069 92.7484C197.143 92.4235 197.465 92.2185 197.791 92.294L271.87 109.123L297.56 96.4791C297.858 96.3315 298.22 96.4553 298.367 96.7541C298.514 97.0527 298.391 97.4142 298.092 97.5614L272.211 110.3C272.127 110.341 272.036 110.362 271.945 110.362Z" fill="#161616"/>
<path d="M264.588 88.123C263.458 88.123 262.538 87.2033 262.538 86.0728C262.538 84.9424 263.458 84.0227 264.588 84.0227C265.719 84.0227 266.638 84.9424 266.638 86.0728C266.638 87.2033 265.719 88.123 264.588 88.123ZM264.588 85.2287C264.123 85.2287 263.744 85.6073 263.744 86.0728C263.744 86.5383 264.123 86.917 264.588 86.917C265.054 86.917 265.432 86.5383 265.432 86.0728C265.432 85.6073 265.054 85.2287 264.588 85.2287Z" fill="#161616"/>
<path d="M263.141 104.042C262.011 104.042 261.091 103.122 261.091 101.991C261.091 100.861 262.011 99.9413 263.141 99.9413C264.271 99.9413 265.191 100.861 265.191 101.991C265.191 103.122 264.271 104.042 263.141 104.042ZM263.141 101.147C262.676 101.147 262.297 101.526 262.297 101.991C262.297 102.457 262.676 102.836 263.141 102.836C263.607 102.836 263.985 102.457 263.985 101.991C263.985 101.526 263.607 101.147 263.141 101.147Z" fill="#161616"/>
<path d="M203.808 89.5701C202.677 89.5701 201.758 88.6505 201.758 87.52C201.758 86.3895 202.677 85.4698 203.808 85.4698C204.938 85.4698 205.858 86.3895 205.858 87.52C205.858 88.6505 204.938 89.5701 203.808 89.5701ZM203.808 86.6758C203.342 86.6758 202.963 87.0545 202.963 87.52C202.963 87.9855 203.342 88.3642 203.808 88.3642C204.273 88.3642 204.652 87.9855 204.652 87.52C204.652 87.0545 204.273 86.6758 203.808 86.6758Z" fill="#161616"/>
<path d="M203.808 102.112C202.677 102.112 201.758 101.193 201.758 100.062C201.758 98.9316 202.677 98.012 203.808 98.012C204.938 98.012 205.858 98.9316 205.858 100.062C205.858 101.193 204.938 102.112 203.808 102.112ZM203.808 99.2179C203.342 99.2179 202.963 99.5966 202.963 100.062C202.963 100.528 203.342 100.906 203.808 100.906C204.273 100.906 204.652 100.528 204.652 100.062C204.652 99.5966 204.273 99.2179 203.808 99.2179Z" fill="#161616"/>
<path d="M205.948 75.6163L181.265 69.4201C181.265 69.4201 179.492 65.9732 182.36 64.7919L204.758 69.5844C204.758 69.5841 207.598 72.4579 205.948 75.6163Z" fill="white"/>
<path d="M205.948 76.2193C205.9 76.2193 205.85 76.2135 205.801 76.2012L181.118 70.0049C180.95 69.9627 180.808 69.8501 180.729 69.696C180.687 69.6145 179.711 67.683 180.323 66.0183C180.622 65.2054 181.23 64.6054 182.131 64.2344C182.243 64.1881 182.367 64.1768 182.487 64.2023L204.884 68.9948C204.999 69.0194 205.104 69.0771 205.187 69.1608C205.219 69.1933 205.979 69.9697 206.521 71.1675C207.259 72.7992 207.246 74.4342 206.483 75.8958C206.377 76.0979 206.168 76.2193 205.948 76.2193ZM181.696 68.9063L205.607 74.9089C206.459 72.6793 204.889 70.6484 204.443 70.133L182.426 65.4223C181.936 65.6596 181.617 65.992 181.455 66.4343C181.13 67.3181 181.501 68.4278 181.696 68.9063Z" fill="#161616"/>
<path d="M213.214 68.4293C213.214 68.4293 218.118 47.844 223.384 47.0808C228.65 46.3177 234.773 53.7947 234.773 53.7947L244.065 32.2757C244.065 32.2757 248.842 25.5756 257.68 27.9873C266.517 30.399 274.306 51.1466 274.306 51.1466C274.306 51.1466 284.237 52.0829 285.869 57.5216C287.501 62.9602 289.422 72.9145 289.422 72.9145L271.963 80.5506L213.214 68.4293Z" fill="#21D363"/>
<path d="M251.318 56.6698C251.053 56.6698 250.81 56.494 250.737 56.2265L249.415 51.422C249.385 51.3151 249.386 51.2018 249.417 51.0952C249.428 51.0568 249.439 51.0185 249.45 50.9796C249.447 50.9849 249.444 50.9902 249.442 50.9955C249.283 51.2886 248.917 51.3979 248.625 51.2399C248.031 50.9201 245.052 49.2512 244.659 47.819C244.564 47.4722 244.604 47.1377 244.776 46.8514C244.971 46.5265 245.284 46.3244 245.658 46.2824C246.414 46.1982 247.384 46.8198 248.162 47.4558C248.141 46.4975 248.257 45.3738 248.815 44.7552C249.131 44.4047 249.553 44.2352 250.036 44.2687C250.432 44.295 250.765 44.4855 251 44.8201C251.946 46.169 250.941 50.1229 250.622 51.2642L251.9 55.9065C251.988 56.2275 251.799 56.5594 251.478 56.6477C251.425 56.6628 251.371 56.6698 251.318 56.6698ZM245.815 47.4773C245.826 47.7925 246.968 48.9756 249.197 50.1786C249.413 50.2949 249.529 50.5238 249.512 50.7531C250.088 48.6249 250.433 46.1124 250.012 45.5128C249.985 45.4742 249.978 45.4737 249.956 45.472C249.825 45.4648 249.767 45.5005 249.711 45.5627C249.269 46.0513 249.327 47.8246 249.505 48.8692C249.549 49.1302 249.418 49.3897 249.182 49.5088C248.945 49.6277 248.659 49.5793 248.476 49.3882C247.494 48.3668 246.258 47.4758 245.84 47.4758C245.831 47.4761 245.823 47.4763 245.815 47.4773Z" fill="#161616"/>
<path d="M227.681 64.6294C227.416 64.6294 227.173 64.4536 227.1 64.1861L225.778 59.3815C225.748 59.2747 225.749 59.1613 225.78 59.0547C225.791 59.0164 225.802 58.978 225.813 58.9392C225.81 58.9445 225.808 58.9498 225.805 58.9551C225.646 59.2479 225.28 59.3574 224.988 59.1994C224.394 58.8796 221.415 57.2108 221.022 55.7786C220.927 55.4318 220.967 55.0972 221.139 54.8109C221.334 54.4861 221.647 54.2839 222.021 54.242C222.778 54.1573 223.747 54.7791 224.525 55.4154C224.504 54.4571 224.62 53.3334 225.178 52.7147C225.494 52.3641 225.917 52.1955 226.399 52.2283C226.795 52.2546 227.128 52.4451 227.363 52.7796C228.309 54.1286 227.304 58.0825 226.985 59.2238L228.263 63.866C228.351 64.1871 228.162 64.519 227.841 64.6072C227.788 64.6224 227.734 64.6294 227.681 64.6294ZM222.178 55.4368C222.189 55.7521 223.331 56.9351 225.56 58.1382C225.776 58.2545 225.892 58.4833 225.875 58.7127C226.451 56.5844 226.796 54.0719 226.376 53.4723C226.349 53.4337 226.341 53.4333 226.319 53.4316C226.188 53.4241 226.13 53.46 226.074 53.5223C225.632 54.0109 225.69 55.7842 225.868 56.8288C225.912 57.0897 225.782 57.3493 225.545 57.4684C225.309 57.5876 225.022 57.5388 224.839 57.3478C223.836 56.3044 222.563 55.3913 222.178 55.4368Z" fill="#161616"/>
<path d="M248.073 64.7324C247.946 64.7324 247.819 64.6931 247.71 64.6113L243.728 61.6157C243.64 61.5489 243.571 61.459 243.53 61.3555C243.515 61.3186 243.501 61.2814 243.486 61.2443C243.487 61.2501 243.488 61.2559 243.489 61.2617C243.543 61.5904 243.32 61.9003 242.992 61.9544C242.326 62.0639 238.948 62.5627 237.762 61.669C237.475 61.4527 237.303 61.163 237.263 60.8314C237.219 60.4554 237.344 60.1039 237.614 59.842C238.158 59.3145 239.309 59.2122 240.313 59.2412C239.711 58.4957 239.116 57.535 239.18 56.7041C239.216 56.2338 239.448 55.8425 239.85 55.5729C240.179 55.352 240.56 55.2991 240.95 55.4205C242.523 55.9101 244.143 59.6548 244.588 60.7527L248.435 63.647C248.702 63.8472 248.755 64.2252 248.555 64.4915C248.436 64.6494 248.256 64.7324 248.073 64.7324ZM242.895 60.7564C243.1 60.7564 243.287 60.861 243.397 61.0265C242.553 58.9896 241.291 56.7897 240.591 56.5722C240.546 56.5574 240.54 56.5623 240.522 56.5746C240.415 56.6464 240.389 56.7128 240.383 56.7967C240.332 57.4554 241.461 58.8225 242.24 59.5391C242.435 59.7183 242.49 60.0038 242.376 60.2429C242.262 60.4816 242.007 60.6186 241.743 60.5793C240.312 60.3661 238.754 60.4233 238.468 60.6922C238.744 61.0482 240.832 61.0868 242.796 60.7646C242.829 60.759 242.862 60.7564 242.895 60.7564Z" fill="#161616"/>
<path d="M259.375 42.0211C259.053 42.0211 258.786 41.7667 258.773 41.4423L258.575 36.4631C258.57 36.3521 258.597 36.2419 258.651 36.1452C258.67 36.1105 258.689 36.076 258.708 36.041C258.705 36.0453 258.701 36.0494 258.698 36.0535C258.477 36.3029 258.096 36.327 257.847 36.1066C257.341 35.6604 254.818 33.3594 254.76 31.8754C254.746 31.5162 254.861 31.1993 255.093 30.9595C255.356 30.6877 255.705 30.5623 256.081 30.6055C256.834 30.6935 257.64 31.5198 258.254 32.3163C258.45 31.3783 258.819 30.31 259.502 29.8339C259.889 29.5645 260.34 29.4965 260.802 29.6373C261.182 29.7529 261.463 30.0141 261.616 30.3927C262.232 31.9214 260.356 35.5444 259.787 36.5837L259.978 41.3943C259.991 41.7271 259.732 42.0076 259.4 42.0209C259.391 42.0209 259.383 42.0211 259.375 42.0211ZM255.963 31.8042C255.861 32.2427 257.152 33.8842 258.645 35.2024C258.828 35.3644 258.889 35.6129 258.821 35.8324C259.865 33.89 260.771 31.522 260.497 30.8428C260.479 30.7991 260.472 30.7972 260.451 30.7905C260.327 30.7531 260.26 30.775 260.191 30.8233C259.649 31.2007 259.304 32.94 259.241 33.9964C259.226 34.2607 259.039 34.4838 258.782 34.5466C258.524 34.6088 258.257 34.4964 258.121 34.2692C257.381 33.0261 256.352 31.8553 255.963 31.8042Z" fill="#161616"/>
<path d="M266.015 61.513C266.011 61.513 266.007 61.513 266.004 61.513C265.671 61.513 265.406 61.1777 265.411 60.8449L265.499 55.8353C265.501 55.7241 265.534 55.6023 265.593 55.5087C265.615 55.4752 265.636 55.4344 265.658 55.4004C265.654 55.405 265.65 55.4057 265.646 55.4101C265.411 55.6464 265.029 55.6462 264.793 55.4122C264.314 54.9378 261.927 52.4953 261.954 51.0105C261.96 50.6509 262.093 50.3409 262.339 50.1147C262.618 49.8585 262.975 49.7531 263.346 49.8175C264.093 49.9488 264.85 50.8195 265.417 51.6501C265.667 50.7249 266.096 49.6793 266.806 49.2433C267.208 48.9963 267.661 48.9543 268.115 49.1215C268.487 49.2585 268.753 49.5356 268.884 49.9222C269.411 51.4839 267.33 54.9931 266.702 55.9979L266.617 60.8661C266.611 61.1956 266.343 61.513 266.015 61.513ZM263.159 51.0076C263.033 51.4393 264.227 53.1523 265.641 54.5536C265.816 54.7263 265.862 54.9786 265.782 55.194C266.935 53.3146 267.975 51.0016 267.741 50.3079C267.726 50.263 267.719 50.2606 267.698 50.2527C267.576 50.2078 267.508 50.2268 267.437 50.2705C266.874 50.6164 266.429 52.3329 266.307 53.3838C266.276 53.647 266.077 53.8592 265.817 53.907C265.556 53.9545 265.295 53.8266 265.173 53.5917C264.505 52.3083 263.545 51.0804 263.159 51.0076Z" fill="#161616"/>
<path d="M253.373 57.7744C253.04 57.7744 252.77 57.5045 252.77 57.1714V54.7595C252.77 54.4264 253.04 54.1565 253.373 54.1565C253.706 54.1565 253.976 54.4264 253.976 54.7595V57.1714C253.976 57.5045 253.706 57.7744 253.373 57.7744Z" fill="#161616"/>
<path d="M268.372 63.322C268.307 63.322 268.241 63.3114 268.176 63.2889C267.861 63.1806 267.694 62.8377 267.802 62.5227L268.721 59.8488C268.83 59.5336 269.172 59.3662 269.487 59.4745C269.802 59.5828 269.97 59.9257 269.862 60.2407L268.943 62.9146C268.857 63.165 268.623 63.322 268.372 63.322Z" fill="#161616"/>
<path d="M263.141 73.5727C262.91 73.5727 262.689 73.4386 262.59 73.2134L261.263 70.2139C261.128 69.9093 261.266 69.5535 261.571 69.4187C261.874 69.2839 262.231 69.4216 262.366 69.7262L263.692 72.7257C263.827 73.0303 263.689 73.3861 263.385 73.5209C263.306 73.5561 263.223 73.5727 263.141 73.5727Z" fill="#161616"/>
<path d="M265.191 72.9699C264.939 72.9699 264.703 72.81 264.619 72.5575L263.895 70.3867C263.79 70.0705 263.961 69.729 264.277 69.6238C264.593 69.5189 264.934 69.6894 265.04 70.0052L265.763 72.1759C265.869 72.4921 265.698 72.8336 265.382 72.9388C265.318 72.9598 265.254 72.9699 265.191 72.9699Z" fill="#161616"/>
<path d="M225.515 65.3948C225.281 65.3948 225.058 65.2578 224.96 65.0287L224.073 62.9559C223.942 62.6496 224.084 62.2955 224.391 62.1643C224.697 62.034 225.051 62.1754 225.182 62.4814L226.069 64.5543C226.2 64.8606 226.058 65.2146 225.752 65.3459C225.675 65.3789 225.594 65.3948 225.515 65.3948Z" fill="#161616"/>
<path d="M246.498 66.5111C246.39 66.5111 246.281 66.4821 246.182 66.4211L244.373 65.3046C244.089 65.1298 244.002 64.7583 244.177 64.4749C244.351 64.1915 244.724 64.1035 245.007 64.2788L246.815 65.3953C247.099 65.5702 247.187 65.9416 247.012 66.225C246.898 66.4095 246.7 66.5111 246.498 66.5111Z" fill="#161616"/>
<path d="M277.974 61.1511C277.641 61.1511 277.371 60.8812 277.371 60.5481V57.895C277.371 57.5619 277.641 57.292 277.974 57.292C278.307 57.292 278.577 57.5619 278.577 57.895V60.5481C278.577 60.8812 278.307 61.1511 277.974 61.1511Z" fill="#161616"/>
<path d="M279.784 61.1511C279.748 61.1511 279.712 61.148 279.675 61.1415C279.348 61.0819 279.13 60.7679 279.19 60.4403L279.672 57.7872C279.732 57.4597 280.046 57.2426 280.373 57.3017C280.701 57.3613 280.919 57.6753 280.859 58.0028L280.377 60.656C280.324 60.9471 280.07 61.1511 279.784 61.1511Z" fill="#161616"/>
<path d="M261.092 42.097C261.073 42.097 261.055 42.0963 261.036 42.0944C260.705 42.0642 260.46 41.7709 260.491 41.4393L260.732 38.7862C260.762 38.4545 261.057 38.2083 261.387 38.2404C261.718 38.2705 261.963 38.5638 261.933 38.8954L261.691 41.5486C261.663 41.8616 261.4 42.097 261.092 42.097Z" fill="#161616"/>
<path d="M43.3026 138.756L114.711 119.419C114.711 119.419 127.015 121.619 124.177 143.067L52.7164 168.559" fill="#161616"/>
<path d="M52.7163 169.162C52.4686 169.162 52.2363 169.008 52.1485 168.761C52.0366 168.447 52.2001 168.103 52.5139 167.991L123.626 142.623C124.372 136.663 124.316 128.657 120.047 123.588C117.795 120.914 115.3 120.178 114.727 120.039L43.46 139.338C43.1385 139.426 42.8076 139.235 42.7205 138.914C42.6335 138.592 42.8235 138.261 43.145 138.174L114.554 118.837C114.639 118.813 114.73 118.809 114.817 118.825C114.952 118.849 118.14 119.452 120.97 122.811C125.609 128.321 125.6 136.91 124.774 143.146C124.745 143.37 124.592 143.559 124.379 143.635L52.9189 169.127C52.8521 169.15 52.7836 169.162 52.7163 169.162Z" fill="#161616"/>
<path d="M45.4438 170.331C54.1629 170.331 61.2311 163.263 61.2311 154.544C61.2311 145.825 54.1629 138.756 45.4438 138.756C36.7248 138.756 29.6566 145.825 29.6566 154.544C29.6566 163.263 36.7248 170.331 45.4438 170.331Z" fill="#DEE5DC"/>
<path d="M45.4438 170.934C36.4061 170.934 29.0536 163.581 29.0536 154.544C29.0536 145.506 36.4061 138.153 45.4438 138.153C54.4816 138.153 61.8341 145.506 61.8341 154.544C61.8341 163.581 54.4816 170.934 45.4438 170.934ZM45.4438 139.359C37.0713 139.359 30.2596 146.171 30.2596 154.544C30.2596 162.916 37.0713 169.728 45.4438 169.728C53.8163 169.728 60.6281 162.916 60.6281 154.544C60.6281 146.171 53.8163 139.359 45.4438 139.359Z" fill="#161616"/>
<path d="M45.4437 159.037C47.9251 159.037 49.9367 157.025 49.9367 154.544C49.9367 152.062 47.9251 150.051 45.4437 150.051C42.9624 150.051 40.9508 152.062 40.9508 154.544C40.9508 157.025 42.9624 159.037 45.4437 159.037Z" fill="#EAEFE8"/>
<path d="M45.4438 159.639C42.6339 159.639 40.3479 157.353 40.3479 154.544C40.3479 151.734 42.6339 149.448 45.4438 149.448C48.2537 149.448 50.5397 151.734 50.5397 154.544C50.5397 157.353 48.2537 159.639 45.4438 159.639ZM45.4438 150.654C43.2989 150.654 41.5539 152.399 41.5539 154.544C41.5539 156.688 43.2989 158.433 45.4438 158.433C47.5887 158.433 49.3338 156.688 49.3338 154.544C49.3338 152.399 47.5887 150.654 45.4438 150.654Z" fill="#161616"/>
<path d="M74.0048 148.639L145.413 129.302C145.413 129.302 157.717 131.502 154.879 152.95L83.4187 178.442" fill="#161616"/>
<path d="M83.4188 179.045C83.171 179.045 82.9388 178.891 82.851 178.645C82.7391 178.331 82.9026 177.986 83.2164 177.874L154.328 152.507C155.074 146.547 155.018 138.54 150.75 133.472C148.497 130.797 146.002 130.062 145.429 129.923L74.1625 149.222C73.8412 149.309 73.5098 149.119 73.423 148.797C73.3362 148.476 73.526 148.145 73.8475 148.058L145.256 128.72C145.342 128.697 145.432 128.693 145.52 128.709C145.654 128.733 148.843 129.336 151.672 132.695C156.312 138.204 156.302 146.794 155.477 153.03C155.447 153.254 155.295 153.443 155.082 153.518L83.6214 179.01C83.5543 179.034 83.486 179.045 83.4188 179.045Z" fill="#161616"/>
<path d="M76.146 180.214C84.8651 180.214 91.9333 173.146 91.9333 164.427C91.9333 155.708 84.8651 148.64 76.146 148.64C67.427 148.64 60.3588 155.708 60.3588 164.427C60.3588 173.146 67.427 180.214 76.146 180.214Z" fill="#DEE5DC"/>
<path d="M76.146 180.817C67.1083 180.817 59.7558 173.465 59.7558 164.427C59.7558 155.389 67.1083 148.037 76.146 148.037C85.1838 148.037 92.5363 155.389 92.5363 164.427C92.5363 173.465 85.1838 180.817 76.146 180.817ZM76.146 149.243C67.7735 149.243 60.9618 156.054 60.9618 164.427C60.9618 172.8 67.7735 179.611 76.146 179.611C84.5186 179.611 91.3303 172.8 91.3303 164.427C91.3303 156.054 84.5186 149.243 76.146 149.243Z" fill="#161616"/>
<path d="M76.1461 168.92C78.6274 168.92 80.639 166.908 80.639 164.427C80.639 161.946 78.6274 159.934 76.1461 159.934C73.6647 159.934 71.6531 161.946 71.6531 164.427C71.6531 166.908 73.6647 168.92 76.1461 168.92Z" fill="#EAEFE8"/>
<path d="M76.1461 169.523C73.3362 169.523 71.0502 167.237 71.0502 164.427C71.0502 161.617 73.3362 159.331 76.1461 159.331C78.956 159.331 81.242 161.617 81.242 164.427C81.242 167.237 78.956 169.523 76.1461 169.523ZM76.1461 160.537C74.0012 160.537 72.2561 162.282 72.2561 164.427C72.2561 166.572 74.0012 168.317 76.1461 168.317C78.291 168.317 80.036 166.572 80.036 164.427C80.036 162.282 78.291 160.537 76.1461 160.537Z" fill="#161616"/>
<path d="M105.338 152.635L176.747 133.298C176.747 133.298 189.051 135.498 186.212 156.946L114.752 182.438" fill="#161616"/>
<path d="M114.752 183.041C114.504 183.041 114.272 182.887 114.184 182.64C114.072 182.326 114.236 181.982 114.549 181.87L185.661 156.502C186.711 148.128 185.495 141.574 182.138 137.534C179.887 134.823 177.341 134.063 176.761 133.919L105.496 153.218C105.174 153.305 104.843 153.115 104.756 152.793C104.669 152.472 104.859 152.141 105.181 152.054L176.59 132.716C176.675 132.693 176.765 132.688 176.853 132.704C176.988 132.728 180.177 133.331 183.006 136.691C187.646 142.2 187.636 150.79 186.81 157.025C186.781 157.25 186.628 157.438 186.415 157.514L114.954 183.006C114.887 183.029 114.819 183.041 114.752 183.041Z" fill="#161616"/>
<path d="M107.479 184.21C116.198 184.21 123.266 177.142 123.266 168.423C123.266 159.704 116.198 152.635 107.479 152.635C98.7601 152.635 91.6919 159.704 91.6919 168.423C91.6919 177.142 98.7601 184.21 107.479 184.21Z" fill="#DEE5DC"/>
<path d="M107.479 184.813C98.4414 184.813 91.0889 177.46 91.0889 168.423C91.0889 159.385 98.4414 152.032 107.479 152.032C116.517 152.032 123.87 159.385 123.87 168.423C123.87 177.46 116.517 184.813 107.479 184.813ZM107.479 153.238C99.1066 153.238 92.2948 160.05 92.2948 168.423C92.2948 176.795 99.1066 183.607 107.479 183.607C115.852 183.607 122.664 176.795 122.664 168.423C122.664 160.05 115.852 153.238 107.479 153.238Z" fill="#161616"/>
<path d="M107.479 172.915C109.961 172.915 111.972 170.904 111.972 168.422C111.972 165.941 109.961 163.929 107.479 163.929C104.998 163.929 102.986 165.941 102.986 168.422C102.986 170.904 104.998 172.915 107.479 172.915Z" fill="#EAEFE8"/>
<path d="M107.479 173.519C104.669 173.519 102.383 171.233 102.383 168.423C102.383 165.613 104.669 163.327 107.479 163.327C110.289 163.327 112.575 165.613 112.575 168.423C112.575 171.233 110.289 173.519 107.479 173.519ZM107.479 164.533C105.334 164.533 103.589 166.278 103.589 168.423C103.589 170.568 105.334 172.313 107.479 172.313C109.624 172.313 111.369 170.568 111.369 168.423C111.369 166.278 109.624 164.533 107.479 164.533Z" fill="#161616"/>
<path d="M68.5537 114.224L141.355 101.067C141.355 101.067 153.425 104.312 148.762 125.439L75.3831 144.723" fill="#161616"/>
<path d="M75.3829 145.326C75.1154 145.326 74.8711 145.147 74.7999 144.876C74.7153 144.554 74.9077 144.224 75.23 144.14L148.252 124.95C150.014 116.696 149.363 110.062 146.364 105.749C144.353 102.856 141.882 101.88 141.315 101.688L68.6611 114.818C68.334 114.878 68.0198 114.66 67.9604 114.332C67.9011 114.004 68.1189 113.69 68.4464 113.631L141.247 100.474C141.336 100.458 141.425 100.462 141.511 100.485C141.643 100.52 144.769 101.394 147.3 104.983C151.452 110.869 150.707 119.427 149.351 125.569C149.302 125.79 149.134 125.965 148.915 126.022L75.5365 145.306C75.4851 145.32 75.4335 145.326 75.3829 145.326Z" fill="#161616"/>
<path d="M69.3366 145.924C78.0556 145.924 85.1238 138.856 85.1238 130.137C85.1238 121.418 78.0556 114.35 69.3366 114.35C60.6175 114.35 53.5493 121.418 53.5493 130.137C53.5493 138.856 60.6175 145.924 69.3366 145.924Z" fill="#DEE5DC"/>
<path d="M69.3545 146.528C68.8837 146.528 68.4059 146.508 67.9344 146.467C58.9299 145.694 52.2335 137.739 53.0065 128.735C53.3598 124.619 55.2329 120.821 58.2809 118.037C61.311 115.269 65.2308 113.745 69.3188 113.745C69.7896 113.745 70.2674 113.766 70.739 113.807C79.7434 114.58 86.4401 122.535 85.6668 131.539C85.3135 135.654 83.4404 139.453 80.3922 142.237C77.3623 145.004 73.4422 146.528 69.3545 146.528ZM69.3188 114.952C65.5328 114.952 61.9017 116.364 59.0942 118.928C56.2705 121.506 54.5354 125.026 54.2079 128.838C53.4915 137.18 59.6955 144.549 68.0374 145.266C68.4746 145.303 68.9177 145.322 69.3543 145.322C73.1403 145.322 76.7714 143.91 79.5789 141.347C82.4025 138.768 84.1377 135.249 84.4652 131.436C85.1816 123.094 78.9778 115.725 70.6357 115.009C70.1984 114.971 69.7554 114.952 69.3188 114.952Z" fill="#161616"/>
<path d="M69.3367 134.63C71.8181 134.63 73.8296 132.619 73.8296 130.137C73.8296 127.656 71.8181 125.644 69.3367 125.644C66.8553 125.644 64.8438 127.656 64.8438 130.137C64.8438 132.619 66.8553 134.63 69.3367 134.63Z" fill="#EAEFE8"/>
<path d="M69.342 135.233C69.1956 135.233 69.047 135.227 68.9006 135.214C67.5444 135.098 66.3148 134.46 65.4383 133.419C64.5618 132.378 64.1428 131.057 64.2593 129.701C64.4837 127.088 66.7115 125.041 69.3314 125.041C69.4778 125.041 69.6264 125.047 69.7728 125.06C71.129 125.176 72.3583 125.814 73.2351 126.855C74.1118 127.896 74.5305 129.217 74.414 130.573C74.1895 133.186 71.9616 135.233 69.342 135.233ZM69.3314 126.247C67.3324 126.247 65.6322 127.81 65.461 129.804C65.3722 130.84 65.6918 131.848 66.3609 132.642C67.0302 133.437 67.9689 133.924 69.0038 134.013C69.1162 134.022 69.2301 134.027 69.342 134.027C71.341 134.027 73.0409 132.465 73.2124 130.47C73.3012 129.435 72.9816 128.427 72.3125 127.632C71.6432 126.837 70.7047 126.351 69.6695 126.262C69.5571 126.252 69.4433 126.247 69.3314 126.247Z" fill="#161616"/>
<path d="M90.8679 92.7414L164.37 84.3414C164.37 84.3414 176.204 88.3636 170.179 109.142L95.7018 123.619" fill="#161616"/>
<path d="M95.7008 124.222C95.4181 124.222 95.1656 124.022 95.1096 123.734C95.0462 123.408 95.2597 123.091 95.5865 123.027L169.701 108.621C171.995 100.5 171.777 93.8375 169.065 89.3385C167.246 86.3212 164.843 85.1869 164.291 84.9577L90.9363 93.3406C90.6061 93.3816 90.3065 93.1409 90.2687 92.8102C90.2308 92.4793 90.4684 92.1805 90.7993 92.1426L164.302 83.7428C164.39 83.7327 164.48 83.7421 164.564 83.7708C164.693 83.815 167.755 84.8897 170.048 88.6354C173.809 94.7788 172.51 103.27 170.758 109.311C170.695 109.528 170.516 109.692 170.293 109.735L95.8163 124.211C95.7777 124.219 95.7389 124.222 95.7008 124.222Z" fill="#161616"/>
<path d="M90.6153 124.459C99.3343 124.459 106.403 117.391 106.403 108.672C106.403 99.9526 99.3343 92.8844 90.6153 92.8844C81.8962 92.8844 74.828 99.9526 74.828 108.672C74.828 117.391 81.8962 124.459 90.6153 124.459Z" fill="#DEE5DC"/>
<path d="M90.6347 125.064C89.8106 125.064 88.976 125.001 88.155 124.876C83.8268 124.219 80.0133 121.916 77.4171 118.391C74.8209 114.865 73.7534 110.54 74.4107 106.212C75.0028 102.312 76.9801 98.7574 79.9783 96.2017C82.9462 93.6723 86.717 92.2792 90.5959 92.2792C91.42 92.2792 92.2543 92.3424 93.0753 92.4668C102.011 93.8235 108.176 102.197 106.819 111.132C106.228 115.031 104.25 118.586 101.252 121.141C98.2841 123.671 94.5136 125.064 90.6347 125.064ZM90.5959 93.4854C87.0033 93.4854 83.5106 94.7762 80.7605 97.1197C77.983 99.487 76.1513 102.78 75.6029 106.393C74.9941 110.403 75.9832 114.41 78.3882 117.676C80.7931 120.942 84.3261 123.075 88.3359 123.684C89.0974 123.799 89.8706 123.858 90.6347 123.858C94.227 123.858 97.72 122.567 100.47 120.224C103.247 117.857 105.079 114.563 105.627 110.951C106.884 102.673 101.172 94.9164 92.8942 93.6595C92.133 93.5437 91.3597 93.4854 90.5959 93.4854Z" fill="#161616"/>
<path d="M90.6152 113.165C93.0968 113.165 95.1084 111.153 95.1084 108.672C95.1084 106.19 93.0968 104.178 90.6152 104.178C88.1337 104.178 86.1221 106.19 86.1221 108.672C86.1221 111.153 88.1337 113.165 90.6152 113.165Z" fill="#EAEFE8"/>
<path d="M90.6215 113.768C90.3651 113.768 90.1056 113.748 89.8501 113.709C87.0723 113.288 85.1553 110.684 85.5769 107.906C85.9522 105.437 88.116 103.575 90.6101 103.575C90.8663 103.575 91.1253 103.595 91.38 103.633C94.1581 104.055 96.0751 106.658 95.6535 109.437C95.2787 111.906 93.1152 113.768 90.6215 113.768ZM90.6101 104.781C88.7069 104.781 87.0557 106.203 86.7691 108.088C86.4474 110.208 87.9107 112.195 90.031 112.517C90.2269 112.547 90.4251 112.562 90.6212 112.562C92.5242 112.562 94.175 111.141 94.461 109.256C94.7828 107.135 93.3195 105.148 91.1989 104.826C91.004 104.796 90.8057 104.781 90.6101 104.781Z" fill="#161616"/>
<path d="M99.0456 122.005L171.847 108.849C171.847 108.849 183.918 112.093 179.254 133.22L105.875 152.504" fill="#161616"/>
<path d="M105.875 153.107C105.608 153.107 105.363 152.928 105.292 152.657C105.207 152.335 105.4 152.005 105.722 151.921L178.743 132.731C179.997 126.856 180.626 118.874 176.807 113.459C174.791 110.602 172.368 109.656 171.809 109.468L99.1527 122.598C98.8257 122.659 98.5114 122.44 98.4521 122.112C98.3927 121.785 98.6105 121.471 98.9383 121.412L171.74 108.255C171.827 108.24 171.917 108.243 172.003 108.266C172.135 108.301 175.261 109.175 177.792 112.764C181.944 118.65 181.199 127.207 179.843 133.35C179.794 133.571 179.626 133.746 179.408 133.803L106.028 153.087C105.977 153.101 105.926 153.107 105.875 153.107Z" fill="#161616"/>
<path d="M99.8285 153.705C108.548 153.705 115.616 146.637 115.616 137.918C115.616 129.199 108.548 122.13 99.8285 122.13C91.1095 122.13 84.0413 129.199 84.0413 137.918C84.0413 146.637 91.1095 153.705 99.8285 153.705Z" fill="#DEE5DC"/>
<path d="M99.8466 154.309C99.3755 154.309 98.8977 154.289 98.4259 154.248C94.064 153.874 90.1091 151.823 87.2896 148.474C84.4701 145.125 83.1237 140.878 83.4983 136.516C83.8516 132.401 85.7247 128.602 88.7727 125.818C91.8026 123.051 95.7227 121.527 99.8104 121.527C100.281 121.527 100.759 121.547 101.231 121.588C105.593 121.963 109.548 124.013 112.367 127.363C115.186 130.712 116.533 134.959 116.158 139.32C115.805 143.436 113.932 147.234 110.884 150.018C107.854 152.786 103.934 154.309 99.8466 154.309ZM99.8106 122.733C96.0244 122.733 92.3935 124.145 89.586 126.709C86.7624 129.287 85.0272 132.807 84.6999 136.619C84.3528 140.66 85.6003 144.594 88.2122 147.697C90.824 150.8 94.4882 152.7 98.5292 153.047C98.9667 153.084 99.4098 153.103 99.8466 153.103C103.633 153.103 107.264 151.691 110.071 149.128C112.894 146.549 114.629 143.03 114.957 139.217C115.304 135.176 114.057 131.242 111.445 128.139C108.833 125.036 105.169 123.137 101.128 122.79C100.69 122.752 100.247 122.733 99.8106 122.733Z" fill="#161616"/>
<path d="M99.8286 142.411C102.31 142.411 104.321 140.399 104.321 137.918C104.321 135.436 102.31 133.425 99.8286 133.425C97.3472 133.425 95.3356 135.436 95.3356 137.918C95.3356 140.399 97.3472 142.411 99.8286 142.411Z" fill="#EAEFE8"/>
<path d="M99.8339 143.014C99.6875 143.014 99.5389 143.008 99.3925 142.995C98.0363 142.879 96.8067 142.241 95.9302 141.2C95.0537 140.159 94.6347 138.838 94.7512 137.482C94.9758 134.869 97.2034 132.822 99.8233 132.822C99.9697 132.822 100.118 132.828 100.265 132.841C103.064 133.082 105.146 135.555 104.906 138.354C104.682 140.967 102.454 143.014 99.8339 143.014ZM99.8233 134.028C97.8243 134.028 96.1241 135.591 95.9528 137.585C95.8641 138.62 96.1837 139.628 96.8527 140.423C97.522 141.218 98.4608 141.705 99.4957 141.794C99.6081 141.803 99.722 141.808 99.8339 141.808C101.833 141.808 103.533 140.246 103.704 138.251C103.888 136.114 102.298 134.226 100.161 134.043C100.049 134.033 99.9352 134.028 99.8233 134.028Z" fill="#161616"/>
<path d="M119.198 155.509C118.987 155.509 118.793 155.369 118.733 155.156C118.662 154.9 118.811 154.633 119.068 154.561L180.196 137.453C180.453 137.381 180.718 137.531 180.79 137.788C180.862 138.044 180.712 138.31 180.456 138.382L119.328 155.491C119.285 155.503 119.241 155.509 119.198 155.509Z" fill="#AFB7AC"/>
<path d="M122.333 159.85C122.122 159.85 121.928 159.711 121.869 159.497C121.797 159.241 121.947 158.975 122.203 158.903L183.331 141.795C183.589 141.723 183.854 141.873 183.926 142.129C183.998 142.386 183.848 142.652 183.591 142.724L122.463 159.832C122.42 159.844 122.376 159.85 122.333 159.85Z" fill="#AFB7AC"/>
<path d="M125.469 165.88C125.261 165.88 125.069 165.744 125.007 165.534C124.931 165.279 125.076 165.011 125.331 164.935L184.53 147.344C184.784 147.268 185.054 147.414 185.13 147.669C185.205 147.925 185.06 148.193 184.804 148.269L125.606 165.86C125.561 165.873 125.514 165.88 125.469 165.88Z" fill="#AFB7AC"/>
<path d="M124.745 172.874C124.543 172.874 124.355 172.746 124.288 172.544C124.204 172.291 124.341 172.018 124.593 171.934L184.756 151.932C185.009 151.847 185.282 151.985 185.366 152.237C185.45 152.49 185.313 152.763 185.061 152.847L124.898 172.85C124.847 172.866 124.796 172.874 124.745 172.874Z" fill="#AFB7AC"/>
<path d="M113.209 124.571C112.982 124.571 112.781 124.411 112.736 124.18C112.685 123.918 112.856 123.665 113.118 123.614L173.078 111.988C173.34 111.938 173.593 112.108 173.644 112.37C173.694 112.631 173.523 112.885 173.262 112.935L113.302 124.562C113.27 124.568 113.239 124.571 113.209 124.571Z" fill="#AFB7AC"/>
<path d="M115.876 128.98C115.65 128.98 115.448 128.82 115.403 128.589C115.353 128.327 115.523 128.074 115.785 128.024L175.745 116.397C176.007 116.347 176.26 116.517 176.311 116.779C176.362 117.04 176.191 117.293 175.929 117.344L115.969 128.971C115.938 128.977 115.907 128.98 115.876 128.98Z" fill="#AFB7AC"/>
<path d="M118.412 135.007C118.188 135.007 117.988 134.851 117.94 134.624C117.885 134.363 118.052 134.108 118.313 134.053L176.46 121.813C176.72 121.758 176.977 121.925 177.031 122.185C177.086 122.446 176.919 122.702 176.659 122.757L118.511 134.997C118.478 135.004 118.445 135.007 118.412 135.007Z" fill="#AFB7AC"/>
<path d="M117.171 141.658C116.954 141.658 116.757 141.511 116.703 141.291C116.64 141.032 116.798 140.771 117.057 140.707L176.318 126.23C176.576 126.167 176.838 126.326 176.901 126.584C176.964 126.843 176.806 127.104 176.547 127.167L117.286 141.645C117.247 141.654 117.209 141.658 117.171 141.658Z" fill="#AFB7AC"/>
<path d="M108.141 97.4222C107.9 97.4222 107.692 97.2421 107.663 96.9968C107.631 96.7322 107.82 96.4922 108.085 96.4606L164.14 89.7832C164.403 89.7538 164.644 89.9405 164.676 90.2053C164.708 90.4699 164.519 90.7099 164.254 90.7415L108.199 97.4189C108.18 97.421 108.16 97.4222 108.141 97.4222Z" fill="#AFB7AC"/>
<path d="M128.964 100.028C128.726 100.028 128.519 99.8526 128.486 99.6107C128.451 99.3466 128.636 99.1035 128.9 99.068L166.294 94.0283C166.558 93.9945 166.801 94.1778 166.837 94.4419C166.872 94.706 166.687 94.9492 166.423 94.9846L129.029 100.024C129.007 100.027 128.985 100.028 128.964 100.028Z" fill="#AFB7AC"/>
<path d="M112.234 107.393C111.996 107.393 111.789 107.218 111.757 106.976C111.721 106.712 111.906 106.469 112.17 106.433L166.596 99.0682C166.859 99.0321 167.103 99.2173 167.138 99.4814C167.174 99.7455 166.989 99.9886 166.725 100.024L112.299 107.389C112.277 107.392 112.255 107.393 112.234 107.393Z" fill="#AFB7AC"/>
<path d="M110.642 113.441C110.411 113.441 110.206 113.274 110.167 113.039C110.123 112.776 110.3 112.527 110.563 112.483L166.166 103.13C166.427 103.086 166.677 103.263 166.721 103.526C166.765 103.789 166.588 104.037 166.325 104.082L110.722 113.434C110.695 113.439 110.669 113.441 110.642 113.441Z" fill="#AFB7AC"/>
<path d="M161.018 83.1386C160.393 83.1386 159.721 83.0354 159.02 82.8315C158.978 82.8192 158.937 82.8026 158.899 82.7814L148.138 76.8876C147.779 76.705 138.979 72.022 138.901 54.8479C138.9 54.6195 139.028 54.4101 139.232 54.3069C139.436 54.2039 139.68 54.2249 139.864 54.3614L153.881 64.7903V43.9101C153.881 43.66 154.035 43.4356 154.269 43.3466C154.503 43.2576 154.767 43.322 154.934 43.509C156.707 45.4981 161.939 50.6606 164.813 50.6606C165.257 50.6606 165.609 50.5327 165.889 50.2698C166.065 50.1049 166.321 50.0602 166.542 50.156C166.762 50.2515 166.905 50.4688 166.905 50.7093V74.8225C166.854 77.706 165.558 83.1386 161.018 83.1386ZM159.419 81.6914C159.988 81.8516 160.525 81.9326 161.018 81.9326C165.521 81.9326 165.699 74.8828 165.699 74.8119V51.7401C165.458 51.8243 165.129 51.8665 164.813 51.8665C161.723 51.8665 157.14 47.5436 155.087 45.4332V65.9903C155.087 66.2182 154.958 66.4268 154.755 66.5291C154.551 66.6311 154.307 66.6099 154.124 66.4739L140.129 56.0613C140.275 60.6865 141.192 66.7561 144.442 71.5638C146.552 74.686 148.681 75.8109 148.702 75.822L159.419 81.6914Z" fill="#161616"/>
<path d="M156.655 46.4382C156.321 46.4382 156.052 46.1683 156.052 45.8352V36.9024C155.514 35.812 152.979 30.3661 154.889 28.246C156.782 26.1462 159.576 25.4757 159.694 25.448C159.897 25.4007 160.11 25.4617 160.257 25.6091C160.404 25.7564 160.465 25.9697 160.418 26.1727C160.402 26.2396 160.092 27.5333 159.36 28.6481C160.091 29.0311 160.988 29.9202 161.201 31.9828C161.235 32.314 160.995 32.6104 160.663 32.6444C160.331 32.6796 160.036 32.4382 160.002 32.1068C159.744 29.6179 158.348 29.5639 158.334 29.5637C158.093 29.5591 157.878 29.412 157.786 29.1889C157.695 28.9658 157.746 28.7101 157.915 28.5381C158.325 28.1201 158.646 27.5256 158.873 26.9918C157.987 27.3507 156.735 27.9993 155.785 29.0536C154.686 30.273 156.065 34.2607 157.193 36.4876C157.235 36.5722 157.258 36.6653 157.258 36.7601V45.8352C157.258 46.1683 156.988 46.4382 156.655 46.4382Z" fill="#161616"/>
<path d="M164.131 49.5738C163.798 49.5738 163.529 49.304 163.529 48.9709V39.9143C163.529 39.7571 163.59 39.6061 163.7 39.4934L167.485 35.6102C167.717 35.3717 168.099 35.3671 168.338 35.5994C168.576 35.8319 168.581 36.2137 168.348 36.452L164.734 40.1596V48.9709C164.734 49.304 164.465 49.5738 164.131 49.5738Z" fill="#161616"/>
<path d="M179.889 38.9046C176.631 38.9046 172.616 36.8566 172.262 36.6723L160.292 31.3176C159.989 31.1816 159.852 30.8248 159.988 30.5209C160.124 30.217 160.481 30.0808 160.785 30.2166L172.771 35.5788C172.783 35.5838 172.794 35.5894 172.805 35.5952C172.86 35.6236 178.324 38.4576 181.249 37.5126C181.885 37.3071 182.329 36.9386 182.605 36.3853C182.741 36.1132 182.745 35.7951 182.617 35.4128C181.516 32.1398 172.034 26.8616 168.473 25.1042C162.696 22.0237 153.899 18.505 152.377 20.2987C151.952 20.799 151.783 21.3404 151.859 21.9543C152.12 24.0507 155.04 26.1539 155.069 26.1749C155.34 26.3681 155.404 26.7446 155.211 27.0157C155.017 27.287 154.642 27.3502 154.37 27.1578C154.232 27.0598 150.991 24.7287 150.662 22.1057C150.543 21.1506 150.81 20.2802 151.457 19.518C152.706 18.047 155.99 18.3873 161.496 20.5602C165.373 22.0905 168.987 24.0121 169.023 24.0312C169.547 24.2895 182.275 30.614 183.759 35.0284C183.992 35.7208 183.966 36.3588 183.684 36.9246C183.26 37.771 182.566 38.3549 181.618 38.6605C181.089 38.832 180.502 38.9043 179.889 38.9046Z" fill="#161616"/>
<path d="M183.314 35.7865C183.086 35.7865 182.868 35.6562 182.766 35.4355C179.474 28.2892 173.608 23.4861 165.332 21.1593C159.118 19.4124 153.805 19.7985 153.751 19.8024C153.415 19.8277 153.129 19.58 153.103 19.2481C153.078 18.9162 153.325 18.6261 153.657 18.6C153.881 18.5827 159.205 18.1919 165.62 19.9874C171.568 21.6526 179.561 25.5968 183.861 34.9309C184 35.2334 183.868 35.5916 183.566 35.7307C183.484 35.7686 183.398 35.7865 183.314 35.7865Z" fill="#161616"/>
<path d="M179.513 29.7124C179.397 29.7124 179.279 29.6788 179.176 29.6089C178.9 29.4225 178.827 29.0474 179.014 28.7715C179.032 28.744 180.913 25.8928 180.192 22.7641C179.728 20.7504 178.289 19.03 175.916 17.6503C172.419 15.6176 169.152 15.3479 166.206 16.8488C164.004 17.9709 162.821 19.6896 162.81 19.707C162.623 19.9827 162.248 20.0543 161.972 19.8676C161.696 19.6807 161.625 19.3056 161.812 19.03C161.865 18.9513 167.256 11.2216 176.522 16.6079C179.2 18.1643 180.831 20.1491 181.37 22.506C182.203 26.1512 180.103 29.3144 180.013 29.4471C179.896 29.6198 179.706 29.7124 179.513 29.7124Z" fill="#161616"/>
<path d="M180.643 27.1218C180.442 27.1218 180.246 27.0217 180.131 26.8389C175.699 19.7616 163.949 18.2872 163.831 18.2729C163.5 18.2336 163.264 17.9338 163.303 17.6032C163.343 17.2727 163.643 17.0368 163.973 17.0754C164.099 17.0904 167.107 17.4563 170.734 18.7488C175.58 20.4755 179.183 23.0517 181.154 26.1985C181.33 26.4807 181.245 26.8529 180.963 27.0297C180.863 27.0921 180.752 27.1218 180.643 27.1218Z" fill="#161616"/>
<path d="M166.217 51.3124C166.059 51.3124 165.902 51.2512 165.784 51.1294C165.552 50.8906 165.558 50.5088 165.797 50.2768C166.19 49.8945 166.361 49.4888 166.319 49.0366C166.199 47.7486 164.447 46.3253 163.782 45.8856C163.504 45.7018 163.427 45.328 163.611 45.0501C163.794 44.7725 164.168 44.6961 164.446 44.8786C164.739 45.0723 167.322 46.8306 167.52 48.9222C167.597 49.7389 167.291 50.5064 166.637 51.1422C166.52 51.256 166.368 51.3124 166.217 51.3124Z" fill="#161616"/>
<path d="M130.014 42.4713C129.226 42.4713 128.575 42.0575 128.489 42.001C128.212 41.817 128.136 41.4429 128.32 41.1653C128.504 40.8884 128.876 40.8124 129.153 40.9943C129.316 41.0989 129.826 41.3464 130.238 41.2379C130.472 41.1761 130.663 40.9989 130.822 40.6962C130.976 40.4009 131.34 40.2871 131.635 40.441C131.931 40.5953 132.045 40.9595 131.891 41.2548C131.49 42.0218 130.932 42.3047 130.534 42.4067C130.357 42.4525 130.183 42.4713 130.014 42.4713Z" fill="#161616"/>
<path d="M138.846 40.999C138.059 40.999 137.407 40.5851 137.322 40.5287C137.044 40.3447 136.968 39.9706 137.152 39.693C137.336 39.4161 137.708 39.3401 137.986 39.522C138.148 39.6271 138.658 39.8744 139.07 39.7656C139.305 39.7038 139.496 39.5266 139.654 39.2239C139.808 38.9286 140.172 38.8146 140.468 38.9687C140.763 39.123 140.877 39.4872 140.723 39.7825C140.322 40.5495 139.764 40.8324 139.366 40.9346C139.189 40.9802 139.014 40.999 138.846 40.999Z" fill="#161616"/>
<path d="M134.052 52.7751C132.682 52.7751 131.182 52.6101 129.559 52.2804C126.696 51.6984 124.544 50.8132 124.453 50.7758C124.146 50.6482 124 50.2956 124.127 49.9878C124.255 49.6806 124.608 49.5339 124.915 49.6615C124.999 49.6962 133.359 53.1048 138.52 50.7119C142.567 48.8359 139.676 39.7507 138.221 36.408C138.088 36.1026 138.227 35.7474 138.533 35.6145C138.838 35.4808 139.193 35.621 139.326 35.9266C139.559 36.4613 144.961 49.0554 139.027 51.8062C137.635 52.4521 135.971 52.7751 134.052 52.7751Z" fill="#161616"/>
<path d="M121.95 53.7658C121.654 53.7658 121.395 53.5476 121.353 53.2456L120.377 46.1938C119.067 46.183 117.907 45.7271 117.2 44.9269C116.688 44.3468 116.155 43.2954 116.525 41.5808C116.75 40.5403 117.354 40.0584 117.822 39.8377C119.486 39.0521 121.952 40.2757 122.227 40.418C122.523 40.5707 122.639 40.9342 122.487 41.2301C122.335 41.5258 121.971 41.6416 121.675 41.4901C121.071 41.1802 119.293 40.4752 118.336 40.9286C118.127 41.0273 117.835 41.2286 117.704 41.835C117.492 42.8162 117.627 43.588 118.104 44.1283C118.66 44.7583 119.687 45.0723 120.846 44.9688C121.165 44.9379 121.453 45.168 121.497 45.4867L122.548 53.0799C122.594 53.4096 122.363 53.7142 122.034 53.7598C122.005 53.7639 121.978 53.7658 121.95 53.7658Z" fill="#161616"/>
<path d="M124.684 43.6645H125.736L124.684 36.2025L115.221 28.952C115.221 28.952 110.385 33.3888 112.908 40.441C115.432 47.4937 121.115 47.1281 121.115 47.1281C121.115 47.1281 122.249 45.6532 120.899 45.5683C119.52 45.4822 117.004 45.0487 117.114 41.7451C117.218 38.6277 123.212 40.2878 124.684 43.6645Z" fill="#161616"/>
<path d="M116.063 28.1383L125.736 36.1676C125.736 36.1676 136.145 36.0241 139.51 34.4469L140.666 37.3912C140.666 37.3912 145.608 29.6103 139.51 24.4582C133.412 19.3063 122.371 16.2569 116.063 28.1383Z" fill="#161616"/>
<path d="M109.544 104.81C109.396 104.81 109.252 104.755 109.14 104.654C109.001 104.53 108.929 104.348 108.942 104.162L111.738 65.9604C111.754 65.3885 112.213 54.2537 121.924 53.8219C122.007 53.8178 122.088 53.8318 122.161 53.8588C122.32 53.7997 122.502 53.8091 122.658 53.894L130.64 58.2164L136.485 53.1285C136.658 52.9785 136.899 52.9387 137.111 53.0257L139.151 53.8665C139.171 53.8747 139.191 53.8839 139.209 53.894C139.49 54.0467 146.093 57.7249 146.526 65.9587C146.943 73.879 146.531 97.5168 146.526 97.7544C146.521 98.0426 146.313 98.287 146.029 98.3376L109.649 104.8C109.614 104.806 109.579 104.81 109.544 104.81ZM122.011 55.0243C122 55.0255 121.989 55.0262 121.977 55.0267C118.315 55.1897 115.686 57.0553 114.164 60.5719C112.997 63.2697 112.944 65.972 112.943 65.999C112.943 66.0108 112.943 66.0229 112.942 66.0345L110.202 103.477L145.329 97.237C145.386 93.7793 145.703 73.263 145.321 66.0222C144.937 58.7203 139.088 55.2153 138.657 54.9676L136.996 54.2828L136.949 54.3234C137.081 54.4613 137.145 54.6593 137.104 54.8602L135.369 63.3772C135.326 63.5897 135.172 63.7624 134.966 63.83C134.76 63.8975 134.534 63.8493 134.373 63.7036L130.838 60.4969L128.187 64.534C128.071 64.7113 127.867 64.8114 127.658 64.8056C127.446 64.7967 127.254 64.6773 127.153 64.4908L122.011 55.0243ZM123.871 55.9222L127.731 63.0297L130.161 59.3288L123.871 55.9222ZM131.273 59.2639L134.399 62.0987L135.774 55.3463L131.273 59.2639Z" fill="#161616"/>
<path d="M124.455 100.345H119.632V54.7596H122.6L124.455 58.2965V100.345Z" fill="#946D42"/>
<path d="M131.832 86.641C131.51 86.641 131.243 86.3875 131.23 86.0631L130.118 59.6016C130.104 59.269 130.362 58.988 130.695 58.9738C131.024 58.9697 131.309 59.2184 131.323 59.5512L132.435 86.0127C132.449 86.3453 132.19 86.6263 131.858 86.6405C131.849 86.6408 131.84 86.641 131.832 86.641Z" fill="#161616"/>
<path d="M141.58 100.345H136.515V54.8453L137.613 53.5836L141.58 56.5276V100.345Z" fill="#946D42"/>
<path d="M109.501 104.263V117.091C109.501 117.091 111.11 125.712 119.07 123.609C127.029 121.506 136.529 117.511 136.529 117.511C136.529 117.511 142.146 114.987 144.459 109.52C146.773 104.053 145.959 97.7439 145.959 97.7439L109.501 104.263Z" fill="#946D42"/>
<path d="M113.012 61.9941L104.181 93.538C104.181 93.538 103.34 99.0056 107.441 100.267C111.541 101.529 113.013 100.687 113.644 100.267C114.275 99.8466 140.351 84.3196 140.351 84.3196L134.778 73.6659L116.378 82.7082" fill="#DEE5DC"/>
<path d="M111.156 101.537C110.174 101.537 108.912 101.351 107.263 100.844C103.626 99.7246 103.267 95.5158 103.585 93.4466C103.589 93.4225 103.594 93.3991 103.601 93.3757L112.431 61.8318C112.521 61.511 112.854 61.3241 113.174 61.4138C113.495 61.5036 113.682 61.8364 113.592 62.1569L104.772 93.6632C104.708 94.1333 104.183 98.6344 107.618 99.6911C111.589 100.913 112.884 100.049 113.31 99.7659C113.905 99.3689 135.858 86.2943 139.552 84.0939L134.516 74.4667L116.644 83.2497C116.345 83.3959 115.984 83.2731 115.837 82.9743C115.69 82.6754 115.813 82.3141 116.112 82.167L134.512 73.1247C134.806 72.9805 135.161 73.0967 135.313 73.3864L140.885 84.0403C141.034 84.3242 140.935 84.6742 140.659 84.8382C131.651 90.2023 114.481 100.436 113.979 100.769C113.419 101.142 112.586 101.537 111.156 101.537Z" fill="#161616"/>
<path d="M137.617 44.3883H135.309C134.976 44.3883 134.706 44.1184 134.706 43.7854C134.706 43.4523 134.976 43.1824 135.309 43.1824H136.609L135.617 41.3372C135.459 41.044 135.569 40.6786 135.862 40.5206C136.155 40.3631 136.521 40.4726 136.679 40.7663L138.149 43.5C138.249 43.6867 138.244 43.9127 138.135 44.0948C138.026 44.2769 137.829 44.3883 137.617 44.3883Z" fill="#161616"/>
<path d="M137.612 96.0338L150.601 79.4631C150.601 79.4631 157.233 74.9977 160.619 77.9841C164.671 81.5589 164.493 88.0708 164.493 88.0708V121.717C164.493 121.717 169.719 126.764 169.719 130.759C169.719 130.759 167.127 132.652 160.666 130.759C154.205 128.867 148.575 121.507 148.575 121.507V106.156L137.613 116.886" fill="#946D42"/>
<path d="M116.895 104.206L129.939 87.6493C129.939 87.6493 136.651 83.1918 140.036 86.1777C144.089 89.7525 143.992 96.2719 143.992 96.2719V129.918C143.992 129.918 149.163 134.965 149.163 138.961C149.163 138.961 146.478 140.853 140.017 138.961C133.556 137.068 127.832 129.708 127.832 129.708V104.204" fill="#946D42"/>
<path d="M127.953 111.56C127.62 111.56 127.35 111.29 127.35 110.957V104.204C127.35 103.871 127.62 103.601 127.953 103.601C128.286 103.601 128.556 103.871 128.556 104.204V110.957C128.556 111.29 128.286 111.56 127.953 111.56Z" fill="#161616"/>
<path d="M143.871 111.56C143.538 111.56 143.268 111.29 143.268 110.957V96.2719C143.27 96.1971 143.348 89.9886 139.558 86.6464C138.029 85.2979 135.616 85.7607 133.862 86.3861C132.115 87.0086 130.663 87.9083 130.315 88.1309L114.97 107.979C114.767 108.242 114.388 108.291 114.125 108.087C113.861 107.884 113.813 107.505 114.016 107.241L129.424 87.3125C129.463 87.2612 129.511 87.2168 129.565 87.1806C129.853 86.9872 136.664 82.4856 140.356 85.7417C144.57 89.4592 144.474 96.008 144.474 96.2849V110.957C144.474 111.29 144.204 111.56 143.871 111.56Z" fill="#161616"/>
<path d="M143.992 129.918V110.957H127.832V129.708C127.832 129.708 133.592 137.068 140.053 138.961C146.515 140.853 149.135 138.961 149.135 138.961C149.136 134.965 143.992 129.918 143.992 129.918Z" fill="#F2C94C"/>
<path d="M145.348 140.405C143.722 140.405 141.905 140.114 139.944 139.539C137.174 138.728 134.232 136.886 131.2 134.066C128.957 131.98 127.535 130.154 127.476 130.077C127.394 129.971 127.35 129.841 127.35 129.708V110.837C127.35 110.504 127.62 110.234 127.953 110.234H144.113C144.446 110.234 144.716 110.504 144.716 110.837V129.671C145.656 130.639 149.829 135.153 149.829 138.961C149.829 139.156 149.735 139.338 149.577 139.451C149.522 139.49 148.208 140.405 145.348 140.405ZM128.556 129.496C129.421 130.564 134.604 136.718 140.283 138.382C142.133 138.924 143.837 139.199 145.348 139.199C147.104 139.199 148.154 138.825 148.609 138.612C148.324 134.962 143.737 130.394 143.689 130.347C143.574 130.234 143.51 130.079 143.51 129.918V111.44H128.556V129.496Z" fill="#161616"/>
<path d="M144.136 130.521C143.969 130.521 143.802 130.452 143.683 130.315C142.302 128.737 138.171 129.605 136.695 130.072C136.378 130.174 136.039 129.997 135.939 129.68C135.838 129.362 136.014 129.023 136.331 128.923C136.392 128.904 137.83 128.452 139.534 128.276C141.947 128.025 143.648 128.444 144.59 129.521C144.809 129.771 144.784 130.152 144.533 130.371C144.419 130.472 144.278 130.521 144.136 130.521Z" fill="#161616"/>
<path d="M148.575 106.156V121.507C148.575 121.507 154.268 128.867 160.729 130.759C167.19 132.652 169.724 130.759 169.724 130.759C169.724 126.764 164.493 121.717 164.493 121.717V102.516H148.447L148.575 106.156Z" fill="#F2C94C"/>
<path d="M166.001 132.203C164.39 132.203 162.58 131.912 160.619 131.338C157.848 130.526 154.917 128.684 151.907 125.863C149.68 123.777 148.275 121.95 148.216 121.873C148.136 121.768 148.092 121.639 148.092 121.507V106.175L147.845 102.435C147.834 102.268 147.893 102.105 148.007 101.983C148.12 101.861 148.28 101.792 148.447 101.792H164.614C164.947 101.792 165.217 102.062 165.217 102.395V121.466C166.174 122.436 170.418 126.95 170.418 130.759C170.418 130.951 170.327 131.131 170.172 131.244C170.12 131.284 168.841 132.203 166.001 132.203ZM149.298 121.297C150.153 122.363 155.28 128.517 160.958 130.181C162.809 130.723 164.505 130.998 166.001 130.998C167.723 130.998 168.751 130.627 169.198 130.414C168.91 126.767 164.243 122.197 164.194 122.149C164.077 122.036 164.011 121.88 164.011 121.717V102.998H149.091L149.297 106.116C149.297 106.129 149.298 106.142 149.298 106.156V121.297H149.298Z" fill="#161616"/>
<path d="M148.695 103.119C148.362 103.119 148.092 102.849 148.092 102.516V93.5915C148.092 93.2584 148.362 92.9885 148.695 92.9885C149.028 92.9885 149.298 93.2584 149.298 93.5915V102.516C149.298 102.849 149.028 103.119 148.695 103.119Z" fill="#161616"/>
<path d="M156.859 122.966C156.62 122.966 156.394 122.823 156.3 122.588C156.175 122.279 156.324 121.928 156.633 121.803C156.813 121.731 161.075 120.041 164.91 121.137C165.23 121.228 165.416 121.562 165.324 121.882C165.233 122.203 164.899 122.388 164.579 122.297C161.148 121.316 157.124 122.906 157.084 122.922C157.01 122.952 156.934 122.966 156.859 122.966Z" fill="#161616"/>
<path d="M113.602 28.7107H111.672C111.339 28.7107 111.069 28.4408 111.069 28.1077C111.069 27.7747 111.339 27.5048 111.672 27.5048H113.602C113.935 27.5048 114.205 27.7747 114.205 28.1077C114.205 28.4408 113.935 28.7107 113.602 28.7107Z" fill="#161616"/>
<path d="M113.539 26.6383C113.381 26.6383 113.223 26.5766 113.105 26.4538L112.159 25.4726C111.928 25.2329 111.935 24.8513 112.174 24.62C112.414 24.389 112.796 24.3959 113.027 24.6355L113.973 25.6166C114.204 25.8564 114.197 26.2379 113.958 26.4692C113.841 26.5824 113.69 26.6383 113.539 26.6383Z" fill="#161616"/>
<path d="M133.831 55.448C133.52 55.448 133.255 55.2076 133.231 54.8911L133.021 52.1572C132.995 51.8253 133.243 51.5354 133.576 51.5099C133.909 51.4799 134.198 51.7327 134.223 52.0648L134.434 54.7988C134.459 55.1306 134.211 55.4205 133.879 55.4461C133.863 55.4478 133.847 55.448 133.831 55.448Z" fill="#161616"/>
<path d="M136.334 75.8356L145.503 70.5117C145.503 70.5117 149.078 68.9343 151.181 70.5117C153.284 72.0889 155.807 75.8356 155.807 75.8356C155.807 75.8356 153.952 76.2174 153.25 75.8356L152.232 73.7712C152.232 73.7712 154.583 78.3927 153.67 79.2361C152.758 80.0796 150.129 76.9253 150.129 76.9253C150.129 76.9253 152.863 81.6271 151.812 82.5359C150.76 83.4445 148.447 78.8949 148.447 78.8949C148.447 78.8949 146.345 82.095 143.4 81.026L140.141 82.6558" fill="#DEE5DC"/>
<path d="M140.141 83.2591C139.92 83.2591 139.707 83.1368 139.601 82.9255C139.452 82.6277 139.573 82.2656 139.871 82.1166L143.131 80.4868C143.278 80.4128 143.45 80.4029 143.606 80.4596C146.06 81.3493 147.868 78.6772 147.944 78.5631C148.063 78.3844 148.266 78.2809 148.482 78.2939C148.696 78.3062 148.888 78.4307 148.985 78.6217C149.829 80.2811 150.963 81.8479 151.441 82.036C151.648 81.5244 150.804 79.2862 149.608 77.2286C149.451 76.9577 149.527 76.6113 149.784 76.4314C150.041 76.252 150.392 76.2988 150.593 76.5392C151.577 77.7187 152.844 78.778 153.26 78.7787C153.433 78.3154 152.835 76.4155 151.943 74.5475L151.692 74.0378C151.545 73.7404 151.666 73.3803 151.963 73.232C152.259 73.0839 152.619 73.2021 152.77 73.4978C152.878 73.7093 152.991 73.9389 153.107 74.1811L153.687 75.3576C153.925 75.4121 154.321 75.4141 154.746 75.3781C153.898 74.2117 152.239 72.0593 150.819 70.994C149.115 69.7154 146.094 70.9185 145.774 71.0519L136.637 76.3569C136.349 76.5245 135.979 76.4263 135.812 76.1381C135.645 75.8504 135.743 75.4811 136.031 75.314L145.201 69.9901C145.22 69.979 145.24 69.9689 145.26 69.96C145.419 69.89 149.185 68.2603 151.543 70.0292C153.702 71.6488 156.202 75.3422 156.307 75.4987C156.42 75.6654 156.442 75.8772 156.366 76.0634C156.29 76.2496 156.126 76.3856 155.929 76.4261C155.704 76.4722 154.877 76.6292 154.095 76.6051C154.513 77.9102 154.67 79.1337 154.08 79.6791C153.843 79.8978 153.536 80.0011 153.193 79.9796C152.849 79.9572 152.468 79.7929 152.086 79.5544C152.811 81.3713 152.846 82.4395 152.206 82.9921C151.946 83.2169 151.614 83.3035 151.27 83.2364C150.228 83.0316 149.035 81.1993 148.35 79.9866C147.318 81.1011 145.524 82.2885 143.448 81.6764L140.411 83.1952C140.324 83.2383 140.232 83.2591 140.141 83.2591Z" fill="#161616"/>
<path d="M157.174 68.4858C157.048 68.4858 156.921 68.4465 156.812 68.3652L154.289 66.4728C154.023 66.2731 153.968 65.8949 154.168 65.6286C154.369 65.3624 154.746 65.3088 155.012 65.508L157.536 67.4004C157.802 67.6001 157.856 67.9783 157.656 68.2446C157.538 68.4026 157.357 68.4858 157.174 68.4858Z" fill="#161616"/>
<path d="M160.539 21.4092C160.539 21.4092 156.788 20.7553 155.912 22.2037C155.036 23.6523 167.247 30.0308 167.247 30.0308C167.247 30.0308 179.15 36.0242 180.642 34.6039C181.913 33.395 178.869 30.6222 178.869 30.6222C178.869 30.6222 163.592 21.4605 160.539 21.4092Z" fill="#161616"/>
<path d="M128.973 45.6875C128.795 46.6318 131.408 49.4554 134.526 48.2815C136.208 47.6486 135.195 46.0828 133.239 46.0828C132.145 46.0826 129.509 42.8395 128.973 45.6875Z" fill="#161616"/>
<path d="M230.071 132.675C229.926 132.675 229.784 132.622 229.672 132.524L226.562 129.78C226.313 129.559 226.289 129.178 226.509 128.929C226.729 128.679 227.11 128.655 227.36 128.875L229.745 130.98L231.83 123.36C231.918 123.039 232.247 122.85 232.571 122.938C232.892 123.026 233.081 123.357 232.993 123.679L230.653 132.231C230.598 132.431 230.443 132.59 230.244 132.649C230.187 132.666 230.129 132.675 230.071 132.675Z" fill="#161616"/>
<path d="M230.072 132.675C230.03 132.675 229.988 132.67 229.946 132.661L226.291 131.889C225.965 131.82 225.757 131.5 225.825 131.174C225.894 130.848 226.216 130.641 226.54 130.709L230.196 131.481C230.522 131.55 230.73 131.87 230.661 132.196C230.601 132.48 230.351 132.675 230.072 132.675Z" fill="#161616"/>
<path d="M219.443 105.974C219.443 105.974 225.286 115.975 226.11 118.188C226.935 120.401 236.315 133.147 247.088 126.309C247.088 126.309 252.943 124.025 253.105 115.732L233.103 106.723C233.103 106.723 224.484 97.0299 219.443 105.974Z" fill="#EAEFE8"/>
<path d="M240.619 128.806C240.619 128.806 240.618 128.806 240.618 128.806C232.366 128.806 226.236 120.202 225.545 118.347C224.748 116.208 218.98 106.353 218.922 106.253C218.814 106.068 218.812 105.852 218.917 105.666C220.45 102.947 222.464 101.575 224.903 101.575C228.988 101.575 232.82 105.525 233.464 106.221L253.353 115.18C253.573 115.279 253.713 115.501 253.708 115.743C253.546 123.992 248.036 126.513 247.365 126.795C245.195 128.163 242.925 128.806 240.619 128.806ZM220.141 105.975C221.144 107.699 225.914 115.884 226.675 117.926C227.29 119.576 233.108 127.6 240.618 127.6C240.619 127.6 240.619 127.6 240.619 127.6C242.709 127.6 244.776 127.011 246.765 125.749C246.798 125.728 246.833 125.736 246.869 125.722C247.087 125.635 252.171 123.544 252.49 116.103L232.856 107.266C232.778 107.232 232.709 107.184 232.653 107.121C232.614 107.077 228.744 102.786 224.904 102.786C223.017 102.786 221.416 103.859 220.141 105.975Z" fill="#161616"/>
<path d="M253.105 115.731L265.464 107.926C265.464 107.926 261.399 122.073 253.105 115.731Z" fill="#161616"/>
<path d="M252.871 116.281L267.461 115.383C267.461 115.383 257.091 125.831 252.871 116.281Z" fill="#161616"/>
<path d="M253.115 117.401L267.164 121.439C267.164 121.439 253.894 127.813 253.115 117.401Z" fill="#161616"/>
<path d="M223.065 102.512C223.065 102.512 220.833 97.0302 223.065 97.1928C225.297 97.3551 226.416 99.144 226.416 99.144C226.416 99.144 228.872 96.8519 229.687 97.754C230.501 98.6563 228.244 103.033 228.244 103.033" fill="#946D42"/>
<path d="M244.324 134.836H240.228C239.895 134.836 239.625 134.566 239.625 134.233C239.625 133.9 239.895 133.63 240.228 133.63H243.359L239.904 126.536C239.758 126.236 239.882 125.876 240.182 125.73C240.481 125.584 240.842 125.708 240.988 126.008L244.866 133.969C244.957 134.155 244.945 134.376 244.835 134.552C244.725 134.729 244.532 134.836 244.324 134.836Z" fill="#161616"/>
<path d="M241.072 136.835C240.862 136.835 240.658 136.725 240.547 136.528C240.383 136.239 240.485 135.871 240.775 135.707L244.027 133.867C244.316 133.704 244.685 133.805 244.848 134.095C245.012 134.385 244.91 134.753 244.62 134.917L241.368 136.756C241.275 136.81 241.173 136.835 241.072 136.835Z" fill="#161616"/>
<path d="M227.168 113.082C227.168 113.082 229.632 113.972 230.888 112.559C232.145 111.146 231.027 108.687 231.027 108.687C231.027 108.687 233.705 109.218 235.247 107.689L233.103 106.723C233.103 106.723 224.484 97.0299 219.443 105.974C219.443 105.974 223.315 112.601 225.199 116.26C225.945 115.932 227.393 115.037 227.168 113.082Z" fill="#EAEFE8"/>
<path d="M225.199 116.863C224.98 116.863 224.769 116.743 224.663 116.536C222.807 112.933 218.961 106.345 218.922 106.279C218.814 106.094 218.812 105.865 218.917 105.678C220.449 102.96 222.463 101.582 224.903 101.582C228.987 101.582 232.82 105.529 233.464 106.225L235.494 107.139C235.675 107.221 235.805 107.386 235.84 107.582C235.875 107.777 235.812 107.977 235.672 108.117C234.543 109.237 232.936 109.407 231.895 109.376C232.145 110.347 232.308 111.87 231.339 112.96C230.756 113.616 229.888 113.962 228.828 113.962C228.442 113.962 228.079 113.916 227.777 113.86C227.598 115.659 226.132 116.509 225.441 116.812C225.363 116.847 225.281 116.863 225.199 116.863ZM220.141 105.974C220.88 107.246 223.757 112.215 225.454 115.445C226.118 115.023 226.703 114.317 226.569 113.151C226.545 112.944 226.63 112.739 226.794 112.609C226.958 112.48 227.177 112.445 227.373 112.515C227.378 112.517 228.058 112.756 228.829 112.756C229.544 112.756 230.085 112.555 230.438 112.158C231.407 111.069 230.488 108.957 230.478 108.936C230.384 108.73 230.414 108.489 230.554 108.312C230.695 108.135 230.922 108.051 231.144 108.095C231.15 108.096 232.754 108.393 234.031 107.802L232.855 107.273C232.778 107.238 232.709 107.187 232.652 107.124C232.614 107.08 228.743 102.788 224.903 102.788C223.017 102.787 221.416 103.859 220.141 105.974Z" fill="#161616"/>
<path d="M235.247 107.689C235.247 107.689 234.077 118.047 240.177 120.386C246.275 122.724 248.552 113.793 248.552 113.793L235.247 107.689Z" fill="#EAEFE8"/>
<path d="M242.144 121.329H242.143C241.439 121.329 240.705 121.209 239.96 120.923C237.255 119.886 235.481 117.239 234.83 113.245C234.352 110.315 234.636 107.724 234.648 107.615C234.67 107.422 234.782 107.256 234.951 107.161C235.119 107.065 235.323 107.058 235.499 107.139L248.803 113.244C249.068 113.366 249.208 113.659 249.136 113.941C249.117 114.016 248.658 115.766 247.604 117.564C246.15 120.044 244.262 121.329 242.144 121.329ZM235.788 108.6C235.676 111.043 235.775 118.052 240.392 119.823C240.999 120.055 241.588 120.173 242.143 120.173C245.584 120.174 247.338 115.63 247.825 114.123L235.788 108.6Z" fill="#161616"/>
<path d="M219.443 105.974C219.443 105.974 217.329 106.778 216.841 109.222L220.731 108.201L219.443 105.974Z" fill="#161616"/>
<path d="M225.069 106.037C225.565 106.037 225.968 105.635 225.968 105.138C225.968 104.641 225.565 104.238 225.069 104.238C224.572 104.238 224.169 104.641 224.169 105.138C224.169 105.635 224.572 106.037 225.069 106.037Z" fill="#161616"/>
<path d="M206.952 133.655C206.952 133.655 211.547 138.576 215.683 136.269C219.818 133.962 219.818 127.312 215.683 127.037C211.547 126.762 214.61 135.647 206.952 133.655Z" fill="#21D363"/>
<path d="M213.817 139.78C213.484 139.78 213.214 139.51 213.214 139.177V137.006C213.214 136.673 213.484 136.403 213.817 136.403C214.15 136.403 214.42 136.673 214.42 137.006V139.177C214.42 139.51 214.15 139.78 213.817 139.78Z" fill="#161616"/>
<path d="M215.747 138.815C215.414 138.815 215.144 138.545 215.144 138.212V136.283C215.144 135.949 215.414 135.68 215.747 135.68C216.08 135.68 216.35 135.949 216.35 136.283V138.212C216.35 138.545 216.08 138.815 215.747 138.815Z" fill="#161616"/>
<path d="M218.248 128.802C218.248 128.802 221.113 129.743 221.266 131.622L218.478 131.221L218.248 128.802Z" fill="#161616"/>
<path d="M215.75 130.259C216.218 130.259 216.598 129.88 216.598 129.412C216.598 128.944 216.218 128.564 215.75 128.564C215.282 128.564 214.903 128.944 214.903 129.412C214.903 129.88 215.282 130.259 215.75 130.259Z" fill="#161616"/>
<path d="M197.072 118.721C197.072 118.721 201.667 123.641 205.803 121.334C209.939 119.027 209.939 112.378 205.803 112.103C201.667 111.828 204.731 120.712 197.072 118.721Z" fill="#21D363"/>
<path d="M203.928 124.826C203.595 124.826 203.325 124.556 203.325 124.223V122.052C203.325 121.719 203.595 121.449 203.928 121.449C204.261 121.449 204.531 121.719 204.531 122.052V124.223C204.531 124.556 204.261 124.826 203.928 124.826Z" fill="#161616"/>
<path d="M205.858 124.102C205.525 124.102 205.255 123.833 205.255 123.499V121.329C205.255 120.996 205.525 120.726 205.858 120.726C206.191 120.726 206.461 120.996 206.461 121.329V123.499C206.461 123.833 206.191 124.102 205.858 124.102Z" fill="#161616"/>
<path d="M208.368 113.868C208.368 113.868 211.233 114.808 211.387 116.688L208.598 116.286L208.368 113.868Z" fill="#161616"/>
<path d="M205.861 115.547C206.329 115.547 206.709 115.167 206.709 114.699C206.709 114.231 206.329 113.852 205.861 113.852C205.393 113.852 205.014 114.231 205.014 114.699C205.014 115.167 205.393 115.547 205.861 115.547Z" fill="#161616"/>
<path d="M299.252 98.5388C299.377 99.2898 298.869 99.9999 298.118 100.124C297.367 100.249 296.657 99.7409 296.532 98.99L285.888 34.8451C285.763 34.0941 286.271 33.384 287.022 33.2595C287.773 33.1349 288.483 33.6428 288.608 34.3939L299.252 98.5388Z" fill="#DEE5DC"/>
<path d="M297.891 100.746C296.918 100.746 296.097 100.049 295.937 99.089L285.293 34.9441C285.206 34.4222 285.328 33.8973 285.636 33.4668C285.944 33.0363 286.401 32.7514 286.923 32.6651C287.031 32.6472 287.141 32.6381 287.249 32.6381C288.222 32.6381 289.043 33.3354 289.203 34.2955L299.847 98.4404C300.026 99.5183 299.295 100.541 298.217 100.719C298.109 100.737 297.999 100.746 297.891 100.746ZM287.249 33.8438C287.207 33.8438 287.164 33.8474 287.121 33.8544C286.916 33.8884 286.738 34.0001 286.617 34.1684C286.497 34.3368 286.449 34.5423 286.483 34.7463L297.127 98.8915C297.196 99.3097 297.597 99.6008 298.019 99.5297C298.441 99.4595 298.727 99.0593 298.657 98.6375L288.013 34.4926C287.951 34.1168 287.629 33.8438 287.249 33.8438Z" fill="#161616"/>
<path d="M287.026 45.5581L290.917 44.7914C290.917 44.7914 291.063 26.5143 285.83 26.0266C280.595 25.5391 287.026 45.5581 287.026 45.5581Z" fill="#946D42"/>
<path d="M298.311 93.5713C298.311 93.5713 300.477 100.473 304.954 100.621C309.053 100.756 311.413 119.896 311.413 119.896C311.413 119.896 309.976 122.464 309.487 120.216C308.998 117.968 306.199 106.531 304.678 106.489C303.157 106.447 305.959 120.706 305.959 120.706C305.959 120.706 305.153 124.276 303.923 121.777C302.694 119.279 301.135 107.077 299.416 107.246C297.697 107.415 300.297 122.471 300.297 122.471C300.297 122.471 299.457 125.035 298.477 123.345C297.498 121.654 295.821 107.338 293.636 108.205C292.009 108.85 294.074 122.773 294.074 122.773C294.074 122.773 293.465 127.522 292.146 123.086C291.534 121.027 288.056 108.559 290.013 103.915C291.015 101.536 296.114 102.087 295.705 94.0037L298.311 93.5713Z" fill="white"/>
<path d="M293.193 125.583C292.418 125.583 291.983 124.653 291.568 123.258C291.13 121.782 287.344 108.694 289.458 103.681C289.844 102.762 290.669 102.235 291.543 101.677C293.335 100.532 295.367 99.2341 295.103 94.0343C295.087 93.728 295.304 93.459 295.607 93.4089L298.213 92.9762C298.51 92.9262 298.797 93.1035 298.887 93.3901C298.907 93.4552 300.979 99.8861 304.974 100.018C307.686 100.107 309.318 105.857 310.309 110.174C311.406 114.951 312.006 119.774 312.012 119.822C312.028 119.949 312.003 120.113 311.94 120.225C311.679 120.691 310.98 121.811 310.131 121.811C310.13 121.811 310.13 121.811 310.13 121.811C309.707 121.811 309.149 121.534 308.898 120.379C307.469 113.814 305.69 108.746 304.846 107.414C304.647 109.218 305.511 115.307 306.55 120.598C306.566 120.681 306.605 120.761 306.586 120.843C306.422 121.573 305.832 123.269 304.867 123.269V123.268C303.903 123.269 303.571 122.346 303.422 122.044C302.917 121.016 302.388 118.679 301.799 115.972C301.259 113.493 300.282 109.048 299.556 108.016C299.125 109.595 299.872 116.433 300.896 122.368C300.913 122.465 300.903 122.565 300.872 122.659C300.729 123.096 300.181 124.524 299.171 124.524C298.703 124.524 298.294 124.229 297.957 123.646C297.59 123.014 297.237 121.333 296.646 118.416C296.218 116.306 295.733 113.914 295.2 112.002C294.522 109.573 294.047 108.963 293.87 108.812C293.393 109.763 293.554 115.155 294.67 122.684C294.678 122.739 294.679 122.795 294.672 122.85C294.439 124.663 293.942 125.583 293.193 125.583ZM296.327 94.5116C296.448 99.9739 293.997 101.54 292.191 102.694C291.42 103.187 290.81 103.576 290.568 104.149C289.799 105.974 289.848 109.506 290.71 114.364C291.468 118.636 292.598 122.489 292.724 122.915C292.902 123.513 293.051 123.88 293.16 124.102C293.277 123.77 293.397 123.262 293.465 122.776C293.384 122.219 292.928 119.016 292.645 115.783C292.031 108.798 292.72 107.919 293.414 107.644C293.548 107.591 293.687 107.564 293.827 107.564C295.419 107.564 296.31 110.692 297.827 118.176C298.263 120.327 298.714 122.55 298.999 123.042C299.077 123.176 299.138 123.25 299.177 123.289C299.321 123.162 299.536 122.786 299.676 122.418C299.093 119.02 297.447 108.671 298.696 107.03C298.914 106.744 299.176 106.663 299.357 106.645C299.388 106.642 299.42 106.641 299.451 106.641C300.76 106.641 301.475 108.906 302.957 115.715C303.481 118.124 304.024 120.615 304.464 121.51C304.608 121.802 304.719 121.947 304.784 122.015C304.959 121.816 305.201 121.245 305.341 120.692C305.218 120.056 304.671 117.179 304.23 114.212C303.19 107.206 303.746 106.531 304.013 106.206C304.183 106 304.417 105.886 304.671 105.886C305.376 105.905 306.254 106.422 308.046 112.35C309.053 115.682 309.87 119.139 310.076 120.087C310.119 120.283 310.163 120.406 310.197 120.479C310.358 120.355 310.599 120.064 310.789 119.766C310.663 118.805 310.088 114.6 309.131 110.436C307.182 101.951 305.426 101.239 304.934 101.223C300.776 101.086 298.525 95.91 297.909 94.2492L296.327 94.5116Z" fill="#161616"/>
<path d="M48.8113 58.9189C54.5707 58.9189 59.2395 54.25 59.2395 48.4907C59.2395 42.7314 54.5707 38.0625 48.8113 38.0625C43.052 38.0625 38.3831 42.7314 38.3831 48.4907C38.3831 54.25 43.052 58.9189 48.8113 58.9189Z" fill="#DEE5DC"/>
<path d="M49.2057 41.4571C53.3934 41.4571 56.7883 38.0622 56.7883 33.8745C56.7883 29.6867 53.3934 26.2919 49.2057 26.2919C45.0179 26.2919 41.623 29.6867 41.623 33.8745C41.623 38.0622 45.0179 41.4571 49.2057 41.4571Z" fill="#DEE5DC"/>
<path d="M49.0962 73.09C49.0957 73.09 49.0952 73.09 49.0948 73.09C48.7617 73.09 48.4925 72.7668 48.4932 72.4337L48.6027 30.8393C48.6035 30.507 48.8733 30.1577 49.2057 30.1577C49.2062 30.1577 49.2067 30.1577 49.2072 30.1577C49.5402 30.1577 49.8094 30.4838 49.8087 30.8167L49.6992 72.4096C49.6985 72.7422 49.4286 73.09 49.0962 73.09Z" fill="#161616"/>
<path d="M49.0957 51.3561C48.9997 51.3561 48.9022 51.3329 48.8115 51.2844L43.1768 48.2678C42.8833 48.1108 42.7728 47.7452 42.9298 47.4516C43.0873 47.1579 43.4525 47.0476 43.746 47.2047L49.3808 50.2212C49.6743 50.3783 49.7848 50.7439 49.6277 51.0374C49.5192 51.2403 49.3108 51.3561 49.0957 51.3561Z" fill="#161616"/>
<path d="M49.2052 38.6651C49.0689 38.6651 48.9317 38.6193 48.8188 38.5247C48.5631 38.311 48.5294 37.9309 48.7431 37.6755L53.1757 32.3741C53.3894 32.1184 53.7695 32.0841 54.0249 32.2983C54.2806 32.512 54.3144 32.8921 54.1007 33.1476L49.668 38.449C49.5489 38.5918 49.3776 38.6651 49.2052 38.6651Z" fill="#161616"/>
<path d="M103.426 217.548C103.379 217.548 103.331 217.542 103.283 217.531C102.96 217.453 102.761 217.126 102.839 216.803C102.883 216.622 103.944 212.316 106.922 206.84C109.674 201.781 114.647 194.761 122.715 190.046C123.003 189.877 123.372 189.975 123.54 190.262C123.708 190.549 123.611 190.919 123.324 191.087C108.331 199.848 104.052 216.915 104.011 217.086C103.944 217.362 103.697 217.548 103.426 217.548Z" fill="#161616"/>
<path d="M94.3673 215.305C94.348 215.305 94.3285 215.304 94.309 215.302C93.9773 215.27 93.7347 214.975 93.7663 214.644C93.8034 214.258 97.3521 175.948 86.9323 164.442C86.7088 164.195 86.7276 163.814 86.9746 163.59C87.2215 163.367 87.6026 163.386 87.8262 163.633C92.3705 168.651 94.951 178.796 95.4959 193.787C95.8994 204.885 94.9761 214.662 94.9667 214.759C94.937 215.071 94.6744 215.305 94.3673 215.305Z" fill="#161616"/>
<path d="M123.079 188.734C123.079 188.734 127.795 180.579 123.739 178.602C120.443 176.997 119.343 186.68 123.079 188.734Z" fill="#21D363"/>
<path d="M122.917 189.345C122.585 189.345 122.315 189.073 122.314 188.741L122.274 180.565C122.273 180.233 122.541 179.939 122.874 179.939C122.875 179.939 122.876 179.939 122.878 179.939C123.209 179.939 123.479 180.225 123.481 180.557L123.52 188.725C123.521 189.058 123.253 189.345 122.92 189.345C122.919 189.345 122.918 189.345 122.917 189.345Z" fill="#161616"/>
<path d="M113.573 197.042C113.573 197.042 116.739 188.17 112.393 186.958C108.861 185.974 109.527 195.697 113.573 197.042Z" fill="#21D363"/>
<path d="M113.413 197.674C113.129 197.674 112.875 197.473 112.821 197.183L111.309 189.169C111.248 188.842 111.463 188.527 111.79 188.465C112.117 188.405 112.433 188.619 112.494 188.946L114.006 196.96C114.067 197.287 113.852 197.602 113.525 197.664C113.487 197.671 113.45 197.674 113.413 197.674Z" fill="#161616"/>
<path d="M105.687 208.165C105.687 208.165 108.278 199.108 103.863 198.178C100.275 197.422 101.564 207.082 105.687 208.165Z" fill="#21D363"/>
<path d="M105.529 208.807C105.26 208.807 105.015 208.626 104.945 208.354L102.923 200.454C102.841 200.131 103.035 199.803 103.358 199.72C103.68 199.636 104.009 199.832 104.092 200.155L106.114 208.055C106.196 208.377 106.002 208.706 105.679 208.788C105.629 208.801 105.579 208.807 105.529 208.807Z" fill="#161616"/>
<path d="M126.391 189.266C126.391 189.266 135.765 190.203 135.894 185.692C135.999 182.028 126.722 185.015 126.391 189.266Z" fill="#21D363"/>
<path d="M126.325 189.721C126.096 189.721 125.878 189.59 125.776 189.369C125.638 189.066 125.771 188.708 126.073 188.57L133.487 185.174C133.79 185.034 134.148 185.168 134.286 185.47C134.425 185.773 134.292 186.131 133.989 186.27L126.576 189.665C126.494 189.703 126.409 189.721 126.325 189.721Z" fill="#161616"/>
<path d="M118.838 194.707C118.838 194.707 125.948 200.887 128.659 197.28C130.862 194.35 121.564 191.428 118.838 194.707Z" fill="#21D363"/>
<path d="M126.883 196.661C126.846 196.661 126.808 196.658 126.771 196.651L118.757 195.14C118.43 195.078 118.215 194.763 118.277 194.435C118.338 194.108 118.654 193.894 118.981 193.955L126.994 195.466C127.322 195.528 127.537 195.843 127.475 196.17C127.42 196.46 127.167 196.661 126.883 196.661Z" fill="#161616"/>
<path d="M109.582 206.074C109.582 206.074 118.129 210.034 119.731 205.816C121.033 202.389 111.29 202.167 109.582 206.074Z" fill="#21D363"/>
<path d="M109.567 206.515C109.26 206.515 108.997 206.281 108.967 205.969C108.936 205.637 109.179 205.343 109.51 205.311L117.628 204.536C117.961 204.506 118.254 204.747 118.286 205.079C118.317 205.411 118.074 205.705 117.743 205.737L109.625 206.512C109.606 206.514 109.586 206.515 109.567 206.515Z" fill="#161616"/>
<path d="M87.9316 161.056C87.9316 161.056 95.9197 151.296 90.9849 147.811C86.9758 144.98 83.4358 157.539 87.9316 161.056Z" fill="#21D363"/>
<path d="M87.7175 161.624C87.6864 161.624 87.6546 161.622 87.6227 161.617C87.2937 161.565 87.0692 161.256 87.1213 160.927L88.8253 150.143C88.8772 149.814 89.1842 149.591 89.5149 149.642C89.8439 149.694 90.0684 150.003 90.0163 150.332L88.3123 161.116C88.2655 161.412 88.0091 161.624 87.7175 161.624Z" fill="#161616"/>
<path d="M94.9288 177.661C94.9288 177.661 105.723 173.207 103.229 168.201C101.202 164.134 92.8061 172.82 94.9288 177.661Z" fill="#21D363"/>
<path d="M94.7684 178.141C94.641 178.141 94.5127 178.101 94.4037 178.017C94.1386 177.816 94.0873 177.438 94.2889 177.172L100.409 169.128C100.611 168.862 100.989 168.811 101.254 169.013C101.519 169.215 101.571 169.593 101.369 169.858L95.2486 177.903C95.1302 178.059 94.9502 178.141 94.7684 178.141Z" fill="#161616"/>
<path d="M96.7273 199.843C96.7273 199.843 107.522 195.389 105.027 190.382C103.001 186.315 94.6046 195.002 96.7273 199.843Z" fill="#21D363"/>
<path d="M96.567 200.322C96.4396 200.322 96.3113 200.282 96.2023 200.199C95.9372 199.998 95.8859 199.619 96.0875 199.354L102.208 191.31C102.409 191.044 102.788 190.993 103.053 191.195C103.318 191.396 103.369 191.775 103.167 192.04L97.0472 200.084C96.9288 200.24 96.7488 200.322 96.567 200.322Z" fill="#161616"/>
<path d="M85.7862 162.73C85.7862 162.73 74.1841 161.408 75.2094 155.909C76.0432 151.442 86.4999 157.493 85.7862 162.73Z" fill="#21D363"/>
<path d="M85.9059 163.171C85.7803 163.171 85.6534 163.132 85.5451 163.05L77.4529 156.993C77.1863 156.793 77.1318 156.416 77.3315 156.149C77.5312 155.882 77.9092 155.828 78.1757 156.028L86.268 162.085C86.5345 162.284 86.589 162.662 86.3893 162.929C86.2706 163.087 86.0895 163.171 85.9059 163.171Z" fill="#161616"/>
<path d="M90.3356 173.248C90.3356 173.248 78.8208 175.189 78.2842 169.621C77.8486 165.098 89.5715 168.018 90.3356 173.248Z" fill="#21D363"/>
<path d="M90.4055 173.661C90.3346 173.661 90.2625 173.649 90.1921 173.622L80.7393 170.041C80.4279 169.923 80.2711 169.575 80.3891 169.264C80.507 168.953 80.8548 168.796 81.1667 168.913L90.6195 172.494C90.9308 172.612 91.0876 172.96 90.9697 173.272C90.8783 173.513 90.6489 173.661 90.4055 173.661Z" fill="#161616"/>
<path d="M93.3329 188.235C93.3329 188.235 81.8181 190.176 81.2815 184.608C80.8459 180.085 92.5688 183.005 93.3329 188.235Z" fill="#21D363"/>
<path d="M93.4032 188.649C93.3322 188.649 93.2599 188.636 93.1897 188.61L83.7371 185.029C83.4257 184.911 83.269 184.563 83.3869 184.251C83.5049 183.94 83.8534 183.784 84.1645 183.901L93.6171 187.482C93.9285 187.6 94.0852 187.948 93.9673 188.259C93.8759 188.5 93.6465 188.649 93.4032 188.649Z" fill="#161616"/>
<path d="M92.7002 205.104C92.7002 205.104 84.9235 206.416 84.5607 202.655C84.2667 199.6 92.1841 201.572 92.7002 205.104Z" fill="#21D363"/>
<path d="M92.7474 205.58C92.6765 205.58 92.6042 205.567 92.534 205.54L86.1499 203.122C85.8385 203.004 85.6817 202.656 85.7996 202.344C85.9178 202.033 86.2661 201.877 86.5772 201.994L92.9614 204.413C93.2727 204.531 93.4295 204.879 93.3116 205.19C93.2199 205.431 92.9908 205.58 92.7474 205.58Z" fill="#161616"/>
<path d="M270.329 150.805L302.036 151.264L304.463 181.368C304.463 181.368 304.807 186.423 300.672 186.423C296.536 186.423 270.329 186.537 270.329 186.537C270.329 186.537 265.175 184.814 265.865 181.024C266.554 177.233 270.329 150.805 270.329 150.805Z" fill="#F9D0C7"/>
<path d="M270.329 187.174C270.264 187.174 270.2 187.147 270.138 187.126C270.082 187.107 268.742 186.645 267.476 185.693C265.708 184.362 264.946 182.709 265.271 180.92C265.95 177.184 269.694 151.021 269.732 150.757C269.775 150.459 270.029 150.272 270.329 150.272C270.332 150.272 270.335 150.272 270.338 150.272L302.045 150.696C302.356 150.701 302.612 150.923 302.637 151.233L305.064 181.328C305.072 181.451 305.238 184.161 303.697 185.811C302.941 186.62 301.923 187.045 300.672 187.045C296.585 187.045 270.594 187.174 270.332 187.174C270.331 187.174 270.33 187.174 270.329 187.174ZM270.851 151.415C270.315 155.159 267.087 177.67 266.458 181.131C265.914 184.121 269.794 185.696 270.433 185.934C272.26 185.926 296.716 185.82 300.672 185.82C301.587 185.82 302.287 185.547 302.812 184.987C303.996 183.723 303.862 181.431 303.861 181.408L301.479 151.859L270.851 151.415Z" fill="#161616"/>
<path d="M265.865 181.023C265.175 184.814 270.329 186.537 270.329 186.537C270.329 186.537 296.536 186.422 300.672 186.422C304.807 186.422 304.463 181.368 304.463 181.368C285.079 168.622 265.865 181.023 265.865 181.023Z" fill="#B2BCAF"/>
<path d="M270.329 187.174C270.264 187.174 270.2 187.147 270.138 187.126C270.082 187.107 268.742 186.645 267.476 185.693C265.708 184.362 264.946 182.71 265.271 180.92C265.331 180.593 265.644 180.372 265.972 180.433C266.3 180.492 266.517 180.805 266.458 181.133C265.916 184.112 269.795 185.696 270.433 185.935C272.266 185.927 296.716 185.82 300.671 185.82C301.586 185.82 302.286 185.548 302.812 184.987C303.996 183.724 303.862 181.431 303.861 181.408C303.839 181.076 304.09 180.789 304.422 180.767C304.757 180.746 305.041 180.995 305.064 181.327C305.072 181.442 305.238 184.156 303.696 185.807C302.941 186.616 301.923 187.043 300.671 187.043C296.585 187.043 270.594 187.174 270.331 187.174C270.331 187.174 270.33 187.174 270.329 187.174Z" fill="#161616"/>
<path d="M313.754 177.044H304.104C303.791 177.044 303.53 176.805 303.503 176.493L303.128 172.151C303.113 171.983 303.17 171.816 303.284 171.692C303.398 171.568 303.56 171.497 303.729 171.497H308.78L302.585 164.149C302.504 164.054 302.455 163.935 302.445 163.81L301.879 156.848C301.857 156.584 302.01 156.338 302.255 156.24C302.5 156.141 302.781 156.213 302.947 156.418L314.216 170.248C314.231 170.267 314.246 170.286 314.258 170.307C314.331 170.421 316.024 173.131 315.467 175.213C315.258 175.993 314.776 176.586 314.034 176.975C313.947 177.02 313.851 177.044 313.754 177.044ZM304.657 175.838H313.595C313.961 175.613 314.193 175.306 314.301 174.902C314.647 173.618 313.682 171.666 313.258 170.98L303.239 158.684L303.632 163.52L310.539 171.711C310.69 171.89 310.723 172.141 310.624 172.354C310.526 172.567 310.312 172.703 310.078 172.703H304.386L304.657 175.838Z" fill="#161616"/>
<path d="M290.545 170.095C290.36 170.095 290.177 170.011 290.059 169.85C289.861 169.582 289.918 169.204 290.187 169.007C296.348 164.468 298.447 153.433 297.132 148.125C296.892 147.154 296.311 145.497 295.13 145.319C290.742 144.661 286.414 151.073 286.371 151.138C286.186 151.415 285.812 151.49 285.535 151.306C285.258 151.121 285.183 150.747 285.367 150.47C285.561 150.179 290.166 143.356 295.309 144.126C296.292 144.274 297.61 145.037 298.303 147.835C299.729 153.59 297.555 165.077 290.902 169.978C290.794 170.057 290.669 170.095 290.545 170.095Z" fill="#161616"/>
<path d="M252.7 159.045C251.156 159.045 249.34 158.625 247.141 157.63C246.838 157.493 246.703 157.136 246.841 156.832C246.978 156.529 247.336 156.395 247.639 156.532C254.671 159.715 257.106 156.547 260.189 152.537C261.603 150.696 263.066 148.794 265.112 147.318C266.946 145.994 268.886 145.491 270.88 145.822C274.944 146.496 277.747 150.393 277.865 150.558C278.057 150.83 277.993 151.206 277.722 151.399C277.45 151.591 277.073 151.527 276.881 151.256C276.855 151.22 274.242 147.599 270.677 147.01C269.014 146.736 267.379 147.168 265.817 148.295C263.915 149.668 262.507 151.5 261.145 153.271C258.88 156.217 256.706 159.045 252.7 159.045Z" fill="#161616"/>
<path d="M293.357 165.454C293.357 165.454 285.708 170.79 289.038 179.38C289.038 179.38 297.815 176.548 293.357 165.454Z" fill="#21D363"/>
<path d="M245.416 149.251C245.416 149.251 250.602 157.003 259.255 153.841C259.255 153.841 256.595 145.01 245.416 149.251Z" fill="#21D363"/>
<path d="M263.983 149.429C263.983 149.429 256.667 155.213 260.504 163.589C260.504 163.589 269.096 160.236 263.983 149.429Z" fill="#21D363"/>
<path d="M282.057 159.252C282.057 159.252 289.899 164.301 296.58 157.958C296.58 157.958 290.626 150.914 282.057 159.252Z" fill="#21D363"/>
<path d="M297.575 153.875C297.575 153.875 293.782 162.395 301.07 168.03C301.07 168.031 307.123 161.072 297.575 153.875Z" fill="#21D363"/>
<path d="M271.316 146.243C271.316 146.243 267.937 139.717 260.883 141.432C260.883 141.432 262.19 148.581 271.316 146.243Z" fill="#21D363"/>
<path d="M303.699 148.81C303.699 148.81 301.603 143.852 296.355 144.702C296.355 144.702 296.901 149.997 303.699 148.81Z" fill="#21D363"/>
<path d="M286.859 149.175C288.924 149.175 290.598 147.501 290.598 145.436C290.598 143.371 288.924 141.697 286.859 141.697C284.794 141.697 283.12 143.371 283.12 145.436C283.12 147.501 284.794 149.175 286.859 149.175Z" fill="#946D42"/>
<path d="M294.578 141.74C296.666 141.74 298.359 140.047 298.359 137.959C298.359 135.871 296.666 134.178 294.578 134.178C292.489 134.178 290.796 135.871 290.796 137.959C290.796 140.047 292.489 141.74 294.578 141.74Z" fill="#946D42"/>
</svg>
