<svg width="20" height="21" viewBox="0 0 20 21" fill="none" xmlns="http://www.w3.org/2000/svg">
<path d="M10.0001 2.26285C10.2258 2.26285 10.4088 2.08041 10.4088 1.85542V0.407435C10.4088 0.182409 10.2258 0 10.0001 0C9.77431 0 9.59131 0.182409 9.59131 0.407435V1.85542C9.59131 2.08045 9.77431 2.26285 10.0001 2.26285Z" fill="#FA0000"/>
<path d="M13.6503 3.15898C13.7278 3.22605 13.8233 3.25893 13.9184 3.25893C14.0326 3.25893 14.1462 3.21146 14.227 3.11885L15.244 1.95285C15.3922 1.78304 15.3741 1.5257 15.2037 1.37804C15.0334 1.23039 14.7752 1.2484 14.627 1.41818L13.61 2.58418C13.4619 2.75399 13.48 3.01133 13.6503 3.15898Z" fill="#FA0000"/>
<path d="M16.8109 6.47856C16.8801 6.47856 16.9502 6.461 17.0145 6.42416L18.3593 5.65269C18.555 5.54044 18.6223 5.29138 18.5097 5.09634C18.3971 4.90134 18.1472 4.83424 17.9515 4.94644L16.6067 5.71792C16.411 5.83017 16.3437 6.07923 16.4563 6.27427C16.5319 6.40526 16.6695 6.47856 16.8109 6.47856Z" fill="#FA0000"/>
<path d="M19.5912 9.61279H18.0383C17.8126 9.61279 17.6296 9.79524 17.6296 10.0202C17.6296 10.2452 17.8126 10.4277 18.0383 10.4277H19.5912C19.817 10.4277 20 10.2452 20 10.0202C20 9.7952 19.817 9.61279 19.5912 9.61279Z" fill="#FA0000"/>
<path d="M5.7729 3.11883C5.85375 3.21148 5.96735 3.25891 6.08156 3.25891C6.17663 3.25891 6.27216 3.22599 6.34958 3.15896C6.51996 3.01131 6.53798 2.75397 6.38989 2.58415L5.37284 1.41816C5.2247 1.24834 4.96653 1.23045 4.79616 1.37802C4.62578 1.52568 4.60776 1.78301 4.75585 1.95283L5.7729 3.11883Z" fill="#FA0000"/>
<path d="M1.64092 5.65276L2.98576 6.42424C3.05001 6.46111 3.12012 6.47863 3.18928 6.47863C3.33071 6.47863 3.4683 6.40533 3.54392 6.27434C3.65654 6.0793 3.58922 5.83024 3.39354 5.71799L2.0487 4.94652C1.85298 4.83419 1.60311 4.90133 1.49053 5.09641C1.37792 5.29145 1.44524 5.54051 1.64092 5.65276Z" fill="#FA0000"/>
<path d="M2.37043 10.0202C2.37043 9.79524 2.18742 9.61279 1.96166 9.61279H0.408765C0.183004 9.61279 0 9.79524 0 10.0202C0 10.2452 0.183004 10.4277 0.408765 10.4277H1.96166C2.18742 10.4277 2.37043 10.2452 2.37043 10.0202Z" fill="#FA0000"/>
<path d="M17.4954 18.0474V17.5345C17.4954 16.7465 16.9156 16.0909 16.1589 15.9692V9.27492C16.1589 5.89488 13.4001 3.14502 10.009 3.14502H9.991C6.59993 3.14502 3.8411 5.89488 3.8411 9.27492V15.9693C3.08439 16.0909 2.50464 16.7465 2.50464 17.5346V18.0475C2.01445 18.1945 1.65637 18.6485 1.65637 19.1843V20.4531C1.65637 20.6781 1.83938 20.8605 2.06514 20.8605H8.15213C8.37789 20.8605 8.5609 20.6781 8.5609 20.4531C8.5609 20.2281 8.37789 20.0457 8.15213 20.0457H2.4739V19.1843C2.4739 18.9791 2.64137 18.8122 2.84719 18.8122H17.1528C17.3587 18.8122 17.5261 18.9791 17.5261 19.1843V20.0457H11.8479C11.6221 20.0457 11.4391 20.2281 11.4391 20.4531C11.4391 20.6781 11.6221 20.8605 11.8479 20.8605H17.9349C18.1607 20.8605 18.3437 20.6781 18.3437 20.4531V19.1843C18.3437 18.6485 17.9855 18.1944 17.4954 18.0474ZM4.65863 9.27492C4.65863 6.3442 7.05072 3.95989 9.991 3.95989H10.009C12.9493 3.95989 15.3414 6.34424 15.3414 9.27492V15.949H11.1737V12.9185C11.8081 12.5191 12.2057 11.8091 12.2057 11.0428C12.2057 9.83368 11.2162 8.84997 10 8.84997C8.7838 8.84997 7.79434 9.83372 7.79434 11.0428C7.79434 11.8091 8.19195 12.5191 8.82631 12.9185V15.949H4.65863V9.27492ZM9.40888 12.3093C8.93214 12.086 8.61187 11.5771 8.61187 11.0428C8.61187 10.283 9.23458 9.6648 10 9.6648C10.7654 9.6648 11.3881 10.283 11.3881 11.0428C11.3881 11.5771 11.0678 12.086 10.5911 12.3093C10.4477 12.3764 10.3562 12.5201 10.3562 12.678V15.949H9.64384V12.678C9.64384 12.5201 9.55232 12.3764 9.40888 12.3093ZM4.09531 16.7639H15.9047C16.331 16.7639 16.6779 17.1096 16.6779 17.5345V17.9973H3.32217V17.5345C3.32217 17.1096 3.66897 16.7639 4.09531 16.7639Z" fill="#FA0000"/>
<path d="M10.3699 20.2977C10.3052 20.1402 10.1427 20.0382 9.97233 20.0466C9.80397 20.055 9.65509 20.169 9.60347 20.3288C9.54984 20.4949 9.61181 20.6832 9.75467 20.7844C9.89254 20.882 10.0784 20.8846 10.2195 20.7919C10.3799 20.6864 10.4437 20.474 10.3699 20.2977Z" fill="#FA0000"/>
</svg>
