<svg width="24" height="24" viewBox="0 0 24 24" fill="none" xmlns="http://www.w3.org/2000/svg">
<g clip-path="url(#clip0)">
<path d="M4.22467 15.2393H0.469543C0.210815 15.2393 0.000976562 15.4491 0.000976562 15.7078C0.000976562 15.9667 0.210815 16.1766 0.469543 16.1766H4.22467C8.27917 16.1766 11.5776 19.475 11.5776 23.5295C11.5776 23.7884 11.7875 23.9983 12.0464 23.9983C12.3051 23.9983 12.5151 23.7884 12.5151 23.5295C12.5151 18.9581 8.79608 15.2393 4.22467 15.2393Z" fill="#666666"/>
<path d="M4.22467 18.989H0.469543C0.210815 18.989 0.000976562 19.1989 0.000976562 19.4578C0.000976562 19.7167 0.210815 19.9265 0.469543 19.9265H4.22467C6.21155 19.9265 7.82782 21.5428 7.82782 23.5297C7.82782 23.7886 8.03766 23.9984 8.29657 23.9984C8.55548 23.9984 8.76532 23.7886 8.76532 23.5297C8.76532 21.0259 6.72845 18.989 4.22467 18.989Z" fill="#666666"/>
<path d="M23.5304 11.4895H23.351C23.9049 10.8457 24.1222 9.98401 23.9329 9.14447C23.8931 8.96796 23.7553 8.83026 23.5787 8.79034C22.6724 8.586 21.7394 8.85553 21.0836 9.51141C20.9644 9.63062 20.8582 9.75897 20.765 9.89465C20.6718 9.75916 20.5656 9.63062 20.4464 9.51141C19.7905 8.85553 18.8577 8.586 17.9512 8.79034C17.7747 8.83026 17.6368 8.96796 17.597 9.14447C17.3971 10.0309 17.6505 10.942 18.2749 11.5952C16.1584 11.876 14.1581 12.7134 12.4686 14.0316V10.4921C12.6462 10.513 12.8237 10.5238 13.0002 10.5238C14.1798 10.5236 15.3185 10.0607 16.1749 9.20435C17.2731 8.10608 17.7245 6.54401 17.3821 5.02588C17.3422 4.84937 17.2045 4.71149 17.028 4.67175C16.069 4.45551 15.0929 4.55621 14.2268 4.93616C14.3085 4.59521 14.3513 4.24146 14.3513 3.88074C14.3513 2.32745 13.566 0.903992 12.2504 0.0725098C12.0975 -0.0241699 11.9025 -0.0241699 11.7496 0.0725098C10.434 0.903992 9.64862 2.32745 9.64862 3.88074C9.64862 4.24146 9.69147 4.59521 9.77314 4.93634C8.90705 4.55621 7.93091 4.45551 6.97199 4.67175C6.79548 4.71149 6.6576 4.84937 6.61786 5.02588C6.27545 6.54401 6.72681 8.10608 7.82508 9.20435C8.68146 10.0607 9.82001 10.5238 10.9998 10.5238C11.1763 10.5238 11.3537 10.513 11.5311 10.4921V13.9585C9.84052 12.6623 7.85254 11.8467 5.73676 11.5833C6.35273 10.9308 6.60157 10.0254 6.4029 9.14447C6.36316 8.96796 6.22528 8.83026 6.04877 8.79034C5.1424 8.586 4.20948 8.85553 3.55359 9.51141C3.43439 9.63062 3.32819 9.75897 3.23499 9.89465C3.14179 9.75916 3.03559 9.63062 2.91639 9.51141C2.26032 8.85553 1.32758 8.586 0.421024 8.79034C0.244511 8.83026 0.106632 8.96796 0.0668984 9.14447C-0.122433 9.98401 0.0949135 10.8457 0.648808 11.4895H0.469364C0.210636 11.4895 0.000797317 11.6993 0.000797317 11.9583C0.000797317 12.2172 0.210636 12.427 0.469364 12.427H4.22449C10.3466 12.427 15.3271 17.4077 15.3271 23.5296C15.3271 23.5618 15.3304 23.5935 15.3366 23.6241C15.3804 23.8376 15.5693 23.9984 15.7958 23.9984C16.0548 23.9984 16.2646 23.7885 16.2646 23.5296C16.2646 21.5427 17.881 19.9265 19.8677 19.9265H23.5304C23.7891 19.9265 23.999 19.7166 23.999 19.4577C23.999 19.1988 23.7891 18.989 23.5304 18.989H19.8677C18.2504 18.989 16.828 19.8391 16.0236 21.1159C15.8079 20.05 15.4492 19.0243 14.9574 18.0615C16.3102 16.8435 18.0405 16.1766 19.8677 16.1766H21.6554C21.9143 16.1766 22.1241 15.9668 22.1241 15.7079C22.1241 15.4492 21.9143 15.2393 21.6554 15.2393H19.8677C17.877 15.2393 15.9885 15.941 14.4874 17.2266C13.9985 16.4341 13.4144 15.6925 12.7394 15.0174C14.7358 13.3434 17.2479 12.427 19.8677 12.427H23.5304C23.7891 12.427 23.999 12.2172 23.999 11.9583C23.999 11.6993 23.7891 11.4895 23.5304 11.4895ZM21.7464 10.1743C22.0985 9.82214 22.5733 9.6416 23.0604 9.66284C23.0823 10.1499 22.9012 10.6247 22.549 10.977C22.2227 11.3033 21.7911 11.4824 21.3417 11.4895H21.2987C21.2775 11.4893 21.2562 11.4893 21.235 11.4884C21.2343 11.4703 21.2343 11.4523 21.2339 11.4344C21.2341 11.4157 21.2341 11.3969 21.2339 11.3782C21.2419 10.9303 21.4208 10.4998 21.7464 10.1743ZM18.4694 9.66284C18.9562 9.64142 19.4312 9.82214 19.7835 10.1743C20.1089 10.4998 20.288 10.9303 20.296 11.3782C20.2958 11.3969 20.2957 11.4155 20.2958 11.4344C20.2957 11.4523 20.2957 11.4703 20.2949 11.4884C20.2728 11.4893 20.2508 11.4893 20.2286 11.4895H20.1904C19.7403 11.4825 19.3076 11.3038 18.9808 10.9768C18.6287 10.6247 18.4476 10.1499 18.4694 9.66284ZM13.5123 6.54181C14.3098 5.7442 15.4164 5.37762 16.522 5.53162C16.676 6.63721 16.3095 7.7439 15.512 8.54132C14.8668 9.18658 14.019 9.54968 13.1333 9.58319L14.7686 7.94806C14.9515 7.76495 14.9515 7.46814 14.7686 7.28503C14.5855 7.10211 14.2887 7.10211 14.1058 7.28503L12.4705 8.92035C12.4999 8.14343 12.783 7.396 13.2875 6.78864C13.3003 6.77344 13.3133 6.75861 13.3259 6.74323C13.3853 6.67419 13.4471 6.60699 13.5123 6.54181ZM11.9999 1.03821C12.8905 1.71112 13.4138 2.75281 13.4138 3.88074C13.4138 4.79315 13.0712 5.64917 12.4686 6.29938V4.14807C12.4686 3.88934 12.2588 3.67932 11.9999 3.67932C11.741 3.67932 11.5311 3.88934 11.5311 4.14807V6.29938C10.9287 5.64935 10.5859 4.79315 10.5859 3.88074C10.5859 2.75281 11.1093 1.71112 11.9999 1.03821ZM7.47773 5.53162C8.58332 5.37781 9.69001 5.74438 10.4874 6.54181C10.5526 6.60681 10.6145 6.67419 10.6738 6.74341C10.6865 6.75861 10.6995 6.77344 10.7123 6.78864C11.2167 7.396 11.4998 8.14343 11.5293 8.92035L9.89417 7.28522C9.71106 7.10211 9.41425 7.10211 9.23114 7.28522C9.04822 7.46814 9.04822 7.76495 9.23114 7.94806L10.8665 9.58337C9.98078 9.54968 9.133 9.18677 8.48792 8.5415C7.69031 7.7439 7.32373 6.63721 7.47773 5.53162ZM4.21643 10.1743C4.56855 9.82214 5.04352 9.6416 5.5304 9.66284C5.55219 10.1499 5.3711 10.6247 5.01899 10.977C4.69251 11.3033 4.26075 11.4824 3.81159 11.4895H3.76874C3.7475 11.4893 3.72626 11.4893 3.70502 11.4884C3.70411 11.4703 3.70429 11.4523 3.70392 11.4344C3.70411 11.4157 3.70411 11.3969 3.70374 11.3782C3.71198 10.9303 3.89087 10.4998 4.21643 10.1743ZM1.45081 10.9768C1.0987 10.6247 0.917606 10.1499 0.939396 9.66284C1.42646 9.64124 1.90125 9.82214 2.25336 10.1743C2.57892 10.4996 2.758 10.9301 2.76606 11.3782C2.76587 11.3969 2.76569 11.4155 2.76587 11.4342C2.76569 11.4523 2.76569 11.4703 2.76477 11.4882C2.7428 11.4893 2.72065 11.4893 2.69867 11.4895H2.6604C2.21033 11.4825 1.77765 11.3038 1.45081 10.9768Z" fill="#666666"/>
<path d="M23.5305 15.2393C23.4071 15.2393 23.2863 15.2891 23.1991 15.3766C23.1119 15.4637 23.0618 15.5842 23.0618 15.708C23.0618 15.8312 23.1119 15.9523 23.1991 16.0394C23.2863 16.1266 23.4071 16.1768 23.5305 16.1768C23.6537 16.1768 23.7746 16.1266 23.8618 16.0394C23.9491 15.9523 23.9991 15.8312 23.9991 15.708C23.9991 15.5842 23.9491 15.4637 23.8618 15.3766C23.7746 15.2891 23.6537 15.2393 23.5305 15.2393Z" fill="#666666"/>
</g>
<defs>
<clipPath id="clip0">
<rect width="24" height="24" fill="white"/>
</clipPath>
</defs>
</svg>
