<svg width="24" height="24" viewBox="0 0 24 24" fill="none" xmlns="http://www.w3.org/2000/svg">
<g clip-path="url(#clip0)">
<path d="M19.5 24H4.5C3.122 24 2 22.878 2 21.5V2.5C2 1.122 3.122 0 4.5 0H19.5C20.878 0 22 1.122 22 2.5V21.5C22 22.878 20.878 24 19.5 24ZM4.5 1C3.673 1 3 1.673 3 2.5V21.5C3 22.327 3.673 23 4.5 23H19.5C20.327 23 21 22.327 21 21.5V2.5C21 1.673 20.327 1 19.5 1H4.5Z" fill="#666666"/>
<path d="M18.5 12H16.5C16.224 12 16 11.776 16 11.5C16 11.224 16.224 11 16.5 11H18.5C18.776 11 19 11.224 19 11.5C19 11.776 18.776 12 18.5 12Z" fill="#666666"/>
<path d="M18.5 9H16.5C16.224 9 16 8.776 16 8.5C16 8.224 16.224 8 16.5 8H18.5C18.776 8 19 8.224 19 8.5C19 8.776 18.776 9 18.5 9Z" fill="#666666"/>
<path d="M18.5 15H16.5C16.224 15 16 14.776 16 14.5C16 14.224 16.224 14 16.5 14H18.5C18.776 14 19 14.224 19 14.5C19 14.776 18.776 15 18.5 15Z" fill="#666666"/>
<path d="M18.5 18H16.5C16.224 18 16 17.776 16 17.5C16 17.224 16.224 17 16.5 17H18.5C18.776 17 19 17.224 19 17.5C19 17.776 18.776 18 18.5 18Z" fill="#666666"/>
<path d="M18.5 21H5.5C5.224 21 5 20.776 5 20.5C5 20.224 5.224 20 5.5 20H18.5C18.776 20 19 20.224 19 20.5C19 20.776 18.776 21 18.5 21Z" fill="#666666"/>
<path d="M10 18C7.243 18 5 15.757 5 13C5 10.243 7.243 8 10 8C12.757 8 15 10.243 15 13C15 15.757 12.757 18 10 18ZM10 9C7.794 9 6 10.794 6 13C6 15.206 7.794 17 10 17C12.206 17 14 15.206 14 13C14 10.794 12.206 9 10 9Z" fill="#666666"/>
<path d="M6.818 16.682C6.69 16.682 6.562 16.633 6.464 16.536C6.269 16.341 6.269 16.024 6.464 15.829L9.5 12.793V8.5C9.5 8.224 9.724 8 10 8C10.276 8 10.5 8.224 10.5 8.5V13C10.5 13.133 10.447 13.26 10.354 13.354L7.172 16.536C7.074 16.633 6.946 16.682 6.818 16.682Z" fill="#666666"/>
</g>
<defs>
<clipPath id="clip0">
<rect width="24" height="24" fill="white"/>
</clipPath>
</defs>
</svg>
