<svg width="21" height="21" viewBox="0 0 21 21" fill="none" xmlns="http://www.w3.org/2000/svg">
<path d="M18.2903 10.9513V4.54645C19.3966 4.38706 20.25 3.43564 20.25 2.28629C20.25 1.02589 19.2244 0 17.9637 0C16.703 0 15.6774 1.02589 15.6774 2.28629H0V15.3508H9.81504C9.98488 18.08 12.2532 20.25 15.0242 20.25C17.9056 20.25 20.25 17.9056 20.25 15.0242C20.25 13.3784 19.4834 11.9099 18.2903 10.9513ZM17.9637 0.653226C18.8642 0.653226 19.5968 1.38582 19.5968 2.28629C19.5968 3.18676 18.8642 3.91935 17.9637 3.91935C17.0632 3.91935 16.3306 3.18676 16.3306 2.28629C16.3306 1.38582 17.0632 0.653226 17.9637 0.653226ZM0.653226 2.93952H15.7738C15.8518 3.20015 15.9759 3.44021 16.1353 3.65317L14.1378 5.65073C14.0097 5.58933 13.8686 5.55242 13.7177 5.55242C13.5668 5.55242 13.4257 5.58933 13.298 5.65073L12.6399 4.9926C12.701 4.86457 12.7379 4.72348 12.7379 4.57258C12.7379 4.03236 12.2983 3.59274 11.7581 3.59274C11.2178 3.59274 10.7782 4.03236 10.7782 4.57258C10.7782 4.72348 10.8151 4.86457 10.8765 4.99228L9.23857 6.63024C9.11054 6.56916 8.96944 6.53226 8.81855 6.53226C8.27833 6.53226 7.83871 6.97188 7.83871 7.5121C7.83871 8.05231 8.27833 8.49193 8.81855 8.49193C9.35877 8.49193 9.79839 8.05231 9.79839 7.5121C9.79839 7.3612 9.76148 7.2201 9.70008 7.0924L11.338 5.45444C11.4661 5.51551 11.6072 5.55242 11.7581 5.55242C11.909 5.55242 12.0501 5.51551 12.1778 5.45411L12.8359 6.11223C12.7748 6.24027 12.7379 6.38136 12.7379 6.53226C12.7379 7.07248 13.1775 7.5121 13.7177 7.5121C14.258 7.5121 14.6976 7.07248 14.6976 6.53226C14.6976 6.38136 14.6607 6.24027 14.5993 6.11256L16.5972 4.115C16.896 4.33905 17.2507 4.49093 17.6371 4.54678V10.5058C16.8673 10.0587 15.9766 9.79839 15.0242 9.79839C13.463 9.79839 12.0631 10.4902 11.1048 11.5794V10.125H9.14516V14.0444H9.89376C9.85326 14.2576 9.82876 14.4761 9.81504 14.6976H0.653226V2.93952ZM13.7177 6.20565C13.8977 6.20565 14.0444 6.35197 14.0444 6.53226C14.0444 6.71255 13.8977 6.85887 13.7177 6.85887C13.5378 6.85887 13.3911 6.71255 13.3911 6.53226C13.3911 6.35197 13.5378 6.20565 13.7177 6.20565ZM11.4315 4.57258C11.4315 4.39229 11.5781 4.24597 11.7581 4.24597C11.938 4.24597 12.0847 4.39229 12.0847 4.57258C12.0847 4.75287 11.938 4.89919 11.7581 4.89919C11.5781 4.89919 11.4315 4.75287 11.4315 4.57258ZM9.14516 7.5121C9.14516 7.69239 8.99851 7.83871 8.81855 7.83871C8.63858 7.83871 8.49193 7.69239 8.49193 7.5121C8.49193 7.33181 8.63858 7.18548 8.81855 7.18548C8.99851 7.18548 9.14516 7.33181 9.14516 7.5121ZM15.0242 17.6371C13.5835 17.6371 12.4113 16.4649 12.4113 15.0242C12.4113 13.5835 13.5835 12.4113 15.0242 12.4113C16.4649 12.4113 17.6371 13.5835 17.6371 15.0242C17.6371 16.4649 16.4649 17.6371 15.0242 17.6371ZM10.4516 12.4998C10.2952 12.782 10.1658 13.0802 10.0633 13.3911H9.79839V10.7782H10.4516V12.4998ZM14.6976 10.4683V11.7747C13.0495 11.9393 11.7581 13.3336 11.7581 15.0242C11.7581 15.502 11.8639 15.955 12.0491 16.3646L10.9161 17.0188C10.6215 16.4152 10.4516 15.7398 10.4516 15.0242C10.4516 12.6131 12.3287 10.6368 14.6976 10.4683ZM15.0242 19.5968C13.4519 19.5968 12.0625 18.7989 11.2394 17.5865L12.377 16.9297C12.9708 17.7521 13.9346 18.2903 15.0242 18.2903C16.1138 18.2903 17.0776 17.7521 17.6714 16.9297L18.809 17.5865C17.9859 18.7989 16.5965 19.5968 15.0242 19.5968ZM19.1323 17.0188L17.9993 16.3646C18.1845 15.955 18.2903 15.502 18.2903 15.0242C18.2903 13.3336 16.9989 11.939 15.3508 11.7747V10.4683C17.7197 10.6368 19.5968 12.6131 19.5968 15.0242C19.5968 15.7398 19.4269 16.4152 19.1323 17.0188Z" fill="#21D363"/>
<path d="M15.0243 13.0645C13.9435 13.0645 13.0646 13.9434 13.0646 15.0241C13.0646 16.1049 13.9435 16.9838 15.0243 16.9838C16.105 16.9838 16.9839 16.1049 16.9839 15.0241C16.9839 13.9434 16.105 13.0645 15.0243 13.0645ZM15.0243 16.3306C14.3037 16.3306 13.7178 15.7446 13.7178 15.0241C13.7178 14.3036 14.3037 13.7177 15.0243 13.7177C15.7448 13.7177 16.3307 14.3036 16.3307 15.0241C16.3307 15.7446 15.7448 16.3306 15.0243 16.3306Z" fill="#21D363"/>
<path d="M1.3064 3.59277H1.95962V4.246H1.3064V3.59277Z" fill="#21D363"/>
<path d="M2.61292 3.59277H7.1855V4.246H2.61292V3.59277Z" fill="#21D363"/>
<path d="M1.3064 4.89917H1.95962V5.5524H1.3064V4.89917Z" fill="#21D363"/>
<path d="M2.61292 4.89917H7.1855V5.5524H2.61292V4.89917Z" fill="#21D363"/>
<path d="M1.3064 6.20557H1.95962V6.85879H1.3064V6.20557Z" fill="#21D363"/>
<path d="M2.61292 6.20557H7.1855V6.85879H2.61292V6.20557Z" fill="#21D363"/>
<path d="M1.3064 7.51221H1.95962V8.16543H1.3064V7.51221Z" fill="#21D363"/>
<path d="M2.61292 7.51221H7.1855V8.16543H2.61292V7.51221Z" fill="#21D363"/>
<path d="M1.3064 14.0444H3.26607V10.7783H1.3064V14.0444ZM1.95962 11.4315H2.61285V13.3912H1.95962V11.4315Z" fill="#21D363"/>
<path d="M3.91931 14.0443H5.87899V11.4314H3.91931V14.0443ZM4.57254 12.0846H5.22576V13.3911H4.57254V12.0846Z" fill="#21D363"/>
<path d="M6.53223 14.0444H8.4919V8.8186H6.53223V14.0444ZM7.18545 9.47183H7.83868V13.3912H7.18545V9.47183Z" fill="#21D363"/>
</svg>
