<svg width="24" height="20" viewBox="0 0 24 20" fill="none" xmlns="http://www.w3.org/2000/svg">
<path d="M20.4844 10.5199H18.1351C17.8154 10.5199 17.5058 10.5636 17.2112 10.644C16.63 9.50152 15.4435 8.71655 14.0763 8.71655H9.92367C8.55647 8.71655 7.36997 9.50152 6.78881 10.644C6.4942 10.5636 6.18464 10.5199 5.86491 10.5199H3.51562C1.57711 10.5199 0 12.097 0 14.0356V17.7911C0 18.9542 0.946266 19.9005 2.10938 19.9005H21.8906C23.0537 19.9005 24 18.9542 24 17.7911V14.0356C24 12.097 22.4229 10.5199 20.4844 10.5199ZM6.40805 12.2323V18.4943H2.10938C1.72167 18.4943 1.40625 18.1788 1.40625 17.7911V14.0356C1.40625 12.8725 2.35252 11.9262 3.51562 11.9262H5.86491C6.05578 11.9262 6.24061 11.9521 6.41658 11.9999C6.41152 12.0768 6.40805 12.1542 6.40805 12.2323ZM16.1857 18.4943H7.8143V12.2322C7.8143 11.0691 8.76056 10.1229 9.92367 10.1229H14.0763C15.2394 10.1229 16.1857 11.0691 16.1857 12.2322V18.4943ZM22.5938 17.7911C22.5938 18.1788 22.2783 18.4943 21.8906 18.4943H17.592V12.2322C17.592 12.1541 17.5885 12.0767 17.5834 11.9999C17.7594 11.9521 17.9442 11.9262 18.1351 11.9262H20.4844C21.6475 11.9262 22.5938 12.8724 22.5938 14.0356V17.7911Z" fill="#666666"/>
<path d="M4.69032 3.88013C2.96771 3.88013 1.56628 5.28155 1.56628 7.00416C1.56624 8.72677 2.96771 10.1282 4.69032 10.1282C6.41288 10.1282 7.81435 8.72677 7.81435 7.00416C7.81435 5.28155 6.41293 3.88013 4.69032 3.88013ZM4.69027 8.72194C3.74307 8.72194 2.97249 7.95136 2.97249 7.00416C2.97249 6.05695 3.74307 5.28638 4.69027 5.28638C5.63747 5.28638 6.40805 6.05695 6.40805 7.00416C6.40805 7.95136 5.63747 8.72194 4.69027 8.72194Z" fill="#666666"/>
<path d="M12 0C9.69864 0 7.82635 1.87228 7.82635 4.17366C7.82635 6.47503 9.69864 8.34731 12 8.34731C14.3014 8.34731 16.1737 6.47503 16.1737 4.17366C16.1737 1.87233 14.3014 0 12 0ZM12 6.94106C10.474 6.94106 9.23261 5.69963 9.23261 4.17366C9.23261 2.64773 10.474 1.40625 12 1.40625C13.526 1.40625 14.7674 2.64769 14.7674 4.17366C14.7674 5.69963 13.526 6.94106 12 6.94106Z" fill="#666666"/>
<path d="M19.3097 3.88013C17.5871 3.88013 16.1857 5.28155 16.1857 7.00416C16.1857 8.72677 17.5871 10.1282 19.3097 10.1282C21.0323 10.1282 22.4337 8.72677 22.4337 7.00416C22.4337 5.28155 21.0323 3.88013 19.3097 3.88013ZM19.3097 8.72194C18.3625 8.72194 17.5919 7.95136 17.5919 7.00416C17.592 6.05695 18.3625 5.28638 19.3097 5.28638C20.2569 5.28638 21.0275 6.05695 21.0275 7.00416C21.0275 7.95136 20.2569 8.72194 19.3097 8.72194Z" fill="#666666"/>
</svg>
