<svg width="340" height="238" viewBox="0 0 340 238" fill="none" xmlns="http://www.w3.org/2000/svg">
<path d="M186.103 56.1153C185.821 56.1153 185.568 55.9177 185.509 55.6306L184.433 50.4001C184.366 50.0717 184.577 49.7511 184.905 49.6834C185.233 49.6154 185.554 49.827 185.621 50.1555L186.698 55.3859C186.765 55.7143 186.554 56.0349 186.226 56.1027C186.184 56.1111 186.143 56.1153 186.103 56.1153Z" fill="#DEE5DC"/>
<path d="M192.059 53.6513C191.777 53.6513 191.524 53.4537 191.465 53.1666L190.389 47.9361C190.322 47.608 190.533 47.2871 190.861 47.2196C191.189 47.1516 191.51 47.3635 191.578 47.6917L192.654 52.9221C192.721 53.2503 192.51 53.5712 192.182 53.6387C192.14 53.6471 192.099 53.6513 192.059 53.6513Z" fill="#DEE5DC"/>
<path d="M197.527 52.5263C197.245 52.5263 196.992 52.3288 196.933 52.0416L195.857 46.8112C195.79 46.4828 196.001 46.1621 196.329 46.0944C196.658 46.0267 196.978 46.2381 197.046 46.5665L198.122 51.7969C198.189 52.1254 197.978 52.446 197.65 52.5137C197.609 52.5224 197.567 52.5263 197.527 52.5263Z" fill="#DEE5DC"/>
<path d="M203.663 51.0168C203.381 51.0168 203.128 50.8192 203.069 50.532L201.993 45.3016C201.926 44.9734 202.137 44.6526 202.465 44.5851C202.794 44.5171 203.114 44.729 203.182 45.0572L204.258 50.2876C204.325 50.6158 204.114 50.9367 203.786 51.0041C203.745 51.0126 203.703 51.0168 203.663 51.0168Z" fill="#DEE5DC"/>
<path d="M209.279 49.366C208.997 49.366 208.745 49.1684 208.686 48.8813L207.61 43.6511C207.542 43.3227 207.753 43.002 208.081 42.9343C208.41 42.8664 208.73 43.078 208.798 43.4064L209.874 48.6366C209.941 48.965 209.73 49.2857 209.402 49.3534C209.361 49.3619 209.32 49.366 209.279 49.366Z" fill="#DEE5DC"/>
<path d="M215.46 48.0946C215.178 48.0946 214.925 47.8971 214.866 47.6099L213.791 42.3795C213.724 42.0511 213.935 41.7304 214.263 41.663C214.591 41.595 214.912 41.8069 214.98 42.1351L216.055 47.3655C216.123 47.6939 215.911 48.0145 215.583 48.082C215.542 48.0907 215.501 48.0946 215.46 48.0946Z" fill="#DEE5DC"/>
<path d="M220.928 46.9702C220.646 46.9702 220.394 46.7726 220.334 46.4855L219.259 41.255C219.191 40.9269 219.403 40.606 219.731 40.5385C220.058 40.4703 220.38 40.6825 220.448 41.0106L221.523 46.2411C221.591 46.5692 221.379 46.8901 221.051 46.9576C221.01 46.9663 220.969 46.9702 220.928 46.9702Z" fill="#DEE5DC"/>
<path d="M227.155 45.9372C226.873 45.9372 226.62 45.7397 226.561 45.4525L225.485 40.2221C225.418 39.8939 225.629 39.573 225.957 39.5056C226.285 39.4374 226.606 39.6495 226.674 39.9777L227.75 45.2081C227.817 45.5363 227.606 45.8571 227.278 45.9246C227.236 45.9331 227.195 45.9372 227.155 45.9372Z" fill="#DEE5DC"/>
<path d="M232.713 45.2896C232.431 45.2896 232.179 45.092 232.119 44.8049L231.044 39.5744C230.976 39.2463 231.188 38.9254 231.516 38.8579C231.844 38.7899 232.165 39.0018 232.233 39.33L233.308 44.5604C233.376 44.8886 233.164 45.2095 232.836 45.277C232.795 45.2857 232.754 45.2896 232.713 45.2896Z" fill="#DEE5DC"/>
<path d="M238.895 44.0182C238.613 44.0182 238.36 43.8206 238.301 43.5335L237.225 38.303C237.158 37.9748 237.369 37.654 237.697 37.5865C238.026 37.5183 238.347 37.7304 238.414 38.0586L239.49 43.289C239.557 43.6172 239.346 43.9381 239.018 44.0055C238.976 44.014 238.935 44.0182 238.895 44.0182Z" fill="#DEE5DC"/>
<path d="M244.588 44.0862C244.306 44.0862 244.053 43.8886 243.994 43.6014L242.919 38.371C242.852 38.0426 243.063 37.722 243.391 37.6545C243.719 37.5863 244.04 37.7984 244.108 38.1266L245.183 43.357C245.251 43.6854 245.039 44.0061 244.711 44.0735C244.67 44.082 244.629 44.0862 244.588 44.0862Z" fill="#DEE5DC"/>
<path d="M183.608 53.4783C183.352 53.4783 183.115 53.3162 183.031 53.0606C182.926 52.7422 183.1 52.3992 183.418 52.2948C183.817 52.164 223.364 39.2776 246.001 39.2776C246.102 39.2776 246.202 39.2778 246.302 39.2783C246.638 39.28 246.908 39.5747 246.906 39.9096C246.904 40.2436 246.633 40.5349 246.299 40.5349C246.298 40.5349 246.297 40.5349 246.296 40.5349C246.198 40.5349 246.098 40.5128 245.998 40.5128C223.556 40.5128 184.193 53.3286 183.796 53.4587C183.734 53.4793 183.67 53.4783 183.608 53.4783Z" fill="#DEE5DC"/>
<path d="M182.822 55.0595C182.822 55.0595 259.676 32.7676 308.986 41.9911V82.0404L182.822 55.0595Z" fill="#DEE5DC"/>
<path d="M34.952 147.298V48.1743C34.952 48.1743 223.144 45.3791 308.986 81.9322V139.557L34.952 147.298Z" fill="#F5F8FD"/>
<path d="M316.025 85.3488C315.946 85.3488 315.865 85.3333 315.787 85.3C286.731 72.9041 236.05 61.4202 186.673 56.0436C186.34 56.0075 186.1 55.7079 186.136 55.3747C186.172 55.0417 186.469 54.8011 186.805 54.837C236.291 60.2255 287.106 71.7449 316.264 84.1837C316.572 84.3153 316.715 84.6716 316.584 84.9799C316.485 85.2107 316.261 85.3488 316.025 85.3488Z" fill="#161616"/>
<path d="M34.952 147.216C34.952 147.216 163.838 103.61 308.986 118.975V203.535L34.952 201.114V147.216Z" fill="#F5F8FD"/>
<path d="M316.026 119.541C315.999 119.541 315.97 119.539 315.942 119.536C308.894 118.556 301.662 117.708 294.446 117.015C294.112 116.983 293.868 116.686 293.9 116.353C293.932 116.019 294.227 115.773 294.562 115.807C301.795 116.502 309.045 117.352 316.109 118.333C316.441 118.38 316.673 118.686 316.627 119.018C316.584 119.322 316.324 119.541 316.026 119.541Z" fill="#161616"/>
<path d="M285.415 116.223C285.399 116.223 285.382 116.223 285.366 116.221C276.651 115.534 267.701 115.047 258.766 114.773C258.431 114.763 258.168 114.5 258.179 114.165C258.189 113.837 258.458 113.594 258.785 113.594C258.791 113.594 258.797 113.594 258.804 113.594C267.758 113.837 276.727 114.34 285.462 115.029C285.796 115.055 286.045 115.339 286.019 115.673C285.994 115.99 285.728 116.223 285.415 116.223Z" fill="#161616"/>
<path d="M103.965 128.848C103.683 128.848 103.43 128.65 103.372 128.363C103.305 128.034 103.516 127.714 103.845 127.647C144.142 119.405 184.253 114.659 223.062 113.541C223.397 113.536 223.677 113.795 223.686 114.13C223.696 114.465 223.432 114.744 223.097 114.754C184.358 115.87 144.317 120.608 104.088 128.836C104.047 128.844 104.006 128.848 103.965 128.848Z" fill="#161616"/>
<path d="M23.7869 150.433C23.5403 150.433 23.3085 150.281 23.2177 150.036C23.1014 149.722 23.2619 149.373 23.5759 149.257C23.641 149.232 30.1884 146.815 41.7246 143.297C52.3663 140.053 69.5574 135.179 91.0236 130.388C91.3525 130.316 91.6751 130.521 91.7481 130.848C91.8212 131.175 91.6151 131.5 91.2879 131.572C69.8654 136.353 52.7105 141.216 42.0916 144.454C30.5855 147.962 24.0621 150.371 23.9973 150.395C23.9281 150.421 23.857 150.433 23.7869 150.433Z" fill="#161616"/>
<path d="M156.745 115.426L139.112 187.227L154.394 190.039L167.619 140.044C167.619 140.044 173.398 141.347 179.276 139.652L194.264 186.443L208.726 180.076L186.721 113.662" fill="#21D363"/>
<path d="M156.745 116.032C156.573 116.032 156.409 115.96 156.294 115.831C156.17 115.694 156.116 115.508 156.147 115.326L159.575 94.7018C159.604 94.5283 159.707 94.3756 159.857 94.2836C160.022 94.1826 163.972 91.8052 170.217 91.3129C176.464 90.82 181.836 93.0707 182.062 93.1666C182.237 93.2414 182.368 93.3945 182.413 93.5802L186.781 111.363C186.861 111.688 186.662 112.017 186.337 112.097C186.011 112.176 185.683 111.977 185.603 111.652L181.309 94.1739C180.146 93.7309 175.479 92.1151 170.312 92.5227C165.205 92.9253 161.645 94.687 160.725 95.1868L157.469 114.775L186.686 113.056C187.02 113.035 187.308 113.292 187.328 113.626C187.347 113.961 187.092 114.248 186.757 114.268L156.781 116.031C156.769 116.032 156.757 116.032 156.745 116.032Z" fill="#161616"/>
<path d="M143.137 170.836L157.013 180.137L150.036 205.516L137.343 193.193L143.137 170.836Z" fill="#F2C94C"/>
<path d="M150.036 206.123C149.88 206.123 149.728 206.063 149.613 205.952L136.921 193.628C136.764 193.476 136.701 193.252 136.756 193.041L142.55 170.684C142.599 170.494 142.738 170.339 142.921 170.269C143.105 170.199 143.312 170.222 143.475 170.332L157.351 179.633C157.568 179.779 157.667 180.046 157.598 180.298L150.621 205.677C150.564 205.884 150.402 206.045 150.195 206.102C150.143 206.116 150.089 206.123 150.036 206.123ZM138.019 193.003L149.723 204.366L156.312 180.398L143.51 171.816L138.019 193.003Z" fill="#161616"/>
<path d="M130.686 187.557C130.686 187.557 135.267 184.634 139.106 187.052C142.945 189.47 148.252 195.01 148.252 195.01" fill="#F2C94C"/>
<path d="M148.252 195.617C148.092 195.617 147.933 195.554 147.813 195.43C147.761 195.375 142.514 189.915 138.783 187.566C137.347 186.661 135.618 186.464 133.644 186.976C132.122 187.372 131.022 188.062 131.011 188.069C130.728 188.249 130.354 188.165 130.174 187.882C129.994 187.6 130.077 187.225 130.359 187.045C130.409 187.013 131.604 186.259 133.302 185.811C135.595 185.206 137.714 185.458 139.43 186.539C143.288 188.969 148.471 194.362 148.69 194.59C148.922 194.832 148.913 195.217 148.671 195.448C148.554 195.561 148.403 195.617 148.252 195.617Z" fill="#161616"/>
<path d="M150.627 204.728C151.602 206.869 141.803 209.87 136.842 204.874C131.857 199.855 125.966 190.493 129.608 187.776C133.25 185.06 146.731 196.172 150.627 204.728Z" fill="#161616"/>
<path d="M130.686 192.821C130.494 192.821 130.305 192.73 130.187 192.56C129.996 192.285 130.064 191.907 130.34 191.715L133.47 189.541C133.746 189.35 134.123 189.418 134.315 189.693C134.506 189.969 134.438 190.346 134.162 190.538L131.032 192.712C130.926 192.786 130.806 192.821 130.686 192.821Z" fill="#F2C94C"/>
<path d="M131.862 194.976C131.673 194.976 131.488 194.888 131.369 194.723C131.173 194.452 131.235 194.072 131.507 193.877L136.009 190.634C136.281 190.438 136.66 190.5 136.856 190.772C137.052 191.044 136.99 191.423 136.718 191.619L132.216 194.861C132.108 194.939 131.985 194.976 131.862 194.976Z" fill="#F2C94C"/>
<path d="M133.037 197.131C132.846 197.131 132.658 197.041 132.54 196.873C132.347 196.598 132.414 196.22 132.688 196.027L137.445 192.696C137.72 192.504 138.098 192.571 138.29 192.845C138.482 193.12 138.416 193.498 138.141 193.69L133.385 197.021C133.279 197.096 133.157 197.131 133.037 197.131Z" fill="#F2C94C"/>
<path d="M138.584 204.049C138.402 204.049 138.221 203.967 138.102 203.811C137.898 203.544 137.949 203.163 138.216 202.96L142.988 199.313C143.255 199.109 143.635 199.16 143.839 199.427C144.042 199.693 143.991 200.074 143.725 200.277L138.952 203.924C138.842 204.008 138.713 204.049 138.584 204.049Z" fill="#F2C94C"/>
<path d="M140.348 205.616C140.165 205.616 139.985 205.534 139.865 205.378C139.661 205.112 139.712 204.731 139.979 204.527L144.752 200.88C145.018 200.677 145.399 200.728 145.602 200.994C145.806 201.261 145.755 201.641 145.488 201.845L140.716 205.492C140.605 205.576 140.476 205.616 140.348 205.616Z" fill="#F2C94C"/>
<path d="M204.872 168.557L191.588 178.685L200.097 203.592L212.016 190.52L204.872 168.557Z" fill="#F2C94C"/>
<path d="M200.097 204.199C200.056 204.199 200.014 204.195 199.973 204.186C199.763 204.143 199.592 203.992 199.522 203.789L191.013 178.882C190.929 178.634 191.012 178.361 191.22 178.203L204.504 168.074C204.661 167.955 204.865 167.919 205.053 167.977C205.24 168.036 205.388 168.182 205.449 168.369L212.593 190.332C212.66 190.539 212.611 190.767 212.464 190.928L200.545 204.001C200.429 204.129 200.265 204.199 200.097 204.199ZM192.303 178.903L200.339 202.426L211.329 190.372L204.559 169.558L192.303 178.903Z" fill="#161616"/>
<path d="M218.318 184.489C218.318 184.489 213.567 181.851 209.882 184.498C206.197 187.145 201.238 192.997 201.238 192.997" fill="#F2C94C"/>
<path d="M201.237 193.604C201.099 193.604 200.959 193.557 200.845 193.46C200.59 193.244 200.558 192.861 200.775 192.605C200.979 192.364 205.825 186.665 209.528 184.005C211.175 182.822 213.275 182.442 215.6 182.906C217.322 183.249 218.56 183.93 218.612 183.958C218.905 184.121 219.011 184.491 218.848 184.784C218.685 185.076 218.316 185.181 218.024 185.02C218.013 185.014 216.873 184.391 215.33 184.089C213.328 183.698 211.614 184.001 210.236 184.991C206.655 187.563 201.75 193.332 201.701 193.39C201.581 193.531 201.409 193.604 201.237 193.604Z" fill="#161616"/>
<path d="M199.459 202.842C198.616 205.038 208.579 207.437 213.227 202.149C217.897 196.835 223.208 187.132 219.407 184.642C215.606 182.152 202.826 194.064 199.459 202.842Z" fill="#161616"/>
<path d="M218.601 189.744C218.493 189.744 218.384 189.715 218.286 189.656L215.029 187.676C214.742 187.501 214.651 187.128 214.825 186.842C215 186.555 215.373 186.465 215.659 186.638L218.916 188.618C219.203 188.792 219.294 189.166 219.12 189.452C219.006 189.64 218.806 189.744 218.601 189.744Z" fill="#F2C94C"/>
<path d="M217.558 191.966C217.448 191.966 217.336 191.936 217.235 191.873L212.544 188.91C212.26 188.731 212.176 188.357 212.354 188.073C212.534 187.79 212.908 187.705 213.192 187.884L217.883 190.847C218.166 191.025 218.251 191.4 218.072 191.684C217.957 191.866 217.76 191.966 217.558 191.966Z" fill="#F2C94C"/>
<path d="M216.516 194.189C216.408 194.189 216.298 194.161 216.199 194.1L211.249 191.064C210.963 190.889 210.874 190.516 211.049 190.23C211.225 189.944 211.599 189.855 211.884 190.03L216.834 193.065C217.12 193.241 217.209 193.614 217.034 193.9C216.919 194.087 216.72 194.189 216.516 194.189Z" fill="#F2C94C"/>
<path d="M211.401 201.432C211.285 201.432 211.167 201.398 211.063 201.329L206.077 197.979C205.799 197.792 205.725 197.415 205.912 197.137C206.099 196.859 206.476 196.785 206.754 196.971L211.74 200.321C212.018 200.508 212.092 200.885 211.905 201.164C211.788 201.338 211.596 201.432 211.401 201.432Z" fill="#F2C94C"/>
<path d="M209.736 203.104C209.62 203.104 209.502 203.07 209.398 203.001L204.412 199.651C204.134 199.464 204.06 199.087 204.247 198.808C204.434 198.531 204.811 198.457 205.089 198.643L210.075 201.993C210.353 202.18 210.427 202.557 210.24 202.835C210.123 203.01 209.931 203.104 209.736 203.104Z" fill="#F2C94C"/>
<path d="M167.619 140.847C164.094 140.847 162.566 138.564 162.502 138.467C162.319 138.187 162.398 137.811 162.679 137.627C162.958 137.445 163.333 137.523 163.517 137.802C163.572 137.883 164.781 139.633 167.618 139.633C167.954 139.633 168.225 139.905 168.225 140.24C168.225 140.575 167.954 140.847 167.619 140.847Z" fill="#161616"/>
<path d="M179.641 140.473C179.379 140.473 179.22 140.453 179.193 140.449C178.861 140.403 178.629 140.097 178.675 139.765C178.72 139.434 179.024 139.204 179.356 139.246C179.47 139.262 181.958 139.535 184.523 136.926C184.758 136.687 185.142 136.684 185.381 136.919C185.619 137.154 185.623 137.538 185.388 137.777C183.01 140.196 180.614 140.473 179.641 140.473Z" fill="#161616"/>
<path d="M147.178 154.382L152.626 155.77L154.585 147.933L149.201 146.146L147.178 154.382Z" fill="#B2BCAF"/>
<path d="M155.343 150.003H153.644C153.308 150.003 153.037 149.731 153.037 149.396C153.037 149.061 153.308 148.789 153.644 148.789H155.343C155.678 148.789 155.95 149.061 155.95 149.396C155.95 149.731 155.678 150.003 155.343 150.003Z" fill="#161616"/>
<path d="M153.801 155.985C153.685 155.985 153.569 155.952 153.465 155.883L151.995 154.903C151.717 154.718 151.641 154.341 151.827 154.062C152.013 153.783 152.389 153.708 152.669 153.894L154.138 154.873C154.417 155.059 154.493 155.436 154.307 155.715C154.19 155.89 153.997 155.985 153.801 155.985Z" fill="#161616"/>
<path d="M154.488 152.85C154.439 152.85 154.39 152.844 154.341 152.832L152.773 152.44C152.448 152.358 152.25 152.029 152.332 151.704C152.413 151.379 152.744 151.18 153.067 151.263L154.635 151.655C154.96 151.736 155.158 152.065 155.076 152.39C155.007 152.666 154.76 152.85 154.488 152.85Z" fill="#161616"/>
<path d="M163.007 93.8967L162.51 115.479C162.51 115.479 162.765 117.955 164.911 117.824C167.056 117.694 166.993 115.215 166.993 115.215V92.8754C166.993 92.8754 163.872 93.5637 163.007 93.8967Z" fill="#946D42"/>
<path d="M164.642 118.436C162.632 118.436 161.945 116.555 161.865 115.527C161.838 115.193 162.088 114.901 162.422 114.875C162.755 114.846 163.047 115.097 163.074 115.43C163.091 115.624 163.291 117.315 164.773 117.219C166.261 117.128 166.233 115.435 166.225 115.242C166.211 114.909 166.47 114.625 166.804 114.61C167.126 114.596 167.421 114.851 167.438 115.185C167.491 116.249 167.017 118.298 164.846 118.43C164.777 118.434 164.708 118.436 164.642 118.436Z" fill="#161616"/>
<path d="M164.682 115.775C164.993 115.775 165.245 115.523 165.245 115.212C165.245 114.9 164.993 114.648 164.682 114.648C164.371 114.648 164.118 114.9 164.118 115.212C164.118 115.523 164.371 115.775 164.682 115.775Z" fill="#161616"/>
<path d="M179.188 93.2457L180.666 114.784C180.666 114.784 180.53 117.268 178.381 117.235C176.232 117.203 176.188 114.723 176.188 114.723L175.168 92.4071C175.168 92.4069 178.309 92.9525 179.188 93.2457Z" fill="#946D42"/>
<path d="M178.515 117.838C178.498 117.838 178.48 117.838 178.462 117.837C176.288 117.804 175.721 115.765 175.726 114.699C175.727 114.364 175.999 114.079 176.333 114.079C176.333 114.079 176.334 114.079 176.335 114.079C176.67 114.079 176.941 114.368 176.939 114.703C176.94 114.894 176.99 116.594 178.481 116.617C180.005 116.638 180.093 114.835 180.096 114.758C180.107 114.423 180.385 114.163 180.722 114.173C181.057 114.184 181.32 114.465 181.309 114.8C181.274 115.856 180.644 117.838 178.515 117.838Z" fill="#161616"/>
<path d="M178.48 115.178C178.791 115.178 179.043 114.926 179.043 114.615C179.043 114.304 178.791 114.052 178.48 114.052C178.169 114.052 177.917 114.304 177.917 114.615C177.917 114.926 178.169 115.178 178.48 115.178Z" fill="#161616"/>
<path d="M164.914 92.9952L166.668 98.2307L169.085 92.0884C169.085 92.0881 166.495 92.4622 164.914 92.9952Z" fill="#F9FCF7"/>
<path d="M166.668 98.7882C166.663 98.7882 166.657 98.7882 166.652 98.7882C166.397 98.7882 166.173 98.6409 166.092 98.3989L164.339 93.1757C164.233 92.8583 164.403 92.5209 164.72 92.4141C166.335 91.8696 168.891 91.5002 168.998 91.4847C169.213 91.4534 169.427 91.5405 169.561 91.7102C169.695 91.8798 169.729 92.1087 169.65 92.3099L167.232 98.428C167.141 98.6603 166.917 98.7882 166.668 98.7882ZM165.688 93.3937L166.714 96.4569L168.129 92.8604C167.429 92.9852 166.492 93.1709 165.688 93.3937Z" fill="#161616"/>
<path d="M177.031 92.5225L175.487 97.8234L172.828 91.7817C172.827 91.7817 175.43 92.0526 177.031 92.5225Z" fill="#F9FCF7"/>
<path d="M175.487 98.4302C175.247 98.4302 175.029 98.2889 174.931 98.0678L172.272 92.0262C172.185 91.8284 172.21 91.599 172.337 91.4242C172.464 91.2495 172.673 91.1555 172.89 91.1781C172.999 91.1895 175.567 91.4602 177.202 91.94C177.523 92.0344 177.707 92.3706 177.614 92.692L176.07 97.9928C175.998 98.2377 175.781 98.412 175.527 98.4285C175.513 98.4297 175.5 98.4302 175.487 98.4302ZM173.813 92.5155L175.371 96.053L176.274 92.9515C175.462 92.7607 174.518 92.6124 173.813 92.5155Z" fill="#161616"/>
<path d="M172.136 130.985C167.141 130.985 164.617 128.774 163.379 126.92C162.037 124.91 161.894 122.911 161.888 122.827C161.878 122.665 161.932 122.506 162.04 122.385C162.147 122.264 162.298 122.191 162.46 122.182L181.395 121.137C181.702 121.115 181.983 121.344 182.028 121.654C182.05 121.798 182.523 125.206 180.293 127.896C178.713 129.802 176.209 130.836 172.851 130.97C172.608 130.98 172.369 130.985 172.136 130.985ZM163.187 123.357C163.531 125.126 165.177 130.057 172.803 129.758C175.802 129.638 178.008 128.751 179.359 127.122C180.76 125.431 180.893 123.354 180.867 122.382L163.187 123.357Z" fill="#161616"/>
<path d="M170.791 90.641C168.211 90.641 166.067 89.9087 164.407 88.4584C161.409 85.8392 161.11 81.8507 161.099 81.6823C161.077 81.3481 161.33 81.0587 161.664 81.0364C161.997 81.0175 162.287 81.2665 162.31 81.6005C162.334 81.9432 162.998 89.9849 171.692 89.3963C178.745 88.9176 178.826 83.384 178.826 83.1486C178.826 82.8134 179.098 82.5418 179.433 82.5418C179.768 82.5418 180.04 82.8134 180.04 83.1486C180.04 85.5343 178.313 90.1633 171.774 90.607C171.44 90.6296 171.112 90.641 170.791 90.641Z" fill="#161616"/>
<path d="M166.833 93.0153C166.825 93.0153 166.817 93.0153 166.808 93.0148C166.473 93.0009 166.213 92.7184 166.226 92.3837L166.323 90.0091C166.337 89.6744 166.62 89.413 166.954 89.4276C167.289 89.4414 167.55 89.7239 167.536 90.0587L167.439 92.4332C167.426 92.7597 167.157 93.0153 166.833 93.0153Z" fill="#161616"/>
<path d="M174.537 92.0243C174.236 92.0243 173.975 91.8009 173.935 91.4946L173.709 89.7339C173.666 89.4014 173.901 89.0973 174.233 89.0548C174.562 89.0111 174.87 89.2468 174.913 89.5793L175.139 91.34C175.182 91.6725 174.947 91.9767 174.614 92.0192C174.589 92.0226 174.563 92.0243 174.537 92.0243Z" fill="#161616"/>
<path d="M171.241 112.988C170.906 112.988 170.634 112.716 170.634 112.381V91.7494C170.634 91.4142 170.906 91.1426 171.241 91.1426C171.576 91.1426 171.848 91.4142 171.848 91.7494V112.381C171.848 112.716 171.576 112.988 171.241 112.988Z" fill="#161616"/>
<path d="M160.173 95.4087C160.067 95.4087 159.96 95.381 159.863 95.3228L150.29 89.6086C150.103 89.4972 149.991 89.2945 149.994 89.0773C149.998 88.8598 150.118 88.6612 150.308 88.5564L160.497 82.9395C160.79 82.7779 161.159 82.8842 161.321 83.1779C161.483 83.4713 161.376 83.8405 161.083 84.0022L151.82 89.1086L160.485 94.2808C160.772 94.4526 160.866 94.8249 160.695 95.1128C160.581 95.3031 160.38 95.4087 160.173 95.4087Z" fill="#161616"/>
<path d="M158.419 105.959C158.298 105.959 158.176 105.923 158.069 105.847L140.454 93.3703C140.428 93.3516 140.403 93.3307 140.38 93.3079C140.24 93.1703 136.965 89.8967 138.564 86.5403C140.051 83.4203 154.825 76.976 156.505 76.2515C156.811 76.119 157.169 76.2605 157.302 76.5682C157.435 76.876 157.293 77.2331 156.985 77.3658C156.945 77.3833 152.898 79.1321 148.733 81.2229C141.27 84.9687 139.902 86.5544 139.66 87.0624C138.499 89.4981 140.897 92.0979 141.199 92.411L158.77 104.857C159.044 105.051 159.109 105.429 158.915 105.703C158.796 105.87 158.609 105.959 158.419 105.959Z" fill="#161616"/>
<path d="M141.487 93.965C141.258 93.965 141.04 93.8358 140.937 93.6155C140.794 93.3121 140.925 92.9506 141.229 92.8087L150.344 88.5382C150.648 88.3962 151.009 88.527 151.151 88.8302C151.293 89.1336 151.162 89.495 150.859 89.637L141.743 93.9075C141.66 93.9465 141.573 93.965 141.487 93.965Z" fill="#161616"/>
<path d="M146.814 97.7386C146.642 97.7386 146.471 97.666 146.351 97.5245C146.134 97.2689 146.165 96.8861 146.421 96.6691L153.548 90.618C153.803 90.4013 154.186 90.4321 154.403 90.6879C154.62 90.9435 154.589 91.3263 154.333 91.5433L147.207 97.5944C147.093 97.691 146.953 97.7386 146.814 97.7386Z" fill="#161616"/>
<path d="M183.438 94.8205C183.231 94.8205 183.03 94.7149 182.916 94.5246C182.745 94.2368 182.839 93.8644 183.126 93.6926L191.791 88.5204L182.528 83.414C182.235 83.2521 182.128 82.8831 182.29 82.5897C182.452 82.2962 182.821 82.1894 183.114 82.3513L193.303 87.9682C193.493 88.0733 193.613 88.2718 193.617 88.4891C193.621 88.7065 193.508 88.909 193.321 89.0204L183.748 94.7346C183.651 94.7928 183.544 94.8205 183.438 94.8205Z" fill="#161616"/>
<path d="M185.192 105.371C185.002 105.371 184.815 105.282 184.697 105.115C184.503 104.842 184.568 104.463 184.841 104.269L202.412 91.8237C202.711 91.5116 205.108 88.9006 203.952 86.4744C203.71 85.9666 202.341 84.3809 194.879 80.6352C190.713 78.5443 186.666 76.7955 186.626 76.7781C186.318 76.6453 186.176 76.2882 186.309 75.9805C186.442 75.6727 186.8 75.5309 187.107 75.6637C188.786 76.3882 203.561 82.8325 205.047 85.9523C206.647 89.3086 203.372 92.5822 203.232 92.7201C203.209 92.7429 203.184 92.7638 203.158 92.7825L185.543 105.26C185.436 105.335 185.314 105.371 185.192 105.371Z" fill="#161616"/>
<path d="M202.125 93.377C202.039 93.377 201.951 93.3585 201.868 93.3194L192.752 89.0487C192.449 88.9067 192.318 88.5453 192.46 88.2419C192.602 87.9385 192.963 87.8074 193.267 87.9499L202.382 92.2206C202.686 92.3626 202.817 92.724 202.674 93.0274C202.572 93.2476 202.353 93.377 202.125 93.377Z" fill="#161616"/>
<path d="M196.797 97.1506C196.658 97.1506 196.519 97.1033 196.405 97.0065L189.278 90.9554C189.023 90.7384 188.991 90.3556 189.209 90.1C189.426 89.8447 189.808 89.8136 190.064 90.0301L197.19 96.0812C197.446 96.2982 197.477 96.681 197.26 96.9366C197.14 97.0781 196.969 97.1506 196.797 97.1506Z" fill="#161616"/>
<path d="M172.442 84.2044C164.222 84.2044 157.534 78.5912 157.534 71.6916C157.534 64.7917 164.222 59.1785 172.442 59.1785C180.662 59.1785 187.349 64.7917 187.349 71.6916C187.349 78.5912 180.662 84.2044 172.442 84.2044ZM172.442 60.3921C164.891 60.3921 158.748 65.4611 158.748 71.6916C158.748 77.922 164.891 82.9908 172.442 82.9908C179.993 82.9908 186.136 77.922 186.136 71.6916C186.136 65.4609 179.993 60.3921 172.442 60.3921Z" fill="#161616"/>
<path d="M172.815 78.9272C170.833 78.9272 168.882 78.2966 167.321 77.1517C165.521 75.8306 164.386 73.9167 164.207 71.9007C164.042 70.0482 164.679 68.2642 165.999 66.8772C167.472 65.3289 169.667 64.4406 172.021 64.4406C174.003 64.4406 175.954 65.0711 177.515 66.2161C179.315 67.5372 180.45 69.4511 180.629 71.4669C180.794 73.3194 180.157 75.1034 178.837 76.4903C177.364 78.0391 175.169 78.9272 172.815 78.9272ZM172.021 65.6544C169.998 65.6544 168.123 66.4052 166.878 67.7139C165.802 68.8445 165.283 70.2931 165.416 71.7934C165.564 73.4621 166.521 75.0585 168.04 76.1731C169.394 77.1663 171.089 77.7134 172.815 77.7134C174.838 77.7134 176.713 76.9626 177.958 75.6536C179.034 74.523 179.554 73.0742 179.42 71.5739C179.272 69.9055 178.316 68.3091 176.797 67.1945C175.443 66.2015 173.747 65.6544 172.021 65.6544Z" fill="#161616"/>
<path d="M174.715 77.5701C172.654 77.5701 170.558 76.865 168.813 75.5844C166.825 74.1252 165.581 72.119 165.4 70.0799C165.265 68.5622 165.751 67.1376 166.769 66.0684C167.927 64.8507 169.665 64.1801 171.661 64.1801C173.722 64.1801 175.818 64.8852 177.563 66.1658C179.551 67.6248 180.795 69.6306 180.976 71.6695C181.111 73.1873 180.625 74.6121 179.607 75.6815C178.448 76.8995 176.711 77.5701 174.715 77.5701ZM171.66 65.3939C170 65.3939 168.575 65.9306 167.648 66.9053C166.863 67.7301 166.503 68.7908 166.608 69.9729C166.758 71.6647 167.824 73.3533 169.531 74.6062C171.069 75.7349 172.91 76.3568 174.715 76.3568C176.375 76.3568 177.8 75.8198 178.728 74.8451C179.513 74.0203 179.872 72.9594 179.767 71.777C179.617 70.0855 178.551 68.3971 176.845 67.1444C175.306 66.0155 173.465 65.3939 171.66 65.3939Z" fill="#161616"/>
<path d="M171.12 87.1376H169.77C169.582 87.1376 169.405 87.0507 169.29 86.9024C169.175 86.7541 169.135 86.5609 169.182 86.3791L169.612 84.7138C169.696 84.3893 170.026 84.1944 170.352 84.2779C170.676 84.3616 170.871 84.6924 170.788 85.017L170.553 85.924H171.12C171.455 85.924 171.726 86.1956 171.726 86.5308C171.726 86.866 171.455 87.1376 171.12 87.1376Z" fill="#161616"/>
<path d="M173.216 88.0828C173.314 88.619 175.847 88.0015 176.194 87.033C176.54 86.0645 174.843 85.2832 174.114 85.5772C173.383 85.8706 172.974 86.7675 173.216 88.0828Z" fill="#161616"/>
<path d="M77.6129 148.962C77.9108 149.78 77.4889 150.684 76.6714 150.981C75.8534 151.279 74.9493 150.857 74.6517 150.039L49.2401 80.2019C48.9418 79.3847 49.3636 78.4803 50.1811 78.183C50.9988 77.8854 51.9035 78.307 52.2006 79.1247L77.6129 148.962Z" fill="#DEE5DC"/>
<path d="M76.1328 151.684C75.2187 151.684 74.3942 151.107 74.0815 150.247L48.6699 80.4095C48.4704 79.8627 48.4956 79.2702 48.742 78.7418C48.9883 78.2131 49.4257 77.8122 49.9738 77.6126C50.2143 77.525 50.4656 77.4808 50.7199 77.4808C51.6345 77.4808 52.4586 78.0583 52.7709 78.9175L78.1831 148.755C78.3824 149.302 78.3566 149.895 78.1103 150.424C77.8637 150.952 77.4265 151.352 76.8787 151.552C76.6379 151.639 76.3872 151.684 76.1328 151.684ZM50.7199 78.6945C50.6073 78.6945 50.4959 78.7144 50.3886 78.7532C50.1454 78.8418 49.9512 79.0197 49.842 79.2542C49.733 79.4884 49.7216 79.751 49.8102 79.9937L75.2219 149.832C75.3607 150.214 75.727 150.47 76.1328 150.47C76.2454 150.47 76.3568 150.45 76.4641 150.411C76.7068 150.323 76.901 150.145 77.0102 149.911C77.1197 149.676 77.1311 149.413 77.0425 149.17L51.6304 79.3323C51.4918 78.9505 51.126 78.6945 50.7199 78.6945Z" fill="#161616"/>
<path d="M52.7651 92.0002L56.9763 90.3223C56.9763 90.3223 53.3073 69.7566 47.3244 70.3066C41.3408 70.8566 52.7651 92.0002 52.7651 92.0002Z" fill="#946D42"/>
<path d="M75.5139 143.578C75.5139 143.578 79.3944 150.878 84.4563 150.105C89.089 149.397 95.7561 170.407 95.7561 170.407C95.7561 170.407 94.6796 173.593 93.658 171.171C92.6368 168.747 87.0933 156.485 85.376 156.756C83.6588 157.028 89.7967 172.461 89.7967 172.461C89.7967 172.461 89.6404 176.641 87.7348 174.092C85.8292 171.542 81.5189 158.161 79.6228 158.71C77.7273 159.261 83.8056 175.632 83.8056 175.632C83.8056 175.632 83.3995 178.689 81.9449 176.995C80.4907 175.301 75.6035 159.568 73.3304 161.001C71.6376 162.066 76.8776 177.277 76.8776 177.277C76.8776 177.277 77.1885 182.74 74.7775 178.033C73.6581 175.848 67.1349 162.568 68.3599 156.941C68.9874 154.058 74.8319 153.608 72.6765 144.611L75.5139 143.578Z" fill="#52BD95"/>
<path d="M76.2979 180.552C75.6503 180.552 75.0534 179.902 74.2376 178.309C73.4364 176.746 66.4499 162.862 67.7671 156.811C68.0038 155.723 68.8108 154.967 69.6652 154.166C71.3667 152.571 73.484 150.586 72.0864 144.752C72.0145 144.453 72.1793 144.147 72.4689 144.041L75.3063 143.008C75.5903 142.905 75.9076 143.026 76.0496 143.293C76.0831 143.355 79.4365 149.556 83.7019 149.556C83.9228 149.556 84.1456 149.539 84.3645 149.506C84.4706 149.49 84.5796 149.481 84.6881 149.481C87.9748 149.481 91.3894 157.404 92.5115 160.007C94.6878 165.057 96.3179 170.173 96.3339 170.224C96.373 170.347 96.3718 170.479 96.3303 170.602C96.1186 171.228 95.5155 172.686 94.4907 172.687H94.4904C93.638 172.687 93.2317 171.723 93.0984 171.407C89.9768 163.998 86.799 158.581 85.6629 157.533C85.6687 159.348 87.9913 166.281 90.3603 172.237C90.3913 172.316 90.4059 172.4 90.4027 172.484C90.3763 173.197 90.1821 175.523 88.8042 175.523C88.2872 175.523 87.793 175.184 87.2486 174.456C86.4714 173.416 85.4114 170.901 84.1839 167.989C83.0072 165.197 80.87 160.126 79.8669 159.381C79.5562 160.963 81.8931 168.738 84.3742 175.421C84.4087 175.514 84.4199 175.614 84.407 175.712C84.332 176.276 83.9915 178.113 82.7502 178.114C82.7499 178.114 82.7499 178.114 82.7499 178.114C82.3159 178.114 81.9021 177.877 81.4844 177.391C80.9487 176.767 80.2028 174.958 78.9304 171.814C77.9882 169.486 76.9205 166.848 75.9025 164.792C74.4859 161.932 73.8184 161.568 73.6714 161.522C73.2262 162.458 74.5209 168.573 77.451 177.079C77.4692 177.132 77.4802 177.187 77.4833 177.243C77.5231 177.942 77.5523 179.635 76.9663 180.255C76.7857 180.446 76.5481 180.552 76.2979 180.552ZM73.3864 144.998C74.6913 151.118 72.2735 153.384 70.4951 155.051C69.721 155.777 69.1094 156.351 68.9528 157.069C67.7045 162.805 75.0061 177.148 75.3178 177.756C75.7226 178.546 76.0044 178.95 76.1767 179.154C76.2629 178.76 76.3068 178.056 76.2763 177.393C76.0797 176.817 74.8874 173.293 73.885 169.701C71.5665 161.394 72.5039 160.804 73.0073 160.487C73.2024 160.364 73.4158 160.302 73.641 160.302C75.3003 160.302 76.961 163.713 80.0557 171.358C80.9984 173.688 81.9732 176.097 82.4055 176.6C82.5793 176.802 82.6892 176.869 82.7351 176.891C82.8888 176.761 83.0907 176.217 83.182 175.695C81.8252 172.029 77.7964 160.735 78.8431 158.657C79.0144 158.316 79.2698 158.181 79.4537 158.127C79.5467 158.101 79.6428 158.087 79.7402 158.087C81.1715 158.087 82.6011 161.107 85.3029 167.517C86.4498 170.238 87.5328 172.808 88.2211 173.728C88.5151 174.122 88.6991 174.251 88.776 174.292C88.9551 174.083 89.1396 173.303 89.1845 172.562C88.9268 171.909 87.6944 168.76 86.5672 165.488C83.9371 157.856 84.4182 157.011 84.6495 156.605C84.79 156.358 85.0145 156.199 85.2815 156.157C85.3313 156.149 85.3818 156.145 85.4342 156.145C86.2187 156.145 87.3607 156.949 90.3746 162.784C92.1846 166.288 93.796 169.934 94.2176 170.935C94.3453 171.238 94.4485 171.379 94.5057 171.441C94.6752 171.299 94.9383 170.847 95.1157 170.394C92.6523 162.692 87.7046 150.695 84.689 150.695C84.6417 150.695 84.5944 150.698 84.5488 150.705C84.2694 150.748 83.9849 150.77 83.7029 150.77C79.4113 150.77 76.1653 145.88 75.241 144.323L73.3864 144.998Z" fill="#161616"/>
<path d="M51.8029 176.106L54.4767 174.913C54.4767 174.913 56.5343 179.311 57.3566 180.233C58.1794 181.155 66.2633 189.175 59.0275 190.829C59.0275 190.829 56.6964 191.358 55.0063 186.324C53.3162 181.29 51.8029 176.106 51.8029 176.106Z" fill="#161616"/>
<path d="M54.6649 175.311L54.4452 174.878L52.2262 170.51C52.2262 170.51 43.7897 166.432 45.5826 160.938C47.3756 155.443 55.2974 150.708 62.0793 154.467C62.0793 154.467 53.1228 144.394 43.3333 155.625C33.6458 166.74 49.847 174.264 49.847 174.264C49.847 174.264 51.2874 174.374 51.8032 176.106L54.6649 175.311Z" fill="#DEE5DC"/>
<path d="M51.8027 176.712C51.5408 176.712 51.2998 176.542 51.2211 176.279C50.8291 174.962 49.8109 174.869 49.8005 174.868C49.7279 174.863 49.657 174.844 49.5912 174.814C49.2485 174.654 41.1823 170.842 39.828 164.474C39.1755 161.406 40.2008 158.294 42.8756 155.226C46.0676 151.564 49.5252 149.707 53.153 149.707C58.3385 149.707 62.0124 153.498 62.4859 154.011C62.6117 154.122 62.6908 154.285 62.6908 154.466C62.6908 154.8 62.4204 155.071 62.0862 155.072C61.983 155.076 61.8798 155.049 61.7852 154.996C60.2631 154.153 58.6198 153.726 56.9006 153.726C51.6886 153.726 47.3465 157.488 46.1596 161.125C44.5526 166.05 52.4112 169.925 52.4906 169.963C52.6098 170.021 52.7073 170.117 52.7673 170.235L55.2062 175.036C55.2885 175.198 55.2935 175.388 55.2205 175.555C55.1469 175.722 55.003 175.846 54.8275 175.895L51.9656 176.69C51.911 176.705 51.8566 176.712 51.8027 176.712ZM50.0262 173.676C50.4155 173.743 51.5471 174.049 52.1724 175.373L53.7884 174.924L51.7758 170.963C50.4689 170.291 43.2047 166.269 45.0057 160.749C46.513 156.13 51.7376 152.512 56.9006 152.512C57.5829 152.512 58.2543 152.572 58.9125 152.691C57.4346 151.776 55.4404 150.921 53.153 150.921C49.8917 150.921 46.7419 152.637 43.7907 156.023C41.3811 158.788 40.4474 161.544 41.0144 164.218C42.1744 169.684 49.2097 173.276 50.0262 173.676Z" fill="#161616"/>
<path d="M214.507 140.423C214.507 140.423 213.737 141.683 215.487 141.941L213.63 154.123C213.63 154.123 212.644 158.156 216.046 158.181C219.448 158.205 235.959 158.564 235.959 158.564L238.283 133.917L215.839 134.248L214.507 140.423Z" fill="#F7F9F7"/>
<path d="M243.892 155.764L239.818 134.001L238.283 133.917L236.676 150.958L236.442 159.324L243.892 155.764Z" fill="#F7F9F7"/>
<path d="M235.959 159.226C235.955 159.226 235.95 159.226 235.946 159.226C235.781 159.226 219.4 158.84 216.041 158.816C214.958 158.808 214.13 158.433 213.581 157.728C212.541 156.393 212.969 154.299 213.034 154.015L214.804 142.401C214.346 142.238 214.03 141.971 213.859 141.607C213.586 141.024 213.819 140.437 213.936 140.205L215.249 134.833C215.328 134.507 215.658 134.308 215.982 134.387C216.308 134.467 216.507 134.795 216.428 135.12L215.096 140.567C215.081 140.628 215.057 140.686 215.025 140.74C214.974 140.827 214.918 141.009 214.958 141.092C214.996 141.17 215.181 141.282 215.576 141.34C215.735 141.364 215.879 141.45 215.975 141.58C216.071 141.709 216.111 141.872 216.087 142.032L214.23 154.214C214.227 154.232 214.224 154.249 214.219 154.267C214.102 154.754 213.931 156.192 214.54 156.97C214.854 157.371 215.348 157.569 216.05 157.574C219.06 157.595 232.48 157.882 235.408 157.944L237.679 133.86C237.709 133.535 237.988 133.287 238.316 133.31L239.851 133.395C240.13 133.41 240.363 133.614 240.414 133.889L244.488 155.652C244.541 155.934 244.389 156.215 244.123 156.325L238.211 158.764C237.902 158.892 237.547 158.744 237.419 158.435C237.291 158.125 237.439 157.77 237.748 157.642L243.205 155.391L239.309 134.581L238.832 134.555L236.563 158.648C236.534 158.961 236.272 159.226 235.959 159.226Z" fill="#161616"/>
<path d="M243.893 156.371C243.833 156.371 243.772 156.362 243.712 156.344L236.261 154.021C235.941 153.921 235.763 153.581 235.863 153.261C235.963 152.941 236.303 152.763 236.623 152.862L244.073 155.185C244.393 155.285 244.571 155.625 244.472 155.945C244.391 156.205 244.151 156.371 243.893 156.371Z" fill="#161616"/>
<path d="M212.192 134.468C211.987 134.468 211.796 134.39 211.684 134.218C211.572 134.046 211.554 133.842 211.637 133.654L214.711 126.693C214.808 126.471 215.039 126.334 215.271 126.334L238.822 126.519C239.002 126.52 239.172 126.603 239.287 126.742C239.401 126.881 239.447 127.065 239.413 127.242L238.11 133.99C238.055 134.275 237.805 134.457 237.515 134.457L212.193 134.468C212.193 134.468 212.192 134.468 212.192 134.468ZM215.66 127.554L213.124 133.303L237.013 133.269L238.083 127.728L215.66 127.554Z" fill="#161616"/>
<path d="M238.364 133.921L239.818 134.001L238.817 127.127L238.364 133.921Z" fill="#161616"/>
<path d="M239.818 134.608C239.807 134.608 239.796 134.608 239.785 134.607L238.331 134.527C238.169 134.519 238.017 134.445 237.91 134.324C237.802 134.202 237.748 134.043 237.759 133.881L238.212 127.087C238.232 126.777 238.483 126.533 238.793 126.521C239.109 126.511 239.373 126.733 239.417 127.04L240.418 133.914C240.444 134.094 240.389 134.276 240.266 134.411C240.15 134.537 239.988 134.608 239.818 134.608ZM239.01 133.349L239.111 133.355L239.042 132.88L239.01 133.349Z" fill="#161616"/>
<path d="M224.433 152.997C224.404 152.997 224.375 152.995 224.346 152.991C224.022 152.945 223.793 152.65 223.829 152.324C223.836 152.257 224.549 145.57 222.198 142.638C221.989 142.377 222.031 141.995 222.292 141.785C222.554 141.576 222.935 141.618 223.145 141.879C224.487 143.552 224.965 146.145 225.105 148.346C225.869 146.747 227.034 145.16 228.747 144.664C229.069 144.571 229.406 144.756 229.499 145.078C229.592 145.4 229.407 145.737 229.085 145.83C227.557 146.272 226.543 148.018 225.962 149.404C225.298 150.986 225.033 152.48 225.03 152.495C224.978 152.789 224.723 152.997 224.433 152.997Z" fill="#946D42"/>
<path d="M218.799 137.114C218.799 137.114 218.874 148.103 223.792 144.624C227.321 142.127 221.093 137.553 218.799 137.114Z" fill="#946D42"/>
<path d="M227.321 146.04C227.299 146.134 231.342 148.434 232.771 143.159C232.771 143.159 228.575 140.789 227.321 146.04Z" fill="#946D42"/>
<path d="M214.082 132.041H213.354C213.018 132.041 212.747 131.77 212.747 131.434C212.747 131.099 213.018 130.828 213.354 130.828H214.082C214.417 130.828 214.689 131.099 214.689 131.434C214.689 131.77 214.417 132.041 214.082 132.041Z" fill="#161616"/>
<path d="M234.713 132.041H233.014C232.679 132.041 232.407 131.77 232.407 131.435C232.407 131.099 232.679 130.828 233.014 130.828H234.713C235.048 130.828 235.32 131.099 235.32 131.435C235.32 131.77 235.048 132.041 234.713 132.041ZM230.587 132.041H228.888C228.553 132.041 228.281 131.77 228.281 131.435C228.281 131.099 228.553 130.828 228.888 130.828H230.587C230.922 130.828 231.194 131.099 231.194 131.435C231.194 131.77 230.922 132.041 230.587 132.041ZM226.461 132.041H224.762C224.426 132.041 224.155 131.77 224.155 131.435C224.155 131.099 224.426 130.828 224.762 130.828H226.461C226.796 130.828 227.067 131.099 227.067 131.435C227.067 131.77 226.796 132.041 226.461 132.041ZM222.334 132.041H220.635C220.3 132.041 220.028 131.77 220.028 131.435C220.028 131.099 220.3 130.828 220.635 130.828H222.334C222.67 130.828 222.941 131.099 222.941 131.435C222.941 131.77 222.67 132.041 222.334 132.041ZM218.208 132.041H216.509C216.174 132.041 215.902 131.77 215.902 131.435C215.902 131.099 216.174 130.828 216.509 130.828H218.208C218.543 130.828 218.815 131.099 218.815 131.435C218.815 131.77 218.543 132.041 218.208 132.041Z" fill="#161616"/>
<path d="M238.111 132.041H237.14C236.805 132.041 236.534 131.77 236.534 131.435C236.534 131.099 236.805 130.828 237.14 130.828H238.111C238.447 130.828 238.718 131.099 238.718 131.435C238.718 131.77 238.447 132.041 238.111 132.041Z" fill="#161616"/>
<path d="M233.295 90.9909L227.576 109.952C227.576 109.952 225.297 116.211 230.919 117.313C236.542 118.415 246.893 119.383 253.74 116.953C253.74 116.953 257.478 115.987 256.165 109.806C254.852 103.625 252.878 91.4458 252.878 91.4458C252.878 91.4458 250.491 86.0554 242.644 85.786C234.798 85.5168 233.295 90.9909 233.295 90.9909Z" fill="#F9D0C7"/>
<path d="M244.324 93.4122C238.448 93.4122 233.589 91.5524 233.298 91.4391C232.986 91.3172 232.832 90.9655 232.953 90.6534C233.075 90.341 233.428 90.1874 233.739 90.3085C233.837 90.3468 243.674 94.103 252.002 90.865C252.315 90.7434 252.666 90.8985 252.787 91.2107C252.909 91.5228 252.754 91.8745 252.442 91.9961C249.743 93.0454 246.933 93.4122 244.324 93.4122Z" fill="#161616"/>
<path d="M246.908 87.5302C246.851 87.5302 246.793 87.5222 246.736 87.5052C246.415 87.4103 246.231 87.0726 246.326 86.7513C246.33 86.7384 246.745 85.2546 246.005 84.1714C245.528 83.4738 244.65 83.0614 243.395 82.9454C242.038 82.8211 241.047 83.0646 240.449 83.6716C239.675 84.4571 239.78 85.6498 239.781 85.6617C239.817 85.995 239.576 86.294 239.243 86.3299C238.91 86.3687 238.61 86.1248 238.575 85.7918C238.567 85.7202 238.399 84.0233 239.584 82.8199C240.45 81.9407 241.771 81.5762 243.506 81.7369C245.144 81.8881 246.324 82.4801 247.013 83.4966C248.073 85.0602 247.514 87.0124 247.49 87.095C247.412 87.3593 247.17 87.5302 246.908 87.5302Z" fill="#161616"/>
<path d="M256.166 110.413C255.998 110.413 255.831 110.344 255.711 110.208C255.489 109.957 255.513 109.574 255.764 109.352L263.53 102.484C263.558 102.46 263.589 102.437 263.621 102.418C263.704 102.368 265.701 101.12 265.217 98.8338C264.762 96.6786 262.195 97.1245 262.086 97.1442C262.045 97.1517 262.001 97.1546 261.962 97.1541L253.712 96.9626C253.377 96.9548 253.112 96.6769 253.12 96.3417C253.127 96.0068 253.402 95.7405 253.74 95.7492L261.931 95.9395C263.275 95.715 265.855 95.9861 266.405 98.5828C266.928 101.056 265.282 102.813 264.295 103.429L256.568 110.261C256.452 110.363 256.309 110.413 256.166 110.413Z" fill="#161616"/>
<path d="M256.75 106.9C256.58 106.9 256.412 106.829 256.292 106.692C256.072 106.439 256.098 106.056 256.35 105.836L260.682 102.056C260.708 102.034 260.736 102.013 260.766 101.995C260.802 101.972 261.756 101.357 261.529 100.282C261.334 99.3631 260.223 99.509 260.096 99.5289C260.061 99.5345 260.02 99.5367 259.985 99.5367L255.354 99.4292C255.019 99.4214 254.754 99.1435 254.762 98.8083C254.769 98.4733 255.052 98.2073 255.382 98.2158L259.96 98.3221C260.797 98.2029 262.374 98.4126 262.716 100.03C263.088 101.789 261.739 102.803 261.449 102.998L257.149 106.75C257.033 106.85 256.891 106.9 256.75 106.9Z" fill="#161616"/>
<path d="M227.576 110.559C227.344 110.559 227.122 110.425 227.022 110.199L218.731 91.6291C218.608 91.3548 218.705 91.032 218.958 90.8704L221.027 89.5495C221.257 89.4029 221.556 89.4274 221.759 89.6087L230.861 97.7586C231.111 97.9821 231.132 98.3656 230.908 98.6154C230.685 98.8652 230.301 98.886 230.052 98.6627L221.292 90.8201L220.052 91.6119L228.13 109.705C228.267 110.011 228.13 110.37 227.823 110.506C227.743 110.542 227.659 110.559 227.576 110.559Z" fill="#161616"/>
<path d="M213.72 91.2467C212.92 91.2467 212.527 90.921 212.337 90.648C212.022 90.1931 211.881 89.344 213.002 87.8836C213.74 86.9219 214.876 85.8867 216.201 84.969C218.178 83.5988 220.205 82.7478 221.492 82.7478C222.292 82.7478 222.685 83.0733 222.874 83.3464C223.84 84.7403 221.549 87.2675 219.011 89.0258C217.034 90.3958 215.006 91.2467 213.72 91.2467ZM221.492 83.9614C220.642 83.9614 218.891 84.5816 216.892 85.9666C215.668 86.8146 214.629 87.7576 213.965 88.6222C213.29 89.5021 213.304 89.9123 213.335 89.9567C213.345 89.972 213.447 90.0331 213.719 90.0331C214.569 90.0331 216.321 89.4132 218.32 88.028C221.122 86.086 222.06 84.3024 221.876 84.0374C221.866 84.0226 221.765 83.9614 221.492 83.9614Z" fill="#161616"/>
<path d="M216.694 92.6538C214.294 92.6538 212.855 91.0096 212.835 90.9851C212.617 90.7297 212.648 90.347 212.903 90.1297C213.159 89.9125 213.541 89.9431 213.759 90.1987C213.853 90.3072 216.153 92.8771 219.887 90.2892C223.665 87.6705 221.912 84.118 221.835 83.968C221.683 83.6694 221.801 83.3041 222.1 83.1517C222.399 82.9995 222.764 83.1179 222.916 83.4165C223.731 85.0136 224.291 88.7137 220.578 91.2868C219.109 92.3043 217.799 92.6536 216.694 92.6538Z" fill="#161616"/>
<path d="M252.221 108.78C251.932 108.78 251.676 108.573 251.624 108.279L249.326 95.2649C249.268 94.935 249.489 94.6202 249.818 94.562C250.148 94.5042 250.463 94.7238 250.521 95.0539L252.819 108.068C252.878 108.398 252.657 108.713 252.327 108.771C252.292 108.778 252.256 108.78 252.221 108.78Z" fill="#DEE5DC"/>
<path d="M253.321 113.716C253.04 113.716 252.788 113.519 252.728 113.233L252.356 111.453C252.288 111.125 252.498 110.803 252.826 110.735C253.155 110.667 253.476 110.876 253.544 111.205L253.916 112.984C253.985 113.313 253.775 113.634 253.446 113.703C253.404 113.711 253.363 113.716 253.321 113.716Z" fill="#DEE5DC"/>
<path d="M273.968 214.365C273.694 214.365 273.453 214.18 273.382 213.913L260.988 167.167C260.941 166.989 260.977 166.798 261.087 166.649C261.197 166.501 261.369 166.411 261.554 166.405L295.697 165.254C295.977 165.24 296.232 165.432 296.304 165.705L308.602 212.186C308.649 212.364 308.613 212.554 308.504 212.702C308.395 212.85 308.225 212.94 308.041 212.948L273.994 214.364C273.985 214.364 273.977 214.365 273.968 214.365ZM262.356 167.592L274.43 213.131L307.235 211.767L295.254 166.483L262.356 167.592Z" fill="#161616"/>
<path d="M269.179 224.478C268.904 224.478 268.662 224.292 268.593 224.024L258.24 184.299C258.219 184.217 258.215 184.132 258.228 184.049L260.975 167.068C261.029 166.737 261.339 166.511 261.671 166.566C262.002 166.619 262.227 166.931 262.173 167.262L259.446 184.116L269.644 223.247L302.535 222.047L307.472 212.073C307.62 211.772 307.984 211.649 308.285 211.798C308.585 211.947 308.708 212.311 308.559 212.611L303.462 222.91C303.363 223.109 303.163 223.238 302.941 223.247L269.202 224.477C269.194 224.477 269.187 224.478 269.179 224.478Z" fill="#161616"/>
<path d="M269.179 224.478C269.092 224.478 269.004 224.459 268.92 224.419C268.617 224.276 268.488 223.914 268.631 223.611L273.42 213.498C273.564 213.195 273.925 213.066 274.228 213.21C274.531 213.353 274.66 213.715 274.517 214.018L269.728 224.131C269.624 224.35 269.407 224.478 269.179 224.478Z" fill="#161616"/>
<path d="M273.872 181.089C277.67 181.089 280.749 178.517 280.749 175.344C280.749 172.172 277.67 169.6 273.872 169.6C270.074 169.6 266.995 172.172 266.995 175.344C266.995 178.517 270.074 181.089 273.872 181.089Z" fill="#161616"/>
<path d="M289.649 181.088C293.447 181.088 296.526 178.517 296.526 175.344C296.526 172.172 293.447 169.6 289.649 169.6C285.851 169.6 282.772 172.172 282.772 175.344C282.772 178.517 285.851 181.088 289.649 181.088Z" fill="#161616"/>
<path d="M277.756 194.438C281.554 194.438 284.633 191.866 284.633 188.694C284.633 185.522 281.554 182.95 277.756 182.95C273.958 182.95 270.879 185.522 270.879 188.694C270.879 191.866 273.958 194.438 277.756 194.438Z" fill="#161616"/>
<path d="M293.533 194.438C297.331 194.438 300.41 191.866 300.41 188.694C300.41 185.522 297.331 182.95 293.533 182.95C289.735 182.95 286.656 185.522 286.656 188.694C286.656 191.866 289.735 194.438 293.533 194.438Z" fill="#161616"/>
<path d="M280.669 208.759C284.467 208.759 287.546 206.187 287.546 203.015C287.546 199.842 284.467 197.27 280.669 197.27C276.87 197.27 273.791 199.842 273.791 203.015C273.791 206.187 276.87 208.759 280.669 208.759Z" fill="#161616"/>
<path d="M296.446 208.759C300.244 208.759 303.323 206.187 303.323 203.015C303.323 199.842 300.244 197.27 296.446 197.27C292.647 197.27 289.568 199.842 289.568 203.015C289.568 206.187 292.647 208.759 296.446 208.759Z" fill="#161616"/>
<path d="M271.442 167.165C271.442 167.165 264.568 168.531 261.009 161.977C261.009 161.977 270.873 158.274 271.442 167.165Z" fill="#21D363"/>
<path d="M275.329 164.647C275.329 164.647 268.856 161.573 275.248 152.188C275.248 152.188 281.882 160.844 275.329 164.647Z" fill="#21D363"/>
<path d="M273.872 175.951C273.574 175.951 273.314 175.732 273.271 175.429C272.82 172.22 270.823 163.952 267.044 164.266C266.71 164.29 266.418 164.044 266.39 163.71C266.364 163.376 266.612 163.083 266.946 163.056C272.636 162.601 274.401 174.742 274.473 175.26C274.52 175.592 274.289 175.899 273.957 175.945C273.928 175.949 273.9 175.951 273.872 175.951Z" fill="#161616"/>
<path d="M275.329 175.974C274.995 175.974 274.724 175.692 274.722 175.358L274.641 156.868C274.64 156.533 274.91 156.313 275.245 156.313H275.248C275.582 156.313 275.853 156.523 275.855 156.857L275.936 175.383C275.937 175.718 275.667 175.974 275.332 175.974C275.332 175.974 275.33 175.974 275.329 175.974Z" fill="#161616"/>
<path d="M273.872 175.974C273.541 175.974 273.27 175.696 273.266 175.364C273.265 175.336 273.226 173.781 272.304 171.091C272.195 170.774 272.364 170.426 272.681 170.317C272.999 170.209 273.343 170.376 273.452 170.693C274.449 173.603 274.479 175.28 274.479 175.35C274.483 175.685 274.214 175.974 273.879 175.974C273.877 175.974 273.875 175.974 273.872 175.974Z" fill="#EAEFE8"/>
<path d="M275.329 175.974C274.999 175.974 274.728 175.698 274.722 175.367L274.641 170.96C274.635 170.625 274.902 170.392 275.237 170.392C275.241 170.392 275.244 170.392 275.248 170.392C275.578 170.392 275.849 170.601 275.855 170.933L275.936 175.373C275.941 175.707 275.675 175.974 275.34 175.974C275.336 175.974 275.332 175.974 275.329 175.974Z" fill="#EAEFE8"/>
<path d="M287.704 167.165C287.704 167.165 280.831 168.531 277.271 161.977C277.271 161.977 287.135 158.274 287.704 167.165Z" fill="#21D363"/>
<path d="M291.591 164.647C291.591 164.647 285.118 161.573 291.51 152.188C291.51 152.188 298.144 160.844 291.591 164.647Z" fill="#21D363"/>
<path d="M290.134 175.951C289.836 175.951 289.576 175.732 289.534 175.429C289.082 172.22 287.077 163.952 283.307 164.266C282.972 164.29 282.68 164.044 282.653 163.71C282.626 163.376 282.874 163.083 283.208 163.056C283.314 163.048 283.419 163.043 283.522 163.043C288.958 163.043 290.664 174.752 290.736 175.26C290.782 175.592 290.551 175.898 290.219 175.945C290.19 175.949 290.162 175.951 290.134 175.951Z" fill="#161616"/>
<path d="M291.591 175.974C291.257 175.974 290.986 175.692 290.984 175.358L290.903 156.868C290.902 156.533 291.172 156.313 291.507 156.313H291.51C291.844 156.313 292.115 156.523 292.117 156.857L292.198 175.383C292.199 175.718 291.929 175.974 291.594 175.974C291.594 175.974 291.592 175.974 291.591 175.974Z" fill="#161616"/>
<path d="M290.134 175.974C289.803 175.974 289.532 175.696 289.528 175.364C289.527 175.336 289.488 173.781 288.566 171.091C288.457 170.774 288.626 170.426 288.943 170.317C289.261 170.209 289.605 170.376 289.714 170.693C290.712 173.603 290.741 175.28 290.741 175.35C290.745 175.685 290.476 175.974 290.141 175.974C290.139 175.974 290.137 175.974 290.134 175.974Z" fill="#EAEFE8"/>
<path d="M291.591 175.974C291.261 175.974 290.99 175.698 290.984 175.367L290.903 170.96C290.897 170.625 291.164 170.392 291.499 170.392C291.503 170.392 291.506 170.392 291.51 170.392C291.84 170.392 292.111 170.601 292.117 170.933L292.198 175.373C292.204 175.707 291.937 175.974 291.602 175.974C291.598 175.974 291.595 175.974 291.591 175.974Z" fill="#EAEFE8"/>
<path d="M274.355 181.971C274.355 181.971 267.481 183.337 263.921 176.783C263.921 176.783 273.785 173.08 274.355 181.971Z" fill="#21D363"/>
<path d="M278.241 179.453C278.241 179.453 271.768 176.379 278.16 166.994C278.16 166.994 284.794 175.65 278.241 179.453Z" fill="#21D363"/>
<path d="M276.784 190.757C276.486 190.757 276.227 190.538 276.184 190.235C275.732 187.026 273.728 178.761 269.957 179.072C269.623 179.096 269.33 178.85 269.303 178.516C269.276 178.182 269.525 177.89 269.859 177.862C275.552 177.401 277.313 189.549 277.386 190.066C277.432 190.398 277.201 190.705 276.869 190.751C276.841 190.755 276.812 190.757 276.784 190.757Z" fill="#161616"/>
<path d="M278.241 190.78C277.907 190.78 277.636 190.499 277.634 190.165L277.554 171.674C277.552 171.339 277.823 171.12 278.158 171.12H278.16C278.494 171.12 278.766 171.329 278.767 171.663L278.848 190.19C278.849 190.525 278.579 190.78 278.244 190.78C278.244 190.78 278.242 190.78 278.241 190.78Z" fill="#161616"/>
<path d="M276.785 190.78C276.453 190.78 276.183 190.502 276.178 190.17C276.178 190.142 276.138 188.587 275.216 185.897C275.107 185.58 275.276 185.232 275.593 185.123C275.911 185.015 276.255 185.182 276.364 185.499C277.362 188.409 277.391 190.086 277.392 190.156C277.395 190.491 277.126 190.78 276.791 190.78C276.789 190.78 276.787 190.78 276.785 190.78Z" fill="#EAEFE8"/>
<path d="M278.241 190.78C277.911 190.78 277.64 190.504 277.634 190.173L277.553 185.766C277.548 185.431 277.814 185.198 278.149 185.198C278.153 185.198 278.157 185.198 278.161 185.198C278.49 185.198 278.761 185.407 278.767 185.739L278.848 190.179C278.854 190.514 278.587 190.78 278.252 190.78C278.248 190.78 278.245 190.78 278.241 190.78Z" fill="#EAEFE8"/>
<path d="M290.617 181.971C290.617 181.971 283.743 183.337 280.183 176.783C280.183 176.783 290.047 173.08 290.617 181.971Z" fill="#21D363"/>
<path d="M294.504 179.453C294.504 179.453 288.031 176.379 294.423 166.994C294.423 166.994 301.057 175.651 294.504 179.453Z" fill="#21D363"/>
<path d="M293.047 190.757C292.749 190.757 292.489 190.538 292.446 190.235C291.995 187.026 289.995 178.761 286.219 179.072C285.885 179.096 285.593 178.851 285.565 178.516C285.538 178.182 285.787 177.89 286.121 177.863C291.81 177.401 293.575 189.549 293.648 190.066C293.695 190.398 293.464 190.705 293.132 190.751C293.103 190.755 293.074 190.757 293.047 190.757Z" fill="#161616"/>
<path d="M294.504 190.78C294.17 190.78 293.898 190.499 293.897 190.165L293.816 171.674C293.815 171.339 294.085 171.12 294.42 171.12H294.423C294.757 171.12 295.028 171.329 295.03 171.663L295.11 190.19C295.112 190.525 294.842 190.78 294.506 190.78C294.506 190.78 294.505 190.78 294.504 190.78Z" fill="#161616"/>
<path d="M293.047 190.781C292.715 190.781 292.445 190.502 292.44 190.17C292.44 190.142 292.401 188.587 291.478 185.897C291.37 185.58 291.539 185.232 291.856 185.123C292.173 185.015 292.518 185.182 292.627 185.499C293.624 188.409 293.653 190.087 293.654 190.156C293.658 190.491 293.389 190.781 293.054 190.781C293.052 190.781 293.049 190.781 293.047 190.781Z" fill="#EAEFE8"/>
<path d="M294.503 190.781C294.173 190.781 293.903 190.505 293.897 190.173L293.816 185.767C293.81 185.432 294.077 185.198 294.412 185.198C294.415 185.198 294.419 185.198 294.423 185.198C294.753 185.198 295.023 185.408 295.03 185.739L295.11 190.179C295.116 190.514 294.85 190.781 294.514 190.781C294.511 190.781 294.507 190.781 294.503 190.781Z" fill="#EAEFE8"/>
<path d="M277.996 195.806C277.996 195.806 271.122 197.172 267.562 190.619C267.562 190.619 277.426 186.916 277.996 195.806Z" fill="#21D363"/>
<path d="M281.882 193.288C281.882 193.288 275.409 190.214 281.801 180.829C281.801 180.829 288.435 189.486 281.882 193.288Z" fill="#21D363"/>
<path d="M280.425 204.592C280.127 204.592 279.867 204.373 279.825 204.07C279.373 200.861 277.374 192.593 273.598 192.907C273.266 192.931 272.971 192.686 272.944 192.351C272.917 192.017 273.166 191.725 273.5 191.698C273.605 191.689 273.71 191.685 273.813 191.685C279.249 191.685 280.955 203.393 281.027 203.901C281.073 204.233 280.842 204.54 280.51 204.586C280.482 204.59 280.453 204.592 280.425 204.592Z" fill="#161616"/>
<path d="M281.882 204.615C281.548 204.615 281.277 204.334 281.275 204L281.194 185.509C281.193 185.174 281.463 184.955 281.799 184.955H281.801C282.135 184.955 282.407 185.164 282.408 185.498L282.489 204.025C282.49 204.36 282.22 204.615 281.885 204.615C281.885 204.615 281.883 204.615 281.882 204.615Z" fill="#161616"/>
<path d="M280.425 204.616C280.094 204.616 279.824 204.337 279.819 204.005C279.818 203.977 279.779 202.422 278.857 199.732C278.748 199.415 278.917 199.067 279.234 198.958C279.552 198.85 279.896 199.017 280.005 199.334C281.003 202.244 281.032 203.922 281.033 203.991C281.036 204.326 280.767 204.616 280.432 204.616C280.43 204.616 280.428 204.616 280.425 204.616Z" fill="#EAEFE8"/>
<path d="M281.882 204.615C281.552 204.615 281.281 204.339 281.275 204.008L281.194 199.601C281.189 199.267 281.455 199.033 281.79 199.033C281.794 199.033 281.798 199.033 281.801 199.033C282.131 199.033 282.402 199.242 282.408 199.574L282.489 204.014C282.495 204.349 282.228 204.615 281.893 204.615C281.889 204.615 281.886 204.615 281.882 204.615Z" fill="#EAEFE8"/>
<path d="M294.258 195.806C294.258 195.806 287.384 197.172 283.824 190.619C283.824 190.619 293.688 186.916 294.258 195.806Z" fill="#21D363"/>
<path d="M298.144 193.288C298.144 193.288 291.671 190.214 298.064 180.829C298.064 180.829 304.697 189.486 298.144 193.288Z" fill="#21D363"/>
<path d="M296.687 204.592C296.39 204.592 296.13 204.373 296.087 204.07C295.635 200.861 293.629 192.593 289.86 192.907C289.528 192.931 289.233 192.685 289.206 192.351C289.179 192.017 289.428 191.725 289.762 191.697C295.456 191.241 297.217 203.384 297.289 203.901C297.336 204.233 297.104 204.54 296.773 204.586C296.744 204.59 296.715 204.592 296.687 204.592Z" fill="#161616"/>
<path d="M298.145 204.616C297.811 204.616 297.539 204.334 297.538 204L297.457 185.449C297.455 185.114 297.726 184.838 298.061 184.837C298.407 184.831 298.669 185.104 298.671 185.439L298.751 203.995C298.753 204.33 298.482 204.616 298.147 204.616C298.147 204.616 298.146 204.616 298.145 204.616Z" fill="#161616"/>
<path d="M296.688 204.616C296.356 204.616 296.086 204.337 296.081 204.005C296.081 203.977 296.042 202.422 295.119 199.732C295.011 199.415 295.179 199.067 295.497 198.958C295.815 198.85 296.159 199.017 296.268 199.334C297.265 202.244 297.294 203.922 297.295 203.991C297.299 204.326 297.03 204.616 296.695 204.616C296.693 204.616 296.69 204.616 296.688 204.616Z" fill="#EAEFE8"/>
<path d="M298.144 204.615C297.814 204.615 297.544 204.339 297.538 204.008L297.457 199.601C297.451 199.267 297.718 199.033 298.053 199.033C298.056 199.033 298.06 199.033 298.064 199.033C298.394 199.033 298.664 199.242 298.67 199.574L298.751 204.014C298.757 204.349 298.491 204.615 298.155 204.615C298.152 204.615 298.148 204.615 298.144 204.615Z" fill="#EAEFE8"/>
<path d="M112.219 154.534L106.959 157.608C106.959 157.608 105.746 159.388 105.423 161.168C105.099 162.948 103.966 167.748 103.966 167.748L108.092 172.333L129.047 170.877C129.047 170.877 134.751 164.011 134.003 159.515L117.882 160.844L112.219 154.534Z" fill="#52BD95"/>
<path d="M108.093 172.94C107.921 172.94 107.757 172.867 107.642 172.739L103.515 168.154C103.382 168.006 103.33 167.803 103.376 167.609C103.387 167.561 104.509 162.804 104.826 161.059C105.168 159.174 106.405 157.343 106.458 157.266C106.509 157.192 106.575 157.13 106.653 157.084L111.913 154.01C112.162 153.864 112.479 153.914 112.671 154.128L118.133 160.215L133.954 158.91C134.266 158.882 134.55 159.104 134.602 159.416C135.387 164.131 129.755 170.975 129.515 171.265C129.409 171.392 129.256 171.471 129.09 171.482L108.135 172.938C108.12 172.94 108.107 172.94 108.093 172.94ZM104.629 167.578L108.346 171.708L128.741 170.29C129.601 169.203 133.619 163.919 133.461 160.169L117.932 161.449C117.743 161.466 117.557 161.391 117.431 161.25L112.097 155.307L107.389 158.06C107.134 158.46 106.272 159.888 106.019 161.277C105.741 162.81 104.887 166.48 104.629 167.578Z" fill="#161616"/>
<path d="M123.87 110.482L129.857 105.2C129.857 105.2 130.666 102.057 126.863 102.486L121.119 108.151L110.137 155.181C110.137 155.181 108.82 159.118 111.572 159.496C114.323 159.873 113.837 154.534 113.837 154.534L123.87 110.482Z" fill="#DEE5DC"/>
<path d="M111.842 160.122C111.727 160.122 111.608 160.113 111.489 160.097C110.684 159.986 110.055 159.6 109.669 158.979C108.785 157.556 109.434 155.378 109.552 155.017L120.528 108.013C120.554 107.902 120.611 107.8 120.693 107.719L126.437 102.054C126.534 101.958 126.66 101.898 126.795 101.883C128.305 101.712 129.385 102.038 130.006 102.84C130.811 103.878 130.46 105.292 130.445 105.351C130.415 105.469 130.35 105.575 130.258 105.655L124.418 110.807L114.45 154.577C114.499 155.223 114.64 158.09 113.423 159.422C113.005 159.88 112.459 160.122 111.842 160.122ZM121.67 108.46L110.728 155.319C110.723 155.337 110.718 155.355 110.712 155.374C110.533 155.915 110.181 157.505 110.701 158.341C110.896 158.652 111.207 158.834 111.654 158.895C111.72 158.904 111.783 158.909 111.842 158.909H111.843C112.12 158.909 112.338 158.812 112.527 158.604C113.322 157.734 113.302 155.354 113.233 154.589C113.227 154.525 113.231 154.461 113.246 154.399L123.278 110.347C123.306 110.223 123.373 110.111 123.468 110.027L129.299 104.884C129.338 104.597 129.37 103.997 129.044 103.58C128.722 103.169 128.077 102.995 127.136 103.069L121.67 108.46Z" fill="#161616"/>
<path d="M129.048 171.484C129.028 171.484 129.006 171.483 128.985 171.48L111.833 169.718C111.666 169.701 111.513 169.614 111.411 169.48L109.338 166.738C109.253 166.626 109.21 166.489 109.216 166.349L109.523 158.54C109.536 158.205 109.815 157.948 110.154 157.958C110.489 157.971 110.749 158.253 110.736 158.588L110.437 166.18L112.22 168.538L129.11 170.273C129.443 170.308 129.686 170.605 129.651 170.939C129.619 171.251 129.355 171.484 129.048 171.484Z" fill="#161616"/>
<path d="M97.4532 127.066C97.118 127.066 96.8464 126.794 96.8464 126.459V123.304C96.8464 122.968 97.118 122.697 97.4532 122.697C97.7884 122.697 98.0601 122.968 98.0601 123.304V126.459C98.0601 126.794 97.7884 127.066 97.4532 127.066Z" fill="#161616"/>
<path d="M95.3071 127.892C95.0541 127.892 94.818 127.732 94.7325 127.48L93.9068 125.044C93.7993 124.726 93.9692 124.382 94.2864 124.274C94.6041 124.166 94.9485 124.337 95.0558 124.654L95.8816 127.09C95.9891 127.407 95.8192 127.752 95.502 127.859C95.4374 127.881 95.3716 127.892 95.3071 127.892Z" fill="#161616"/>
<path d="M92.3664 127.891C92.223 127.891 92.0788 127.84 91.9633 127.738L90.5948 126.52C90.3445 126.297 90.3222 125.913 90.545 125.663C90.7674 125.413 91.1511 125.39 91.4016 125.613L92.7701 126.831C93.0203 127.054 93.0427 127.438 92.8198 127.688C92.7002 127.823 92.5334 127.891 92.3664 127.891Z" fill="#161616"/>
<path d="M291.135 114.146C291.087 114.146 291.038 114.141 290.989 114.129C290.664 114.048 290.465 113.719 290.546 113.394L291.276 110.433C291.356 110.108 291.685 109.908 292.011 109.989C292.336 110.07 292.535 110.399 292.454 110.724L291.724 113.685C291.656 113.961 291.408 114.146 291.135 114.146Z" fill="#161616"/>
<path d="M289.153 113.793C288.886 113.793 288.641 113.615 288.568 113.344L288.046 111.42C287.959 111.096 288.15 110.763 288.473 110.675C288.795 110.588 289.13 110.778 289.218 111.102L289.739 113.027C289.827 113.351 289.636 113.684 289.312 113.771C289.26 113.786 289.206 113.793 289.153 113.793Z" fill="#161616"/>
<path d="M34.7094 61.2137C34.7094 61.2137 120.627 49.9195 140.105 51.3844C140.105 51.3844 79.6131 33.4008 34.7094 34.129V61.2137Z" fill="#21D363"/>
<path d="M23.7861 64.499C23.4893 64.499 23.23 64.2813 23.1861 63.9789C23.1383 63.6471 23.3684 63.3395 23.6999 63.2915C24.6674 63.1517 120.708 49.3264 140.029 50.7793C140.363 50.8046 140.613 51.0958 140.588 51.4301C140.563 51.7643 140.269 52.0121 139.938 51.9898C120.745 50.5432 24.84 64.3531 23.8735 64.4927C23.8441 64.4968 23.815 64.499 23.7861 64.499Z" fill="#161616"/>
<path d="M28.8832 52.2988C28.583 52.2988 28.322 52.076 28.282 51.7702C28.2388 51.4379 28.4733 51.1896 28.8055 51.1466C29.3844 51.0711 86.9654 43.4474 109.809 43.2047C109.814 43.2047 109.818 43.2047 109.822 43.2047C110.151 43.2047 110.422 43.412 110.428 43.7428C110.435 44.0778 110.169 44.3271 109.834 44.3336C87.0554 44.7955 29.5403 52.2326 28.9619 52.3078C28.9356 52.3112 28.9092 52.2988 28.8832 52.2988Z" fill="#161616"/>
<path d="M34.9513 42.3816C34.6578 42.3816 34.3998 42.1682 34.3525 41.8689C34.3003 41.5379 34.5265 41.2272 34.8576 41.1752C35.1299 41.1323 62.2328 36.8819 74.2039 36.4783C74.527 36.4686 74.8197 36.7293 74.8309 37.0642C74.8421 37.3992 74.5797 37.68 74.2447 37.6912C62.3479 38.0922 35.318 42.3313 35.0464 42.374C35.0144 42.3791 34.9826 42.3816 34.9513 42.3816Z" fill="#161616"/>
<path d="M108.37 49.997C108.681 49.997 108.933 49.7447 108.933 49.4336C108.933 49.1225 108.681 48.8702 108.37 48.8702C108.059 48.8702 107.807 49.1225 107.807 49.4336C107.807 49.7447 108.059 49.997 108.37 49.997Z" fill="#161616"/>
<path d="M111.04 49.997C111.351 49.997 111.603 49.7447 111.603 49.4336C111.603 49.1225 111.351 48.8702 111.04 48.8702C110.729 48.8702 110.477 49.1225 110.477 49.4336C110.477 49.7447 110.729 49.997 111.04 49.997Z" fill="#161616"/>
<path d="M109.584 47.5696C109.895 47.5696 110.147 47.3174 110.147 47.0062C110.147 46.6951 109.895 46.4429 109.584 46.4429C109.272 46.4429 109.02 46.6951 109.02 47.0062C109.02 47.3174 109.272 47.5696 109.584 47.5696Z" fill="#161616"/>
<path d="M89.4375 51.2107C89.7486 51.2107 90.0009 50.9585 90.0009 50.6473C90.0009 50.3362 89.7486 50.084 89.4375 50.084C89.1264 50.084 88.8741 50.3362 88.8741 50.6473C88.8741 50.9585 89.1264 51.2107 89.4375 51.2107Z" fill="#161616"/>
<path d="M92.1076 51.2107C92.4187 51.2107 92.6709 50.9585 92.6709 50.6473C92.6709 50.3362 92.4187 50.084 92.1076 50.084C91.7964 50.084 91.5442 50.3362 91.5442 50.6473C91.5442 50.9585 91.7964 51.2107 92.1076 51.2107Z" fill="#161616"/>
<path d="M90.6513 48.7833C90.9624 48.7833 91.2146 48.5311 91.2146 48.22C91.2146 47.9088 90.9624 47.6566 90.6513 47.6566C90.3401 47.6566 90.0879 47.9088 90.0879 48.22C90.0879 48.5311 90.3401 48.7833 90.6513 48.7833Z" fill="#161616"/>
<path d="M67.1071 53.6378C67.4182 53.6378 67.6704 53.3856 67.6704 53.0745C67.6704 52.7633 67.4182 52.5111 67.1071 52.5111C66.7959 52.5111 66.5437 52.7633 66.5437 53.0745C66.5437 53.3856 66.7959 53.6378 67.1071 53.6378Z" fill="#161616"/>
<path d="M69.7771 53.6378C70.0882 53.6378 70.3405 53.3856 70.3405 53.0745C70.3405 52.7633 70.0882 52.5111 69.7771 52.5111C69.466 52.5111 69.2137 52.7633 69.2137 53.0745C69.2137 53.3856 69.466 53.6378 69.7771 53.6378Z" fill="#161616"/>
<path d="M68.3208 51.2105C68.6319 51.2105 68.8842 50.9582 68.8842 50.6471C68.8842 50.336 68.6319 50.0837 68.3208 50.0837C68.0097 50.0837 67.7574 50.336 67.7574 50.6471C67.7574 50.9582 68.0097 51.2105 68.3208 51.2105Z" fill="#161616"/>
<path d="M40.8928 56.5509C41.204 56.5509 41.4562 56.2987 41.4562 55.9876C41.4562 55.6764 41.204 55.4242 40.8928 55.4242C40.5817 55.4242 40.3295 55.6764 40.3295 55.9876C40.3295 56.2987 40.5817 56.5509 40.8928 56.5509Z" fill="#161616"/>
<path d="M43.5627 56.5509C43.8739 56.5509 44.1261 56.2987 44.1261 55.9876C44.1261 55.6764 43.8739 55.4242 43.5627 55.4242C43.2516 55.4242 42.9994 55.6764 42.9994 55.9876C42.9994 56.2987 43.2516 56.5509 43.5627 56.5509Z" fill="#161616"/>
<path d="M42.1065 54.1235C42.4176 54.1235 42.6698 53.8713 42.6698 53.5602C42.6698 53.2491 42.4176 52.9968 42.1065 52.9968C41.7953 52.9968 41.5431 53.2491 41.5431 53.5602C41.5431 53.8713 41.7953 54.1235 42.1065 54.1235Z" fill="#161616"/>
<path d="M51.3301 45.3855C51.6412 45.3855 51.8934 45.1333 51.8934 44.8221C51.8934 44.511 51.6412 44.2588 51.3301 44.2588C51.0189 44.2588 50.7667 44.511 50.7667 44.8221C50.7667 45.1333 51.0189 45.3855 51.3301 45.3855Z" fill="#161616"/>
<path d="M54 45.3855C54.3111 45.3855 54.5634 45.1333 54.5634 44.8221C54.5634 44.511 54.3111 44.2588 54 44.2588C53.6889 44.2588 53.4366 44.511 53.4366 44.8221C53.4366 45.1333 53.6889 45.3855 54 45.3855Z" fill="#161616"/>
<path d="M52.5437 42.9581C52.8548 42.9581 53.1071 42.7059 53.1071 42.3948C53.1071 42.0836 52.8548 41.8314 52.5437 41.8314C52.2326 41.8314 51.9803 42.0836 51.9803 42.3948C51.9803 42.7059 52.2326 42.9581 52.5437 42.9581Z" fill="#161616"/>
<path d="M72.9323 43.4436C73.2434 43.4436 73.4956 43.1914 73.4956 42.8803C73.4956 42.5691 73.2434 42.3169 72.9323 42.3169C72.6211 42.3169 72.3689 42.5691 72.3689 42.8803C72.3689 43.1914 72.6211 43.4436 72.9323 43.4436Z" fill="#161616"/>
<path d="M75.6022 43.4436C75.9133 43.4436 76.1655 43.1914 76.1655 42.8803C76.1655 42.5691 75.9133 42.3169 75.6022 42.3169C75.291 42.3169 75.0388 42.5691 75.0388 42.8803C75.0388 43.1914 75.291 43.4436 75.6022 43.4436Z" fill="#161616"/>
<path d="M74.1459 41.0165C74.457 41.0165 74.7092 40.7643 74.7092 40.4531C74.7092 40.142 74.457 39.8898 74.1459 39.8898C73.8347 39.8898 73.5825 40.142 73.5825 40.4531C73.5825 40.7643 73.8347 41.0165 74.1459 41.0165Z" fill="#161616"/>
<path d="M38.9512 38.8319C39.2623 38.8319 39.5145 38.5797 39.5145 38.2686C39.5145 37.9574 39.2623 37.7052 38.9512 37.7052C38.64 37.7052 38.3878 37.9574 38.3878 38.2686C38.3878 38.5797 38.64 38.8319 38.9512 38.8319Z" fill="#161616"/>
<path d="M41.6211 38.8319C41.9322 38.8319 42.1845 38.5797 42.1845 38.2686C42.1845 37.9574 41.9322 37.7052 41.6211 37.7052C41.31 37.7052 41.0577 37.9574 41.0577 38.2686C41.0577 38.5797 41.31 38.8319 41.6211 38.8319Z" fill="#161616"/>
<path d="M40.1648 36.4046C40.4759 36.4046 40.7282 36.1523 40.7282 35.8412C40.7282 35.5301 40.4759 35.2778 40.1648 35.2778C39.8537 35.2778 39.6014 35.5301 39.6014 35.8412C39.6014 36.1523 39.8537 36.4046 40.1648 36.4046Z" fill="#161616"/>
<path d="M269.27 124.627C269.27 124.627 268.536 120.631 269.114 118.952C269.114 118.952 272.517 122.6 272.693 125.57L269.27 124.627Z" fill="#946D42"/>
<path d="M304.773 136.167C304.773 136.167 315.101 139.662 312.378 145.53C309.655 151.397 289.143 150.49 284.787 151.216C284.787 151.216 288.236 144.54 292.774 144.338C297.312 144.136 298.811 145.129 298.811 145.129L297.675 143.035C297.675 143.035 302.614 142.519 304.773 143.691C306.932 144.863 307.133 140.332 304.219 138.785L304.773 136.167Z" fill="#161616"/>
<path d="M280.097 138.785C280.097 138.785 284.264 139.782 282.814 142.549C281.363 145.316 271.925 146.083 271.017 145.155C270.11 144.227 273.385 139.152 280.097 138.785Z" fill="#161616"/>
<path d="M273.259 146.137C271.129 146.137 270.733 145.732 270.584 145.579C270.365 145.356 270.058 144.828 270.456 143.806C271.24 141.791 274.542 138.481 280.064 138.179C280.123 138.175 280.181 138.182 280.239 138.195C280.497 138.257 282.786 138.845 283.512 140.444C283.743 140.952 283.903 141.778 283.352 142.83C282.042 145.329 275.986 146.137 273.259 146.137ZM271.475 144.734C271.644 144.803 272.165 144.923 273.259 144.923C276.443 144.923 281.414 143.913 282.276 142.268C282.54 141.765 282.583 141.332 282.407 140.947C282.015 140.083 280.637 139.557 280.039 139.397C276 139.646 273.201 141.727 272.026 143.443C271.539 144.155 271.468 144.589 271.475 144.734Z" fill="#DEE5DC"/>
<path d="M277.112 128.143C277.112 128.143 290.832 119.067 297.213 120.912C308.42 124.154 303.908 139.566 303.712 141.75H278.698L277.112 128.143Z" fill="#161616"/>
<path d="M303.712 142.236H278.698C278.39 142.236 278.131 142.005 278.095 141.699L276.51 128.153C276.483 127.925 276.586 127.703 276.777 127.576C277.245 127.266 288.321 119.967 295.282 119.967C296.054 119.967 296.761 120.059 297.382 120.238C307.782 123.246 305.334 136.186 304.529 140.438C304.422 141.004 304.337 141.452 304.317 141.683C304.288 141.996 304.026 142.236 303.712 142.236ZM279.238 141.022H303.187C303.227 140.795 303.277 140.526 303.336 140.213C304.17 135.808 306.384 124.105 297.045 121.404C296.533 121.257 295.94 121.181 295.282 121.181C289.306 121.181 279.612 127.199 277.759 128.386L279.238 141.022Z" fill="#DEE5DC"/>
<path d="M264.139 139.174C264.139 139.174 275.982 142.571 279.068 142.583C282.154 142.595 286.238 144.338 286.238 139.872L285.68 137.841C285.68 137.841 279.341 135.307 279.114 131.871C278.887 128.436 275.037 125.785 269.27 124.627C257.1 122.184 256.569 137.158 264.139 139.174Z" fill="#161616"/>
<path d="M283.284 143.534C282.593 143.534 281.846 143.446 281.123 143.36C280.428 143.277 279.71 143.192 279.066 143.19C275.932 143.178 264.458 139.897 263.971 139.757C259.868 138.664 258.149 134.247 258.62 130.646C259.057 127.313 261.415 123.752 266.726 123.752C267.567 123.752 268.463 123.846 269.39 124.032C275.618 125.282 279.48 128.198 279.72 131.831C279.885 134.337 284.242 136.613 285.906 137.278C286.083 137.348 286.216 137.497 286.266 137.68L286.824 139.711C286.838 139.763 286.845 139.817 286.845 139.872C286.845 141.233 286.497 142.191 285.782 142.8C285.193 143.301 284.4 143.534 283.284 143.534ZM266.726 124.965C262.2 124.965 260.193 127.982 259.824 130.804C259.419 133.893 260.849 137.67 264.295 138.587C264.424 138.624 276.103 141.965 279.071 141.976C279.784 141.979 280.538 142.068 281.266 142.155C281.986 142.24 282.665 142.321 283.284 142.321C284.095 142.321 284.638 142.18 284.994 141.877C285.411 141.522 285.62 140.891 285.631 139.952L285.174 138.287C283.883 137.726 278.731 135.283 278.509 131.911C278.307 128.858 274.809 126.358 269.15 125.222C268.302 125.052 267.486 124.965 266.726 124.965Z" fill="#DEE5DC"/>
<path d="M299.494 130.803C299.494 130.803 292.039 130.189 294.393 137.068C294.393 137.068 287.429 138.946 288.409 141.544" fill="#161616"/>
<path d="M288.409 142.151C288.164 142.151 287.933 142.002 287.842 141.759C287.633 141.205 287.671 140.621 287.953 140.07C288.857 138.304 292.202 137.102 293.63 136.659C293.094 134.741 293.267 133.198 294.148 132.066C295.821 129.918 299.393 130.185 299.544 130.198C299.878 130.226 300.126 130.519 300.098 130.853C300.071 131.187 299.776 131.432 299.445 131.408C299.403 131.405 296.368 131.186 295.103 132.815C294.401 133.719 294.355 135.084 294.967 136.871C295.021 137.03 295.007 137.204 294.928 137.352C294.85 137.501 294.713 137.61 294.551 137.653C293.26 138.002 289.753 139.216 289.033 140.624C288.906 140.871 288.889 141.095 288.977 141.33C289.095 141.643 288.937 141.993 288.624 142.112C288.553 142.139 288.481 142.151 288.409 142.151Z" fill="#DEE5DC"/>
<path d="M261.355 138.007C261.355 138.007 256.955 139.059 258.486 141.982C260.018 144.904 269.987 145.713 270.945 144.734C271.903 143.754 268.444 138.394 261.355 138.007Z" fill="#161616"/>
<path d="M268.578 145.634H268.577C265.703 145.634 259.323 144.836 257.949 142.212C257.486 141.33 257.43 140.517 257.78 139.747C258.554 138.045 261.106 137.43 261.214 137.404C261.271 137.39 261.33 137.391 261.388 137.395C267.205 137.713 270.681 141.199 271.506 143.319C271.919 144.38 271.603 144.875 271.379 145.105C271.224 145.263 270.812 145.634 268.578 145.634ZM261.414 138.618C260.78 138.789 259.302 139.355 258.884 140.277C258.695 140.694 258.741 141.16 259.024 141.7C259.433 142.481 260.832 143.185 262.863 143.72C264.618 144.184 266.808 144.42 268.577 144.42H268.578C269.78 144.42 270.331 144.334 270.493 144.261C270.509 144.128 270.458 143.719 269.974 142.98C268.754 141.118 265.784 138.886 261.414 138.618Z" fill="#DEE5DC"/>
<path d="M273.18 134.739C273.18 134.739 274.391 136.702 276.57 134.739H273.18Z" fill="#161616"/>
<path d="M274.728 136.219C274.617 136.219 274.507 136.211 274.397 136.195C273.297 136.038 272.725 135.158 272.664 135.058C272.487 134.772 272.576 134.399 272.861 134.223C273.144 134.048 273.516 134.134 273.693 134.416C273.706 134.435 274.033 134.923 274.579 134.995C275.041 135.055 275.574 134.819 276.163 134.288C276.412 134.064 276.796 134.084 277.02 134.333C277.244 134.582 277.225 134.966 276.976 135.19C276.217 135.874 275.462 136.219 274.728 136.219Z" fill="#DEE5DC"/>
<path d="M282.474 137.206C282.474 137.206 282.214 140.817 285.197 139.806C288.18 138.795 285 136.339 282.474 137.206Z" fill="#946D42"/>
<path d="M265.696 135.869C265.696 135.869 265.181 139.469 268.069 140.133L265.696 135.869Z" fill="#161616"/>
<path d="M268.07 140.74C268.024 140.74 267.979 140.735 267.933 140.725C265.219 140.1 264.89 137.219 265.096 135.783C265.143 135.451 265.451 135.218 265.782 135.268C266.114 135.315 266.344 135.622 266.297 135.953C266.28 136.078 265.902 139.012 268.205 139.542C268.532 139.617 268.736 139.943 268.661 140.27C268.596 140.55 268.346 140.74 268.07 140.74Z" fill="#DEE5DC"/>
<path d="M266.515 125.803C266.515 125.803 261.552 120.775 257.967 120.397C254.382 120.018 258.509 128.161 261.357 128.784" fill="#161616"/>
<path d="M261.357 129.391C261.314 129.391 261.271 129.386 261.227 129.376C258.686 128.82 255.624 123.569 256 121.245C256.166 120.219 256.927 119.677 258.031 119.794C261.788 120.191 266.738 125.165 266.947 125.377C267.182 125.615 267.18 125.999 266.941 126.235C266.703 126.47 266.318 126.468 266.083 126.23C266.035 126.181 261.23 121.352 257.903 121.001C257.327 120.939 257.243 121.163 257.198 121.439C256.917 123.179 259.605 127.78 261.487 128.191C261.814 128.263 262.021 128.586 261.95 128.914C261.887 129.197 261.636 129.391 261.357 129.391Z" fill="#DEE5DC"/>
<path d="M263.626 128.783C263.626 128.783 259.241 122.184 257.1 121.318C257.1 121.318 257.704 128.883 263.626 128.783Z" fill="#946D42"/>
<path d="M179.979 159.105C179.644 159.105 179.372 158.833 179.372 158.498V155.343C179.372 155.008 179.644 154.736 179.979 154.736C180.314 154.736 180.586 155.008 180.586 155.343V158.498C180.586 158.833 180.314 159.105 179.979 159.105Z" fill="#161616"/>
<path d="M182.224 159.931C182.159 159.931 182.094 159.921 182.029 159.898C181.711 159.791 181.542 159.446 181.649 159.129L182.475 156.693C182.582 156.376 182.927 156.205 183.245 156.314C183.562 156.421 183.732 156.766 183.624 157.083L182.798 159.519C182.713 159.771 182.477 159.931 182.224 159.931Z" fill="#161616"/>
<path d="M185.164 159.931C184.997 159.931 184.831 159.862 184.711 159.727C184.488 159.477 184.51 159.094 184.761 158.871L186.129 157.653C186.379 157.43 186.763 157.452 186.986 157.703C187.209 157.953 187.186 158.336 186.936 158.559L185.568 159.777C185.452 159.88 185.308 159.931 185.164 159.931Z" fill="#161616"/>
<path d="M148.43 105.212C148.196 105.212 147.972 105.075 147.873 104.846L146.619 101.951C146.485 101.644 146.627 101.286 146.934 101.153C147.242 101.02 147.599 101.161 147.732 101.469L148.987 104.364C149.12 104.671 148.979 105.029 148.671 105.162C148.592 105.196 148.511 105.212 148.43 105.212Z" fill="#161616"/>
<path d="M150.817 105.079C150.505 105.079 150.239 104.839 150.213 104.522L150.003 101.958C149.975 101.624 150.224 101.331 150.558 101.304C150.894 101.276 151.185 101.525 151.212 101.859L151.423 104.422C151.45 104.756 151.202 105.049 150.868 105.077C150.851 105.078 150.834 105.079 150.817 105.079Z" fill="#161616"/>
<path d="M153.516 103.91C153.43 103.91 153.343 103.891 153.261 103.853C152.957 103.712 152.825 103.351 152.966 103.047L153.737 101.386C153.878 101.082 154.239 100.95 154.543 101.091C154.847 101.232 154.979 101.593 154.838 101.897L154.066 103.558C153.964 103.78 153.745 103.91 153.516 103.91Z" fill="#161616"/>
<path d="M261.743 146.107C261.706 146.107 261.667 146.103 261.629 146.096C261.3 146.033 261.084 145.715 261.147 145.386L261.739 142.287C261.802 141.957 262.121 141.742 262.449 141.804C262.778 141.867 262.994 142.185 262.931 142.514L262.339 145.614C262.283 145.904 262.029 146.107 261.743 146.107Z" fill="#161616"/>
<path d="M259.382 146.497C259.084 146.497 258.824 146.277 258.782 145.973L258.428 143.426C258.382 143.094 258.613 142.788 258.946 142.741C259.278 142.697 259.584 142.927 259.63 143.259L259.984 145.807C260.03 146.138 259.798 146.445 259.466 146.491C259.438 146.495 259.41 146.497 259.382 146.497Z" fill="#161616"/>
<path d="M256.495 145.945C256.313 145.945 256.133 145.863 256.013 145.707L254.898 144.254C254.694 143.988 254.744 143.607 255.01 143.403C255.276 143.199 255.657 143.249 255.861 143.515L256.976 144.968C257.18 145.234 257.13 145.615 256.864 145.819C256.754 145.904 256.624 145.945 256.495 145.945Z" fill="#161616"/>
<path d="M244.833 54.6126C244.502 54.6126 244.231 54.4043 244.226 54.0723L244.14 48.7615C244.135 48.4265 244.402 48.1646 244.737 48.1593C245.076 48.1496 245.349 48.4282 245.354 48.7634L245.44 54.0492C245.445 54.3844 245.178 54.6123 244.843 54.6123C244.839 54.6126 244.836 54.6126 244.833 54.6126Z" fill="#161616"/>
<path d="M251.143 53.3991C250.812 53.3991 250.542 53.1404 250.536 52.8083L250.451 47.4655C250.445 47.1305 250.712 46.8456 251.048 46.8456C251.051 46.8456 251.054 46.8456 251.058 46.8456C251.388 46.8456 251.659 47.1174 251.664 47.4492L251.75 52.7855C251.755 53.1205 251.488 53.3989 251.153 53.3989C251.149 53.3991 251.146 53.3991 251.143 53.3991Z" fill="#161616"/>
<path d="M256.725 53.3991C256.394 53.3991 256.123 53.0955 256.118 52.7637L256.033 47.4432C256.027 47.108 256.294 46.8456 256.63 46.8456C256.633 46.8456 256.636 46.8456 256.64 46.8456C256.97 46.8456 257.241 47.073 257.246 47.4046L257.332 52.7634C257.337 53.0986 257.07 53.3991 256.734 53.3991C256.731 53.3991 256.728 53.3991 256.725 53.3991Z" fill="#161616"/>
<path d="M263.035 52.9134C262.704 52.9134 262.433 52.6806 262.428 52.3488L262.342 47.0257C262.337 46.6907 262.604 46.4227 262.94 46.4174C263.278 46.414 263.551 46.6834 263.556 47.0184L263.642 52.3272C263.647 52.6622 263.38 52.9134 263.045 52.9134C263.041 52.9134 263.038 52.9134 263.035 52.9134Z" fill="#161616"/>
<path d="M268.859 52.4282C268.529 52.4282 268.258 52.1489 268.253 51.8168L268.167 46.4706C268.162 46.1356 268.429 45.856 268.764 45.8507C269.099 45.8417 269.375 46.1106 269.381 46.4458L269.466 51.7984C269.472 52.1333 269.205 52.4282 268.869 52.4282C268.866 52.4282 268.863 52.4282 268.859 52.4282Z" fill="#161616"/>
<path d="M275.169 52.1855C274.839 52.1855 274.568 51.9767 274.563 51.6449L274.477 46.3339C274.472 45.9987 274.739 45.7371 275.074 45.7317C275.42 45.7286 275.685 46.0009 275.691 46.3359L275.776 51.6221C275.781 51.9573 275.514 52.1855 275.179 52.1855C275.176 52.1855 275.172 52.1855 275.169 52.1855Z" fill="#161616"/>
<path d="M280.751 52.1854C280.42 52.1854 280.15 51.9319 280.144 51.6001L280.059 46.267C280.054 45.9321 280.321 45.659 280.656 45.6537C281.003 45.6444 281.267 45.9168 281.272 46.252L281.358 51.5802C281.363 51.9152 281.096 52.1856 280.761 52.1856C280.758 52.1854 280.754 52.1854 280.751 52.1854Z" fill="#161616"/>
<path d="M287.061 52.4281C286.73 52.4281 286.46 52.1242 286.455 51.7924L286.369 46.4338C286.364 46.0988 286.631 45.8131 286.966 45.8075C287.3 45.7998 287.577 46.0646 287.582 46.3998L287.668 51.7751C287.673 52.1101 287.406 52.4278 287.071 52.4278C287.068 52.4281 287.064 52.4281 287.061 52.4281Z" fill="#161616"/>
<path d="M292.643 52.6708C292.312 52.6708 292.042 52.4436 292.037 52.1118L291.951 46.7915C291.946 46.4566 292.213 46.1901 292.548 46.1847C292.883 46.1745 293.159 46.4512 293.164 46.7864L293.25 52.0902C293.255 52.4251 292.988 52.671 292.653 52.671C292.65 52.6708 292.646 52.6708 292.643 52.6708Z" fill="#161616"/>
<path d="M298.953 52.6708C298.622 52.6708 298.352 52.3929 298.346 52.0611L298.261 46.7158C298.256 46.3808 298.523 46.1015 298.858 46.0961C299.205 46.0915 299.469 46.3566 299.474 46.6915L299.56 52.0426C299.565 52.3776 299.298 52.6708 298.963 52.6708C298.96 52.6708 298.956 52.6708 298.953 52.6708Z" fill="#161616"/>
<path d="M304.535 53.8844C304.204 53.8844 303.934 53.5618 303.928 53.23L303.843 47.8622C303.838 47.527 304.105 47.2367 304.44 47.2314C304.787 47.2238 305.051 47.486 305.056 47.8212L305.142 53.2142C305.147 53.5494 304.88 53.8844 304.545 53.8844C304.542 53.8844 304.538 53.8844 304.535 53.8844Z" fill="#161616"/>
<path d="M242.87 51.6722C242.57 51.6722 242.308 51.4496 242.269 51.144C242.225 50.8117 242.459 50.5071 242.791 50.4636C243.209 50.4093 284.828 45.0456 306.999 49.3539C307.328 49.4178 307.543 49.7364 307.479 50.0653C307.415 50.3945 307.098 50.6093 306.767 50.5452C284.789 46.274 243.365 51.6125 242.949 51.6671C242.922 51.6702 242.896 51.6722 242.87 51.6722Z" fill="#161616"/>
<path d="M279.253 26.1423L300.718 27.3875L304.45 33.116L303.956 42.9257L284.967 42.265L279.253 26.1423Z" fill="#161616"/>
<path d="M271.85 41.2725V31.5592L279.233 26.1423L285.243 32.3687L284.942 42.265C284.942 42.265 276.462 41.0346 271.85 41.2725Z" fill="#161616"/>
<path d="M284.909 42.8717C284.902 42.8717 284.895 42.8717 284.889 42.8714C284.554 42.8608 284.291 42.5802 284.302 42.2452L284.615 32.6057L278.77 26.5641C278.537 26.3233 278.543 25.9391 278.784 25.7061C279.025 25.4735 279.409 25.4796 279.642 25.7204L285.666 31.9467C285.78 32.0647 285.842 32.2241 285.837 32.3882L285.515 42.2845C285.504 42.6129 285.235 42.8717 284.909 42.8717Z" fill="#DEE5DC"/>
<path d="M280.67 42.1525C280.645 42.1525 280.621 42.151 280.595 42.1479C280.263 42.1069 280.026 41.8042 280.067 41.4717C280.216 40.2556 280.354 36.7929 279.215 35.391C278.926 35.0351 278.576 34.8446 278.147 34.8082C277.747 34.7735 277.439 34.8859 277.173 35.1587C276.01 36.3485 276.114 39.9384 276.253 41.2214C276.289 41.5547 276.047 41.8537 275.714 41.8899C275.38 41.9258 275.082 41.6845 275.046 41.3515C275.04 41.2996 274.91 40.0631 274.981 38.6015C275.082 36.5497 275.527 35.1062 276.304 34.3106C276.822 33.7812 277.494 33.5351 278.249 33.5987C279.014 33.6633 279.656 34.0091 280.157 34.6266C281.854 36.7167 281.296 41.4207 281.271 41.62C281.234 41.9272 280.972 42.1525 280.67 42.1525Z" fill="#DEE5DC"/>
<path d="M293.209 27.5237V22.3304H296.85V27.909L293.209 27.5237Z" fill="#161616"/>
<path d="M122.068 26.0118C121.992 26.0118 121.916 25.9977 121.843 25.9683L119.822 25.1593C119.51 25.0348 119.359 24.6817 119.483 24.3705C119.608 24.0596 119.961 23.9081 120.272 24.0326L121.899 24.6836L122.77 23.7067C122.992 23.4566 123.376 23.4341 123.626 23.6576C123.876 23.8807 123.899 24.2642 123.675 24.5144L122.521 25.8089C122.404 25.9407 122.238 26.0118 122.068 26.0118Z" fill="#EEEEEE"/>
<path d="M119.641 33.0508C119.565 33.0508 119.489 33.0367 119.416 33.0073L117.394 32.1983C117.083 32.0738 116.932 31.7206 117.056 31.4095C117.181 31.0985 117.534 30.9471 117.845 31.0716L119.471 31.7226L120.342 30.7456C120.565 30.4956 120.949 30.4733 121.199 30.6966C121.449 30.9196 121.471 31.3032 121.248 31.5534L120.094 32.8478C119.977 32.9796 119.811 33.0508 119.641 33.0508Z" fill="#EEEEEE"/>
<path d="M129.593 32.3226C129.517 32.3226 129.441 32.3085 129.367 32.2792L127.346 31.4702C127.035 31.3456 126.884 30.9925 127.008 30.6813C127.133 30.3704 127.485 30.2187 127.797 30.3434L129.423 30.9944L130.294 30.0175C130.517 29.7675 130.9 29.7451 131.151 29.9684C131.401 30.1915 131.423 30.575 131.2 30.8252L130.045 32.1197C129.928 32.2515 129.762 32.3226 129.593 32.3226Z" fill="#EEEEEE"/>
<path d="M129.593 22.3709C129.517 22.3709 129.441 22.3568 129.367 22.3275L127.346 21.5185C127.035 21.394 126.884 21.0408 127.008 20.7296C127.133 20.4187 127.485 20.2672 127.797 20.3918L129.423 21.0427L130.294 20.0658C130.517 19.8158 130.9 19.7932 131.151 20.0168C131.401 20.2398 131.423 20.6233 131.2 20.8736L130.045 22.168C129.928 22.2998 129.762 22.3709 129.593 22.3709Z" fill="#EEEEEE"/>
<path d="M111.146 19.4584C111.07 19.4584 110.994 19.4443 110.92 19.415L108.899 18.606C108.588 18.4814 108.437 18.1283 108.561 17.8171C108.686 17.5064 109.038 17.3547 109.35 17.4792L110.976 18.1302L111.847 17.1533C112.07 16.903 112.453 16.8807 112.704 17.1042C112.954 17.3273 112.976 17.7108 112.753 17.9611L111.598 19.2555C111.481 19.3873 111.315 19.4584 111.146 19.4584Z" fill="#EEEEEE"/>
<path d="M100.609 188.717C100.274 188.717 100.002 188.445 100.002 188.11V184.955C100.002 184.62 100.274 184.348 100.609 184.348C100.944 184.348 101.216 184.62 101.216 184.955V188.11C101.216 188.445 100.944 188.717 100.609 188.717Z" fill="#161616"/>
<path d="M102.853 189.543C102.789 189.543 102.723 189.533 102.659 189.511C102.341 189.403 102.171 189.059 102.279 188.741L103.105 186.305C103.212 185.988 103.557 185.818 103.874 185.926C104.192 186.033 104.362 186.378 104.254 186.695L103.428 189.131C103.343 189.384 103.106 189.543 102.853 189.543Z" fill="#161616"/>
<path d="M105.794 189.543C105.627 189.543 105.46 189.474 105.341 189.34C105.118 189.089 105.14 188.706 105.39 188.483L106.759 187.265C107.009 187.042 107.392 187.065 107.615 187.315C107.838 187.565 107.816 187.949 107.566 188.171L106.197 189.389C106.082 189.492 105.937 189.543 105.794 189.543Z" fill="#161616"/>
<path d="M130.464 139.687C130.128 139.687 129.857 139.416 129.857 139.08V135.925C129.857 135.59 130.128 135.318 130.464 135.318C130.799 135.318 131.07 135.59 131.07 135.925V139.08C131.07 139.416 130.799 139.687 130.464 139.687Z" fill="#161616"/>
<path d="M132.708 140.513C132.644 140.513 132.578 140.503 132.513 140.481C132.196 140.373 132.026 140.029 132.134 139.711L132.959 137.276C133.067 136.959 133.412 136.787 133.729 136.896C134.046 137.003 134.216 137.348 134.109 137.665L133.283 140.101C133.197 140.354 132.961 140.513 132.708 140.513Z" fill="#161616"/>
<path d="M135.649 140.513C135.482 140.513 135.315 140.444 135.195 140.31C134.972 140.059 134.995 139.676 135.245 139.453L136.614 138.235C136.864 138.012 137.247 138.034 137.47 138.285C137.693 138.535 137.671 138.918 137.42 139.141L136.052 140.359C135.936 140.462 135.792 140.513 135.649 140.513Z" fill="#161616"/>
<path d="M236.534 180.222C236.198 180.222 235.927 179.95 235.927 179.615V176.46C235.927 176.125 236.198 175.853 236.534 175.853C236.869 175.853 237.14 176.125 237.14 176.46V179.615C237.14 179.95 236.869 180.222 236.534 180.222Z" fill="#161616"/>
<path d="M238.778 181.048C238.714 181.048 238.648 181.037 238.583 181.015C238.266 180.908 238.096 180.563 238.204 180.246L239.029 177.81C239.137 177.493 239.481 177.322 239.799 177.43C240.116 177.538 240.286 177.882 240.179 178.2L239.353 180.636C239.267 180.888 239.031 181.048 238.778 181.048Z" fill="#161616"/>
<path d="M241.719 181.047C241.552 181.047 241.385 180.979 241.265 180.844C241.042 180.594 241.065 180.21 241.315 179.987L242.684 178.769C242.934 178.546 243.317 178.569 243.54 178.819C243.763 179.069 243.741 179.453 243.49 179.676L242.122 180.894C242.006 180.997 241.862 181.047 241.719 181.047Z" fill="#161616"/>
<path d="M199.882 126.337C199.547 126.337 199.276 126.066 199.276 125.73V122.575C199.276 122.24 199.547 121.968 199.882 121.968C200.218 121.968 200.489 122.24 200.489 122.575V125.73C200.489 126.066 200.218 126.337 199.882 126.337Z" fill="#161616"/>
<path d="M202.127 127.163C202.063 127.163 201.997 127.153 201.932 127.131C201.615 127.023 201.445 126.679 201.553 126.361L202.378 123.926C202.486 123.608 202.831 123.437 203.148 123.546C203.465 123.653 203.635 123.998 203.527 124.315L202.702 126.751C202.616 127.004 202.38 127.163 202.127 127.163Z" fill="#161616"/>
<path d="M205.068 127.163C204.901 127.163 204.734 127.094 204.614 126.96C204.391 126.709 204.414 126.326 204.664 126.103L206.033 124.885C206.283 124.662 206.666 124.685 206.889 124.935C207.112 125.185 207.09 125.568 206.839 125.791L205.471 127.009C205.355 127.112 205.211 127.163 205.068 127.163Z" fill="#161616"/>
<path d="M78.5207 97.9387C78.1855 97.9387 77.9139 97.6671 77.9139 97.3319V94.1765C77.9139 93.8413 78.1855 93.5697 78.5207 93.5697C78.8559 93.5697 79.1276 93.8413 79.1276 94.1765V97.3319C79.1276 97.6671 78.8559 97.9387 78.5207 97.9387Z" fill="#161616"/>
<path d="M80.7656 98.7647C80.701 98.7647 80.6353 98.7545 80.5707 98.7324C80.2532 98.6249 80.0833 98.2803 80.1911 97.963L81.0168 95.5273C81.1241 95.21 81.469 95.0394 81.7863 95.1474C82.1037 95.255 82.2736 95.5996 82.1659 95.9169L81.3401 98.3526C81.2547 98.6055 81.0185 98.7647 80.7656 98.7647Z" fill="#161616"/>
<path d="M83.7061 98.7646C83.5391 98.7646 83.3726 98.6959 83.2527 98.5612C83.0298 98.3109 83.0522 97.9272 83.3024 97.7044L84.6709 96.4864C84.9212 96.2636 85.3044 96.2856 85.5275 96.5364C85.7503 96.7866 85.728 97.1704 85.4777 97.3932L84.1092 98.6112C83.9937 98.7141 83.8495 98.7646 83.7061 98.7646Z" fill="#161616"/>
<path d="M118.813 77.5499C118.478 77.5499 118.206 77.2783 118.206 76.9431V73.7877C118.206 73.4525 118.478 73.1809 118.813 73.1809C119.148 73.1809 119.42 73.4525 119.42 73.7877V76.9431C119.42 77.2783 119.148 77.5499 118.813 77.5499Z" fill="#161616"/>
<path d="M121.058 78.3761C120.993 78.3761 120.927 78.3659 120.863 78.3438C120.545 78.2362 120.375 77.8916 120.483 77.5743L121.309 75.1386C121.416 74.8214 121.761 74.6507 122.078 74.7588C122.396 74.8663 122.566 75.211 122.458 75.5282L121.632 77.9639C121.547 78.2168 121.311 78.3761 121.058 78.3761Z" fill="#161616"/>
<path d="M123.998 78.3757C123.831 78.3757 123.665 78.307 123.545 78.1723C123.322 77.922 123.344 77.5383 123.595 77.3154L124.963 76.0975C125.213 75.8746 125.597 75.8967 125.82 76.1475C126.042 76.3977 126.02 76.7815 125.77 77.0043L124.401 78.2223C124.286 78.3252 124.142 78.3757 123.998 78.3757Z" fill="#161616"/>
<path d="M221.485 74.152C221.15 74.152 220.878 73.8804 220.878 73.5452V70.3898C220.878 70.0546 221.15 69.783 221.485 69.783C221.82 69.783 222.092 70.0546 222.092 70.3898V73.5452C222.092 73.8804 221.82 74.152 221.485 74.152Z" fill="#161616"/>
<path d="M223.729 74.9779C223.665 74.9779 223.599 74.9677 223.535 74.9456C223.217 74.8381 223.047 74.4934 223.155 74.1762L223.981 71.7405C224.088 71.4232 224.433 71.2528 224.75 71.3606C225.068 71.4681 225.238 71.8128 225.13 72.13L224.304 74.5657C224.219 74.8187 223.982 74.9779 223.729 74.9779Z" fill="#161616"/>
<path d="M226.67 74.9778C226.503 74.9778 226.337 74.9091 226.217 74.7743C225.994 74.5241 226.016 74.1404 226.266 73.9175L227.635 72.6995C227.885 72.4767 228.268 72.4991 228.491 72.7495C228.714 72.9998 228.692 73.3835 228.442 73.6064L227.073 74.8243C226.958 74.9273 226.814 74.9778 226.67 74.9778Z" fill="#161616"/>
</svg>
